<?xml version="1.0" encoding="UTF-8" standalone="no"?>
<!DOCTYPE svg PUBLIC "-//W3C//DTD SVG 1.1//EN" "http://www.w3.org/Graphics/SVG/1.1/DTD/svg11.dtd">
<svg xmlns="http://www.w3.org/2000/svg" version="1.1" viewBox="0.00 0.00 960.00 960.00">
<g stroke-width="2.00" fill="none" stroke-linecap="butt">
<path stroke="#808080" vector-effect="non-scaling-stroke" d="
  M 104.39 590.18
  A 0.62 0.61 25.5 0 1 104.74 591.15
  Q 102.26 594.47 100.80 598.28
  C 97.41 607.14 92.18 617.59 90.98 626.24
  Q 88.88 641.30 90.62 659.13
  C 91.62 669.39 96.08 678.58 99.63 688.10
  Q 101.37 692.78 103.91 696.78
  Q 110.23 706.71 112.80 709.95
  C 122.67 722.35 133.96 730.71 147.78 738.25
  Q 152.73 740.95 158.05 742.57
  Q 168.45 745.74 178.79 748.31
  A 1.49 1.49 0.0 0 1 179.91 749.84
  Q 179.08 764.71 183.03 778.61
  Q 184.32 783.15 185.19 787.50
  Q 186.42 793.64 187.97 796.27
  C 192.51 804.03 197.07 812.46 202.42 819.04
  Q 210.69 829.23 219.44 835.09
  Q 231.52 843.19 239.51 846.72
  C 243.89 848.66 250.21 849.80 255.88 851.39
  Q 270.20 855.40 285.01 854.25
  A 1.09 1.09 0.0 0 1 286.12 854.99
  C 288.90 863.37 290.77 872.97 294.74 880.49
  Q 301.61 893.53 312.14 903.93
  C 314.58 906.34 317.79 908.70 320.60 911.11
  Q 323.91 913.95 327.32 915.75
  C 333.68 919.11 339.99 923.11 346.89 924.77
  C 357.84 927.42 369.51 929.74 380.88 928.75
  C 385.20 928.38 390.72 926.93 395.24 926.24
  Q 403.00 925.06 409.76 922.05
  C 413.00 920.60 416.82 918.12 420.36 916.23
  Q 425.17 913.65 428.03 911.40
  Q 440.79 901.37 449.89 887.97
  C 454.37 881.38 457.21 873.32 460.43 865.67
  C 463.90 857.45 464.28 848.42 464.29 838.00
  Q 464.36 477.25 464.29 116.50
  C 464.28 110.79 463.82 103.51 461.79 97.40
  Q 457.63 84.84 453.43 77.07
  Q 443.76 59.15 425.96 46.25
  Q 421.99 43.37 416.08 40.51
  C 410.75 37.94 404.72 34.23 399.07 33.08
  Q 396.10 32.47 392.00 32.03
  Q 371.72 29.85 354.03 32.50
  Q 347.51 33.47 343.69 35.40
  Q 335.57 39.49 327.31 43.29
  Q 324.82 44.43 321.34 47.52
  C 318.20 50.32 313.76 52.99 310.70 56.66
  Q 308.49 59.33 306.19 61.77
  C 301.55 66.70 297.91 73.36 294.74 78.81
  Q 292.61 82.48 291.15 87.54
  Q 288.67 96.16 285.97 104.52
  A 1.41 1.40 12.9 0 1 284.43 105.48
  Q 277.87 104.56 270.98 105.50
  Q 258.99 107.13 247.20 109.89
  C 242.11 111.08 237.69 113.64 233.02 115.97
  C 217.71 123.58 202.18 137.17 194.11 152.48
  C 191.33 157.76 188.00 161.86 186.31 168.02
  C 182.51 181.96 179.04 195.19 180.07 209.51
  A 2.14 2.14 0.0 0 1 178.31 211.77
  C 169.85 213.25 161.34 214.80 153.58 218.25
  Q 122.02 232.27 104.36 261.85
  Q 101.40 266.82 98.56 274.11
  Q 96.10 280.45 93.71 286.81
  Q 90.87 294.36 90.29 304.75
  C 89.57 317.49 89.27 331.07 93.67 342.52
  Q 97.42 352.28 101.16 362.04
  C 101.93 364.06 103.12 365.76 104.30 367.54
  A 0.47 0.45 -32.0 0 1 104.14 368.19
  Q 94.72 373.71 85.27 378.74
  Q 82.52 380.21 80.03 382.24
  C 75.91 385.61 71.25 389.04 67.84 392.29
  C 56.15 403.42 46.48 416.59 40.38 431.59
  C 37.83 437.88 34.30 444.43 33.14 450.98
  C 30.04 468.61 30.26 487.50 32.58 504.75
  C 33.78 513.74 38.30 522.10 41.61 530.51
  Q 43.62 535.63 46.34 539.91
  C 57.00 556.77 69.00 570.67 86.31 580.96
  C 91.98 584.33 97.96 588.57 104.39 590.18"
/>
<path stroke="#808080" vector-effect="non-scaling-stroke" d="
  M 673.37 104.49
  C 671.80 96.31 668.00 88.17 665.26 80.25
  C 663.48 75.11 659.41 70.67 656.35 66.28
  C 651.20 58.91 645.11 53.36 638.25 47.90
  Q 633.48 44.11 627.12 41.00
  Q 620.20 37.62 613.15 34.50
  Q 609.16 32.75 601.50 31.99
  Q 580.43 29.90 563.02 32.63
  Q 558.06 33.42 553.53 35.61
  C 546.79 38.88 539.35 41.66 533.40 46.21
  Q 529.81 48.95 526.26 51.75
  C 522.90 54.40 520.28 57.72 517.22 60.82
  Q 513.82 64.25 511.72 67.51
  C 507.81 73.60 504.09 79.11 501.72 86.12
  C 499.70 92.12 497.22 98.20 496.13 104.45
  Q 495.77 106.52 495.05 109.84
  Q 493.93 115.05 493.94 128.00
  Q 494.21 479.88 494.19 831.77
  Q 494.19 839.74 494.68 844.71
  C 495.69 854.93 498.18 862.93 501.90 873.53
  Q 504.04 879.64 507.03 884.54
  C 515.22 897.95 525.63 908.98 539.48 916.87
  C 545.43 920.27 551.24 923.51 557.23 925.00
  Q 565.28 927.01 576.22 928.47
  C 588.46 930.10 599.01 927.81 611.57 924.92
  C 614.08 924.34 617.22 923.39 619.13 922.41
  Q 631.91 915.82 635.55 913.30
  Q 650.24 903.13 660.90 886.59
  Q 664.22 881.43 666.90 874.27
  Q 670.48 864.69 673.63 855.19
  A 1.39 1.38 -76.4 0 1 675.14 854.26
  C 687.70 856.02 702.88 851.83 714.86 848.22
  Q 720.50 846.53 726.02 843.43
  C 735.98 837.85 745.30 831.93 752.81 823.15
  C 755.73 819.74 758.89 817.09 761.18 813.22
  C 764.88 807.02 768.94 801.19 771.42 794.47
  C 777.07 779.14 780.82 765.46 779.89 748.92
  Q 779.86 748.38 780.38 748.25
  Q 791.09 745.54 801.64 742.28
  C 808.96 740.02 815.41 735.85 822.06 732.08
  C 826.19 729.75 829.62 726.37 833.28 723.36
  Q 835.38 721.63 836.53 720.47
  Q 846.87 710.09 854.69 697.70
  C 857.52 693.21 859.29 687.58 861.25 683.52
  C 863.87 678.09 866.23 673.14 867.09 667.06
  Q 870.25 644.78 867.21 622.48
  C 866.07 614.06 861.63 606.80 858.53 599.17
  Q 856.88 595.08 855.07 591.00
  A 0.80 0.80 0.0 0 1 855.51 589.93
  C 858.49 588.77 861.48 587.92 864.21 586.20
  C 870.47 582.27 877.31 578.50 882.72 574.26
  Q 894.87 564.76 904.27 552.50
  C 908.38 547.16 912.88 540.70 915.60 534.58
  C 918.80 527.34 922.92 519.99 924.62 512.46
  Q 926.03 506.21 926.86 499.86
  Q 926.88 499.66 928.46 489.21
  C 930.50 475.71 927.57 462.43 924.82 448.03
  C 923.39 440.52 920.77 435.65 916.73 426.96
  Q 913.65 420.32 909.81 414.63
  C 901.69 402.59 893.48 393.43 882.56 384.81
  C 874.71 378.62 865.16 373.68 855.95 368.99
  A 0.80 0.79 23.4 0 1 855.56 368.02
  Q 859.53 356.82 864.43 345.98
  Q 867.17 339.93 867.53 334.50
  C 868.02 327.13 869.00 319.50 868.78 312.48
  Q 868.43 301.24 866.78 290.09
  C 865.70 282.73 860.92 275.04 858.02 268.14
  Q 856.14 263.67 852.07 257.68
  Q 839.61 239.37 823.31 227.92
  C 818.98 224.88 813.82 222.53 808.89 219.89
  C 800.16 215.21 790.65 213.23 781.09 211.89
  A 1.54 1.54 0.0 0 1 779.77 210.25
  C 781.00 193.14 776.39 178.00 770.60 162.29
  Q 769.36 158.96 767.19 155.65
  C 763.72 150.37 760.32 144.48 756.70 140.15
  C 748.92 130.84 739.67 123.02 728.87 117.42
  C 722.05 113.88 715.44 109.88 708.00 108.77
  Q 697.02 107.15 691.01 105.69
  Q 686.92 104.69 674.12 105.09
  Q 673.49 105.11 673.37 104.49"
/>
<path stroke="#808080" vector-effect="non-scaling-stroke" d="
  M 208.30 724.46
  C 216.97 732.43 210.34 740.46 209.30 749.96
  Q 208.08 761.06 210.59 770.42
  Q 214.13 783.61 216.16 787.30
  Q 222.32 798.51 231.61 807.15
  C 234.85 810.17 239.04 812.89 242.85 815.65
  Q 245.81 817.80 249.14 818.98
  Q 263.16 823.96 267.24 824.53
  Q 280.26 826.35 292.66 823.04
  Q 298.85 821.39 301.03 821.57
  C 307.22 822.07 311.79 826.93 313.80 832.60
  Q 314.58 834.81 314.45 838.98
  C 314.15 848.24 316.79 855.08 319.56 863.42
  C 323.80 876.18 335.83 887.25 347.29 893.56
  Q 350.29 895.21 354.37 896.24
  C 360.60 897.83 367.07 899.82 372.91 900.00
  C 378.27 900.16 382.45 899.66 387.97 898.05
  C 393.97 896.30 399.34 895.55 404.66 891.88
  C 408.95 888.92 413.45 886.18 417.01 882.24
  C 419.97 878.94 422.99 876.51 425.09 872.57
  C 429.26 864.79 434.86 855.91 435.05 846.98
  Q 435.51 825.24 435.14 780.49
  Q 435.13 780.01 434.65 780.01
  Q 375.08 779.89 315.50 779.88
  Q 311.40 779.88 306.97 776.99
  C 299.16 771.87 300.29 767.29 300.19 757.19
  Q 299.97 736.58 300.09 715.92
  A 0.81 0.81 0.0 0 0 299.28 715.11
  C 289.02 715.09 274.63 698.40 272.50 689.51
  Q 269.66 677.67 271.49 665.15
  Q 272.44 658.60 275.40 653.36
  Q 283.38 639.22 299.05 632.98
  Q 300.20 632.53 300.20 630.75
  Q 300.09 580.25 300.12 529.75
  Q 300.13 524.20 300.90 520.10
  C 302.68 510.59 310.92 510.93 318.49 510.94
  Q 376.37 511.00 434.24 510.91
  Q 435.39 510.91 435.39 509.76
  L 435.16 435.60
  A 0.68 0.67 0.0 0 0 434.48 434.93
  L 240.98 434.95
  A 0.98 0.97 0.0 0 0 240.00 435.92
  Q 239.94 473.29 239.99 510.50
  C 240.00 512.91 241.52 512.79 242.98 513.71
  C 251.06 518.81 257.90 523.36 262.17 530.81
  C 266.44 538.25 270.38 548.06 269.66 556.71
  C 269.10 563.52 266.54 569.85 263.44 575.98
  C 259.60 583.57 254.01 588.67 246.99 593.06
  C 237.36 599.10 226.07 600.57 215.09 598.31
  Q 207.33 596.72 200.53 592.08
  Q 193.82 587.51 188.72 581.13
  C 185.37 576.95 183.73 571.20 181.90 566.06
  Q 177.89 554.77 181.84 543.52
  C 184.05 537.21 186.30 529.87 191.15 525.14
  Q 196.69 519.72 205.62 514.12
  Q 207.47 512.97 209.28 512.65
  A 0.88 0.88 0.0 0 0 210.01 511.77
  Q 210.00 466.35 210.02 421.33
  C 210.02 416.75 211.26 413.90 213.59 410.27
  C 217.55 404.07 229.83 405.25 236.62 405.27
  Q 335.39 405.58 434.57 405.47
  A 0.91 0.91 0.0 0 0 435.48 404.55
  L 435.20 330.21
  Q 435.20 329.73 434.71 329.73
  L 252.91 329.82
  A 1.25 1.23 14.1 0 0 251.82 330.46
  Q 248.32 336.68 244.04 342.64
  Q 241.37 346.36 237.94 348.86
  C 231.61 353.48 224.89 357.56 217.06 358.65
  C 208.45 359.84 199.70 359.29 191.74 355.57
  Q 177.34 348.85 169.59 334.87
  Q 167.02 330.24 166.21 324.71
  C 164.82 315.28 164.72 303.75 169.31 295.12
  Q 175.52 283.44 186.73 276.34
  C 196.93 269.88 210.06 270.14 221.47 271.93
  Q 226.06 272.65 229.96 274.84
  C 239.72 280.31 246.58 288.35 252.04 299.77
  Q 252.27 300.24 252.79 300.24
  L 329.48 300.22
  A 0.45 0.44 -90.0 0 0 329.92 299.77
  L 329.87 253.47
  A 2.54 2.53 11.0 0 0 328.28 251.12
  C 325.56 250.04 323.21 248.88 320.70 247.00
  C 317.52 244.61 313.54 242.84 311.26 239.56
  C 307.27 233.79 303.24 229.19 301.69 221.98
  C 299.31 210.82 299.47 198.06 305.38 188.06
  Q 308.69 182.44 311.92 178.92
  Q 316.47 173.95 323.07 170.32
  Q 329.13 166.98 336.23 166.02
  Q 348.27 164.38 360.20 167.59
  C 365.20 168.94 368.83 172.41 372.88 175.41
  Q 375.93 177.66 378.16 180.57
  C 381.25 184.62 384.83 188.67 386.49 193.27
  C 389.87 202.66 389.33 214.68 386.98 224.24
  C 385.54 230.16 381.10 234.30 377.90 238.97
  Q 376.18 241.47 374.07 242.99
  Q 367.00 248.09 359.44 252.48
  Q 359.01 252.72 359.01 253.22
  L 359.06 299.53
  Q 359.06 300.26 359.78 300.26
  L 434.72 300.26
  Q 435.32 300.26 435.32 299.66
  Q 435.31 208.97 435.14 118.27
  C 435.12 109.09 433.84 103.18 429.60 94.73
  C 423.69 82.95 415.91 73.87 404.51 67.28
  Q 396.00 62.36 385.77 60.70
  C 371.89 58.44 357.22 59.81 344.95 67.03
  Q 332.28 74.48 324.01 86.81
  C 319.97 92.84 317.90 100.24 315.85 107.37
  C 314.42 112.32 314.57 117.16 314.50 122.27
  C 314.44 126.93 311.72 130.93 309.00 134.45
  C 305.72 138.69 296.26 137.45 292.03 136.43
  C 282.40 134.10 272.58 134.05 262.94 136.24
  C 255.61 137.92 250.15 138.60 243.78 143.07
  C 239.80 145.88 235.57 148.30 232.15 151.48
  C 224.58 158.53 217.19 167.44 214.06 177.07
  C 210.65 187.53 207.80 197.89 209.31 208.76
  Q 209.76 212.03 212.47 222.49
  C 214.40 229.96 208.09 235.60 201.89 238.76
  Q 199.64 239.90 196.43 239.93
  C 191.77 239.98 187.56 239.83 182.93 240.91
  C 174.90 242.79 167.33 243.80 160.25 247.74
  Q 145.09 256.16 134.51 269.21
  C 129.24 275.70 125.79 283.53 122.63 291.41
  C 118.70 301.20 118.45 312.19 119.22 322.75
  C 120.02 333.83 125.26 344.09 130.11 353.87
  C 131.60 356.87 134.61 359.46 136.35 361.98
  Q 139.21 366.12 142.20 370.21
  C 145.83 375.18 144.24 382.05 140.28 385.94
  Q 137.79 388.40 130.60 390.95
  C 121.92 394.03 112.36 396.90 104.85 401.21
  C 86.42 411.77 74.02 426.87 65.51 446.36
  Q 62.64 452.93 61.57 458.97
  C 59.56 470.25 59.32 483.50 60.58 494.00
  Q 62.07 506.34 68.45 518.73
  Q 76.57 534.53 87.60 545.06
  C 91.04 548.35 95.40 551.40 99.46 554.52
  Q 103.10 557.33 107.03 559.10
  Q 116.82 563.50 126.82 567.40
  Q 128.84 568.19 131.39 568.62
  C 137.45 569.64 139.75 571.73 142.69 576.98
  C 145.26 581.58 144.49 585.45 141.53 589.90
  Q 138.41 594.62 134.80 598.96
  Q 131.25 603.25 129.51 606.52
  Q 125.04 614.93 121.95 623.92
  C 118.03 635.29 118.25 647.71 120.26 659.35
  C 121.26 665.09 124.04 670.72 126.41 676.19
  C 130.32 685.20 135.24 691.61 141.89 698.21
  C 146.04 702.31 151.31 705.78 156.26 709.39
  Q 159.30 711.60 162.69 712.80
  Q 171.81 716.03 181.14 718.64
  C 186.84 720.24 192.26 720.03 198.10 720.00
  C 201.54 719.99 206.34 722.67 208.30 724.46"
/>
<path stroke="#808080" vector-effect="non-scaling-stroke" d="
  M 359.34 207.58
  A 12.59 12.59 0.0 0 0 346.75 194.99
  L 342.45 194.99
  A 12.59 12.59 0.0 0 0 329.86 207.58
  L 329.86 211.92
  A 12.59 12.59 0.0 0 0 342.45 224.51
  L 346.75 224.51
  A 12.59 12.59 0.0 0 0 359.34 211.92
  L 359.34 207.58"
/>
<path stroke="#808080" vector-effect="non-scaling-stroke" d="
  M 217.04 301.42
  Q 207.64 297.81 199.42 302.98
  C 194.57 306.03 194.18 313.84 195.27 318.74
  C 196.77 325.52 200.70 329.18 207.63 329.86
  Q 214.65 330.55 219.38 326.70
  C 226.95 320.54 226.82 305.17 217.04 301.42"
/>
<path stroke="#808080" vector-effect="non-scaling-stroke" d="
  M 210.35 548.90
  C 207.47 555.50 209.84 559.52 213.34 564.80
  C 217.01 570.33 224.74 571.04 230.28 569.35
  C 232.93 568.55 234.57 566.03 236.77 563.07
  Q 243.44 554.11 235.84 544.63
  Q 231.78 539.56 223.97 539.99
  Q 213.99 540.53 210.35 548.90"
/>
<path stroke="#808080" vector-effect="non-scaling-stroke" d="
  M 359.01 679.30
  C 358.48 687.76 355.50 692.87 350.38 700.49
  Q 348.33 703.54 345.66 706.09
  C 340.68 710.84 337.38 714.30 330.40 715.25
  A 0.73 0.72 86.4 0 0 329.77 715.97
  L 329.96 750.33
  Q 329.96 750.95 330.58 750.95
  L 434.17 750.95
  Q 435.28 750.95 435.28 749.83
  L 435.25 540.48
  Q 435.25 539.95 434.73 539.95
  L 330.29 539.95
  Q 329.83 539.95 329.83 540.41
  Q 329.70 585.83 329.55 631.25
  Q 329.54 633.39 331.50 634.07
  C 342.76 637.99 350.09 646.08 355.36 656.34
  C 358.97 663.37 359.51 671.23 359.01 679.30"
/>
<path stroke="#808080" vector-effect="non-scaling-stroke" d="
  M 310.45 689.32
  C 314.53 690.72 317.72 690.21 321.49 687.88
  C 324.77 685.84 327.66 684.99 328.92 680.75
  C 330.47 675.48 330.83 668.46 326.25 664.66
  C 321.09 660.38 316.38 657.61 310.43 659.79
  C 304.78 661.86 300.70 665.95 300.05 672.26
  Q 298.72 685.30 310.45 689.32"
/>
<path stroke="#808080" vector-effect="non-scaling-stroke" d="
  M 661.51 137.48
  C 652.74 138.56 645.71 133.48 645.34 124.23
  C 645.13 118.89 645.34 113.35 644.14 108.34
  Q 640.95 95.10 633.89 84.92
  Q 617.68 61.56 588.27 59.73
  Q 572.65 58.76 560.38 64.11
  C 541.99 72.11 529.62 88.85 524.79 108.62
  Q 523.66 113.21 523.65 118.99
  Q 523.50 209.42 523.62 299.40
  Q 523.62 300.26 524.49 300.26
  L 644.79 300.22
  Q 645.29 300.22 645.29 299.71
  L 645.19 253.26
  Q 645.18 252.74 644.74 252.48
  Q 638.25 248.64 632.00 244.36
  C 627.93 241.58 625.46 238.10 622.40 234.34
  Q 619.97 231.35 618.86 228.15
  Q 612.43 209.61 618.82 191.07
  C 620.31 186.76 623.24 183.97 626.05 180.43
  Q 628.64 177.18 631.76 174.90
  C 635.84 171.91 639.54 168.76 644.46 167.45
  C 656.20 164.33 670.21 164.20 680.99 170.36
  C 692.64 177.01 703.12 190.86 704.21 204.56
  Q 704.83 212.27 703.25 219.84
  C 701.87 226.48 697.86 232.30 693.85 237.81
  C 689.50 243.80 681.70 248.20 675.37 251.90
  Q 674.91 252.17 674.91 252.70
  Q 674.95 281.85 675.16 311.00
  C 675.22 318.27 672.50 322.90 666.93 327.38
  C 664.38 329.43 660.97 329.76 658.00 329.76
  Q 590.89 329.78 524.01 329.76
  A 0.48 0.48 0.0 0 0 523.53 330.24
  L 523.74 404.89
  Q 523.74 405.29 524.14 405.29
  L 706.44 405.43
  Q 707.04 405.43 707.33 404.91
  Q 710.96 398.30 714.76 391.49
  C 716.53 388.33 720.40 386.47 723.16 383.96
  C 734.04 374.04 753.08 374.29 766.16 378.20
  Q 770.84 379.60 776.80 384.46
  C 785.10 391.23 789.63 397.41 792.02 407.58
  C 793.26 412.80 795.48 418.10 794.07 423.54
  Q 792.45 429.76 790.78 435.95
  C 789.07 442.31 785.12 446.26 780.94 451.03
  Q 778.88 453.38 775.91 455.22
  C 768.78 459.62 763.93 463.39 755.11 464.01
  C 747.75 464.53 739.44 464.74 732.72 461.05
  C 725.85 457.27 717.65 452.63 713.81 445.95
  Q 710.78 440.69 708.28 435.88
  Q 707.79 434.96 706.75 434.96
  L 524.83 434.91
  Q 523.58 434.91 523.58 436.17
  L 523.66 510.21
  Q 523.66 510.93 524.37 510.93
  Q 638.33 510.97 752.50 510.96
  Q 754.47 510.96 757.37 512.26
  C 761.48 514.10 763.54 519.76 763.56 523.75
  Q 763.70 562.75 763.70 601.63
  Q 763.70 602.76 764.75 603.19
  Q 770.55 605.55 776.38 608.98
  C 780.36 611.32 783.42 616.30 786.58 619.77
  C 791.06 624.71 791.88 632.66 793.66 638.82
  C 795.61 645.61 793.32 651.84 791.42 659.45
  C 789.37 667.72 782.55 674.91 777.00 679.76
  C 769.65 686.17 755.48 689.68 745.88 688.77
  Q 719.09 686.22 708.08 661.66
  Q 702.53 649.27 705.51 635.28
  C 707.46 626.17 716.70 611.76 724.58 608.05
  Q 729.07 605.93 733.69 603.30
  A 0.94 0.91 -15.3 0 0 734.16 602.50
  L 734.21 540.46
  Q 734.21 539.95 733.71 539.95
  L 615.28 539.95
  Q 614.51 539.95 614.51 540.72
  L 614.54 705.71
  A 1.83 1.82 19.6 0 0 615.22 707.13
  C 619.70 710.79 625.52 713.13 629.31 716.46
  C 636.56 722.83 641.31 732.21 643.95 741.50
  C 646.73 751.26 643.49 762.36 638.58 770.92
  C 637.14 773.43 635.67 777.05 632.92 779.43
  Q 627.71 783.95 625.67 785.93
  C 621.24 790.25 612.22 791.96 605.62 793.47
  C 600.81 794.57 597.11 794.52 592.60 793.32
  C 588.18 792.15 583.39 791.51 579.50 789.53
  C 569.82 784.59 561.85 776.51 558.35 766.09
  C 556.25 759.84 554.30 753.27 554.82 746.77
  C 555.39 739.59 558.50 733.04 561.10 726.59
  Q 561.83 724.77 563.45 723.34
  Q 566.63 720.53 569.25 717.13
  Q 570.70 715.26 572.59 714.23
  Q 578.68 710.90 584.73 707.12
  Q 585.11 706.88 585.11 706.43
  L 585.10 540.77
  Q 585.10 539.95 584.27 539.95
  L 524.27 539.94
  A 0.72 0.72 0.0 0 0 523.55 540.66
  Q 523.66 689.33 523.63 837.52
  C 523.63 844.17 524.14 849.52 526.10 855.19
  C 528.73 862.79 532.27 870.89 537.30 877.08
  C 543.84 885.13 554.85 894.25 565.30 896.49
  C 569.62 897.41 574.08 899.19 577.82 899.64
  Q 584.04 900.39 590.28 899.75
  C 594.63 899.31 599.39 897.64 603.86 896.38
  Q 609.72 894.72 613.59 892.54
  C 629.52 883.55 638.82 869.39 643.90 851.88
  Q 645.02 848.02 645.14 843.48
  C 645.25 839.08 644.42 831.79 647.07 828.31
  Q 650.43 823.90 656.01 821.81
  Q 658.11 821.02 660.60 821.54
  C 665.69 822.59 670.62 824.57 675.57 824.88
  Q 681.29 825.24 687.01 824.93
  Q 691.98 824.66 697.79 822.89
  C 703.91 821.03 710.38 819.56 715.77 816.03
  C 725.82 809.47 732.77 803.71 738.93 794.04
  C 742.72 788.08 746.74 778.42 748.55 772.52
  Q 752.80 758.67 749.11 743.73
  Q 747.02 735.27 747.00 734.16
  C 746.91 727.89 751.53 722.49 757.54 720.74
  Q 759.76 720.09 765.03 720.06
  C 775.03 720.00 782.56 717.33 793.46 713.82
  Q 797.58 712.49 801.08 710.25
  C 807.29 706.28 813.53 702.28 818.38 697.17
  Q 828.84 686.16 834.86 672.17
  C 840.46 659.17 840.22 642.27 838.36 628.48
  C 837.12 619.33 832.18 611.20 827.39 602.61
  C 825.58 599.36 821.93 597.12 819.91 593.57
  C 818.35 590.81 816.11 587.75 815.55 584.75
  C 814.83 580.85 817.02 577.11 818.49 573.75
  C 819.46 571.54 820.78 570.26 823.31 569.77
  C 832.85 567.93 840.17 564.26 848.52 560.70
  Q 854.97 557.95 859.15 555.04
  Q 871.00 546.77 880.15 535.65
  Q 884.19 530.75 888.30 523.59
  C 894.48 512.84 896.35 506.27 898.43 493.18
  C 900.55 479.85 899.33 468.80 896.46 455.73
  Q 894.94 448.83 892.55 443.63
  C 882.71 422.19 865.24 404.25 842.74 396.17
  Q 832.49 392.49 822.30 388.63
  C 817.83 386.93 815.63 380.73 815.56 376.49
  C 815.42 368.11 825.17 360.46 829.00 353.54
  C 832.58 347.07 836.68 340.15 837.93 332.84
  C 840.44 318.19 840.47 299.36 834.70 286.52
  Q 822.56 259.50 797.12 246.78
  C 790.86 243.65 783.49 242.49 776.45 240.83
  C 770.66 239.46 764.27 240.69 759.06 239.34
  C 752.22 237.56 745.43 230.66 747.25 222.83
  C 748.52 217.37 750.15 211.47 750.48 206.49
  Q 751.34 193.78 746.26 180.27
  Q 738.33 159.18 721.39 147.41
  C 715.31 143.19 710.92 139.24 702.75 137.67
  C 694.16 136.03 687.22 134.06 677.34 134.71
  C 672.34 135.04 666.90 136.81 661.51 137.48"
/>
<path stroke="#808080" vector-effect="non-scaling-stroke" d="
  M 652.43 223.34
  Q 662.24 226.84 669.55 221.41
  C 680.23 213.48 675.31 195.97 661.87 194.91
  C 654.33 194.32 647.53 196.26 645.70 204.48
  C 644.37 210.45 645.52 220.87 652.43 223.34"
/>
<path stroke="#808080" vector-effect="non-scaling-stroke" d="
  M 763.65 425.08
  C 765.58 420.17 764.46 417.26 762.67 411.93
  Q 761.95 409.79 760.37 408.63
  C 752.25 402.67 739.00 404.04 735.06 414.50
  C 732.37 421.64 735.58 427.80 740.98 432.45
  Q 743.30 434.45 746.38 435.03
  Q 758.84 437.33 763.65 425.08"
/>
<path stroke="#808080" vector-effect="non-scaling-stroke" d="
  M 755.11 658.46
  Q 759.61 656.59 760.68 655.19
  C 767.70 646.02 764.78 632.89 753.24 629.41
  C 746.13 627.27 741.52 630.92 737.14 635.88
  C 731.91 641.78 733.74 650.52 739.14 655.56
  Q 746.21 662.15 755.11 658.46"
/>
<path stroke="#808080" vector-effect="non-scaling-stroke" d="
  M 600.67 764.44
  C 609.57 763.91 615.59 756.86 615.27 747.86
  C 615.13 743.60 612.11 741.37 609.25 738.23
  Q 605.35 733.93 600.25 733.95
  C 597.14 733.96 594.14 734.46 591.67 736.40
  Q 579.47 745.97 587.87 759.26
  C 590.35 763.18 596.50 764.69 600.67 764.44"
/>
<path stroke="#808080" vector-effect="non-scaling-stroke" d="
  M 118.9749 464.9446
  A 0.26 0.26 0.0 0 0 118.7144 464.6850
  L 90.0945 464.7350
  A 0.26 0.26 0.0 0 0 89.8349 464.9955
  L 89.8851 493.7554
  A 0.26 0.26 0.0 0 0 90.1456 494.0150
  L 118.7655 493.9650
  A 0.26 0.26 0.0 0 0 119.0251 493.7045
  L 118.9749 464.9446"
/>
<path stroke="#808080" vector-effect="non-scaling-stroke" d="
  M 208.9850 645.8645
  A 0.41 0.41 0.0 0 0 208.5743 645.4552
  L 180.1543 645.5048
  A 0.41 0.41 0.0 0 0 179.7450 645.9155
  L 179.7950 674.5555
  A 0.41 0.41 0.0 0 0 180.2057 674.9648
  L 208.6257 674.9152
  A 0.41 0.41 0.0 0 0 209.0350 674.5045
  L 208.9850 645.8645"
/>
<path stroke="#808080" vector-effect="non-scaling-stroke" d="
  M 733.9806 300.8585
  A 0.63 0.63 0.0 0 0 733.3484 300.2307
  L 705.0686 300.3294
  A 0.63 0.63 0.0 0 0 704.4408 300.9616
  L 704.5394 329.2015
  A 0.63 0.63 0.0 0 0 705.1716 329.8293
  L 733.4514 329.7306
  A 0.63 0.63 0.0 0 0 734.0792 329.0984
  L 733.9806 300.8585"
/>
<path stroke="#808080" vector-effect="non-scaling-stroke" d="
  M 854.4952 465.1243
  A 0.48 0.48 0.0 0 0 854.0144 464.6452
  L 825.5544 464.6949
  A 0.48 0.48 0.0 0 0 825.0753 465.1757
  L 825.1248 493.5357
  A 0.48 0.48 0.0 0 0 825.6056 494.0148
  L 854.0656 493.9651
  A 0.48 0.48 0.0 0 0 854.5447 493.4843
  L 854.4952 465.1243"
/>
</g>
<path fill="#ffffff" d="
  M 463.11 0.00
  L 496.98 0.00
  Q 615.05 5.16 717.21 62.40
  C 776.05 95.36 828.17 142.27 867.30 195.98
  Q 954.60 315.80 960.00 466.63
  L 960.00 494.75
  Q 957.94 548.52 945.92 596.26
  Q 914.67 720.26 825.91 813.28
  Q 819.03 820.48 811.72 827.37
  Q 692.74 939.43 528.23 957.77
  Q 520.63 958.62 496.88 960.00
  L 463.03 960.00
  C 379.20 956.35 296.11 931.97 225.29 887.22
  Q 106.69 812.28 46.59 686.92
  Q 3.71 597.47 0.00 494.86
  L 0.00 465.51
  C 3.48 371.81 32.63 281.23 86.45 204.76
  Q 167.31 89.87 296.11 36.38
  Q 374.65 3.76 463.11 0.00
  Z
  M 104.39 590.18
  A 0.62 0.61 25.5 0 1 104.74 591.15
  Q 102.26 594.47 100.80 598.28
  C 97.41 607.14 92.18 617.59 90.98 626.24
  Q 88.88 641.30 90.62 659.13
  C 91.62 669.39 96.08 678.58 99.63 688.10
  Q 101.37 692.78 103.91 696.78
  Q 110.23 706.71 112.80 709.95
  C 122.67 722.35 133.96 730.71 147.78 738.25
  Q 152.73 740.95 158.05 742.57
  Q 168.45 745.74 178.79 748.31
  A 1.49 1.49 0.0 0 1 179.91 749.84
  Q 179.08 764.71 183.03 778.61
  Q 184.32 783.15 185.19 787.50
  Q 186.42 793.64 187.97 796.27
  C 192.51 804.03 197.07 812.46 202.42 819.04
  Q 210.69 829.23 219.44 835.09
  Q 231.52 843.19 239.51 846.72
  C 243.89 848.66 250.21 849.80 255.88 851.39
  Q 270.20 855.40 285.01 854.25
  A 1.09 1.09 0.0 0 1 286.12 854.99
  C 288.90 863.37 290.77 872.97 294.74 880.49
  Q 301.61 893.53 312.14 903.93
  C 314.58 906.34 317.79 908.70 320.60 911.11
  Q 323.91 913.95 327.32 915.75
  C 333.68 919.11 339.99 923.11 346.89 924.77
  C 357.84 927.42 369.51 929.74 380.88 928.75
  C 385.20 928.38 390.72 926.93 395.24 926.24
  Q 403.00 925.06 409.76 922.05
  C 413.00 920.60 416.82 918.12 420.36 916.23
  Q 425.17 913.65 428.03 911.40
  Q 440.79 901.37 449.89 887.97
  C 454.37 881.38 457.21 873.32 460.43 865.67
  C 463.90 857.45 464.28 848.42 464.29 838.00
  Q 464.36 477.25 464.29 116.50
  C 464.28 110.79 463.82 103.51 461.79 97.40
  Q 457.63 84.84 453.43 77.07
  Q 443.76 59.15 425.96 46.25
  Q 421.99 43.37 416.08 40.51
  C 410.75 37.94 404.72 34.23 399.07 33.08
  Q 396.10 32.47 392.00 32.03
  Q 371.72 29.85 354.03 32.50
  Q 347.51 33.47 343.69 35.40
  Q 335.57 39.49 327.31 43.29
  Q 324.82 44.43 321.34 47.52
  C 318.20 50.32 313.76 52.99 310.70 56.66
  Q 308.49 59.33 306.19 61.77
  C 301.55 66.70 297.91 73.36 294.74 78.81
  Q 292.61 82.48 291.15 87.54
  Q 288.67 96.16 285.97 104.52
  A 1.41 1.40 12.9 0 1 284.43 105.48
  Q 277.87 104.56 270.98 105.50
  Q 258.99 107.13 247.20 109.89
  C 242.11 111.08 237.69 113.64 233.02 115.97
  C 217.71 123.58 202.18 137.17 194.11 152.48
  C 191.33 157.76 188.00 161.86 186.31 168.02
  C 182.51 181.96 179.04 195.19 180.07 209.51
  A 2.14 2.14 0.0 0 1 178.31 211.77
  C 169.85 213.25 161.34 214.80 153.58 218.25
  Q 122.02 232.27 104.36 261.85
  Q 101.40 266.82 98.56 274.11
  Q 96.10 280.45 93.71 286.81
  Q 90.87 294.36 90.29 304.75
  C 89.57 317.49 89.27 331.07 93.67 342.52
  Q 97.42 352.28 101.16 362.04
  C 101.93 364.06 103.12 365.76 104.30 367.54
  A 0.47 0.45 -32.0 0 1 104.14 368.19
  Q 94.72 373.71 85.27 378.74
  Q 82.52 380.21 80.03 382.24
  C 75.91 385.61 71.25 389.04 67.84 392.29
  C 56.15 403.42 46.48 416.59 40.38 431.59
  C 37.83 437.88 34.30 444.43 33.14 450.98
  C 30.04 468.61 30.26 487.50 32.58 504.75
  C 33.78 513.74 38.30 522.10 41.61 530.51
  Q 43.62 535.63 46.34 539.91
  C 57.00 556.77 69.00 570.67 86.31 580.96
  C 91.98 584.33 97.96 588.57 104.39 590.18
  Z
  M 673.37 104.49
  C 671.80 96.31 668.00 88.17 665.26 80.25
  C 663.48 75.11 659.41 70.67 656.35 66.28
  C 651.20 58.91 645.11 53.36 638.25 47.90
  Q 633.48 44.11 627.12 41.00
  Q 620.20 37.62 613.15 34.50
  Q 609.16 32.75 601.50 31.99
  Q 580.43 29.90 563.02 32.63
  Q 558.06 33.42 553.53 35.61
  C 546.79 38.88 539.35 41.66 533.40 46.21
  Q 529.81 48.95 526.26 51.75
  C 522.90 54.40 520.28 57.72 517.22 60.82
  Q 513.82 64.25 511.72 67.51
  C 507.81 73.60 504.09 79.11 501.72 86.12
  C 499.70 92.12 497.22 98.20 496.13 104.45
  Q 495.77 106.52 495.05 109.84
  Q 493.93 115.05 493.94 128.00
  Q 494.21 479.88 494.19 831.77
  Q 494.19 839.74 494.68 844.71
  C 495.69 854.93 498.18 862.93 501.90 873.53
  Q 504.04 879.64 507.03 884.54
  C 515.22 897.95 525.63 908.98 539.48 916.87
  C 545.43 920.27 551.24 923.51 557.23 925.00
  Q 565.28 927.01 576.22 928.47
  C 588.46 930.10 599.01 927.81 611.57 924.92
  C 614.08 924.34 617.22 923.39 619.13 922.41
  Q 631.91 915.82 635.55 913.30
  Q 650.24 903.13 660.90 886.59
  Q 664.22 881.43 666.90 874.27
  Q 670.48 864.69 673.63 855.19
  A 1.39 1.38 -76.4 0 1 675.14 854.26
  C 687.70 856.02 702.88 851.83 714.86 848.22
  Q 720.50 846.53 726.02 843.43
  C 735.98 837.85 745.30 831.93 752.81 823.15
  C 755.73 819.74 758.89 817.09 761.18 813.22
  C 764.88 807.02 768.94 801.19 771.42 794.47
  C 777.07 779.14 780.82 765.46 779.89 748.92
  Q 779.86 748.38 780.38 748.25
  Q 791.09 745.54 801.64 742.28
  C 808.96 740.02 815.41 735.85 822.06 732.08
  C 826.19 729.75 829.62 726.37 833.28 723.36
  Q 835.38 721.63 836.53 720.47
  Q 846.87 710.09 854.69 697.70
  C 857.52 693.21 859.29 687.58 861.25 683.52
  C 863.87 678.09 866.23 673.14 867.09 667.06
  Q 870.25 644.78 867.21 622.48
  C 866.07 614.06 861.63 606.80 858.53 599.17
  Q 856.88 595.08 855.07 591.00
  A 0.80 0.80 0.0 0 1 855.51 589.93
  C 858.49 588.77 861.48 587.92 864.21 586.20
  C 870.47 582.27 877.31 578.50 882.72 574.26
  Q 894.87 564.76 904.27 552.50
  C 908.38 547.16 912.88 540.70 915.60 534.58
  C 918.80 527.34 922.92 519.99 924.62 512.46
  Q 926.03 506.21 926.86 499.86
  Q 926.88 499.66 928.46 489.21
  C 930.50 475.71 927.57 462.43 924.82 448.03
  C 923.39 440.52 920.77 435.65 916.73 426.96
  Q 913.65 420.32 909.81 414.63
  C 901.69 402.59 893.48 393.43 882.56 384.81
  C 874.71 378.62 865.16 373.68 855.95 368.99
  A 0.80 0.79 23.4 0 1 855.56 368.02
  Q 859.53 356.82 864.43 345.98
  Q 867.17 339.93 867.53 334.50
  C 868.02 327.13 869.00 319.50 868.78 312.48
  Q 868.43 301.24 866.78 290.09
  C 865.70 282.73 860.92 275.04 858.02 268.14
  Q 856.14 263.67 852.07 257.68
  Q 839.61 239.37 823.31 227.92
  C 818.98 224.88 813.82 222.53 808.89 219.89
  C 800.16 215.21 790.65 213.23 781.09 211.89
  A 1.54 1.54 0.0 0 1 779.77 210.25
  C 781.00 193.14 776.39 178.00 770.60 162.29
  Q 769.36 158.96 767.19 155.65
  C 763.72 150.37 760.32 144.48 756.70 140.15
  C 748.92 130.84 739.67 123.02 728.87 117.42
  C 722.05 113.88 715.44 109.88 708.00 108.77
  Q 697.02 107.15 691.01 105.69
  Q 686.92 104.69 674.12 105.09
  Q 673.49 105.11 673.37 104.49
  Z"
/>
<path fill="#000000" d="
  M 104.39 590.18
  C 97.96 588.57 91.98 584.33 86.31 580.96
  C 69.00 570.67 57.00 556.77 46.34 539.91
  Q 43.62 535.63 41.61 530.51
  C 38.30 522.10 33.78 513.74 32.58 504.75
  C 30.26 487.50 30.04 468.61 33.14 450.98
  C 34.30 444.43 37.83 437.88 40.38 431.59
  C 46.48 416.59 56.15 403.42 67.84 392.29
  C 71.25 389.04 75.91 385.61 80.03 382.24
  Q 82.52 380.21 85.27 378.74
  Q 94.72 373.71 104.14 368.19
  A 0.47 0.45 -32.0 0 0 104.30 367.54
  C 103.12 365.76 101.93 364.06 101.16 362.04
  Q 97.42 352.28 93.67 342.52
  C 89.27 331.07 89.57 317.49 90.29 304.75
  Q 90.87 294.36 93.71 286.81
  Q 96.10 280.45 98.56 274.11
  Q 101.40 266.82 104.36 261.85
  Q 122.02 232.27 153.58 218.25
  C 161.34 214.80 169.85 213.25 178.31 211.77
  A 2.14 2.14 0.0 0 0 180.07 209.51
  C 179.04 195.19 182.51 181.96 186.31 168.02
  C 188.00 161.86 191.33 157.76 194.11 152.48
  C 202.18 137.17 217.71 123.58 233.02 115.97
  C 237.69 113.64 242.11 111.08 247.20 109.89
  Q 258.99 107.13 270.98 105.50
  Q 277.87 104.56 284.43 105.48
  A 1.41 1.40 12.9 0 0 285.97 104.52
  Q 288.67 96.16 291.15 87.54
  Q 292.61 82.48 294.74 78.81
  C 297.91 73.36 301.55 66.70 306.19 61.77
  Q 308.49 59.33 310.70 56.66
  C 313.76 52.99 318.20 50.32 321.34 47.52
  Q 324.82 44.43 327.31 43.29
  Q 335.57 39.49 343.69 35.40
  Q 347.51 33.47 354.03 32.50
  Q 371.72 29.85 392.00 32.03
  Q 396.10 32.47 399.07 33.08
  C 404.72 34.23 410.75 37.94 416.08 40.51
  Q 421.99 43.37 425.96 46.25
  Q 443.76 59.15 453.43 77.07
  Q 457.63 84.84 461.79 97.40
  C 463.82 103.51 464.28 110.79 464.29 116.50
  Q 464.36 477.25 464.29 838.00
  C 464.28 848.42 463.90 857.45 460.43 865.67
  C 457.21 873.32 454.37 881.38 449.89 887.97
  Q 440.79 901.37 428.03 911.40
  Q 425.17 913.65 420.36 916.23
  C 416.82 918.12 413.00 920.60 409.76 922.05
  Q 403.00 925.06 395.24 926.24
  C 390.72 926.93 385.20 928.38 380.88 928.75
  C 369.51 929.74 357.84 927.42 346.89 924.77
  C 339.99 923.11 333.68 919.11 327.32 915.75
  Q 323.91 913.95 320.60 911.11
  C 317.79 908.70 314.58 906.34 312.14 903.93
  Q 301.61 893.53 294.74 880.49
  C 290.77 872.97 288.90 863.37 286.12 854.99
  A 1.09 1.09 0.0 0 0 285.01 854.25
  Q 270.20 855.40 255.88 851.39
  C 250.21 849.80 243.89 848.66 239.51 846.72
  Q 231.52 843.19 219.44 835.09
  Q 210.69 829.23 202.42 819.04
  C 197.07 812.46 192.51 804.03 187.97 796.27
  Q 186.42 793.64 185.19 787.50
  Q 184.32 783.15 183.03 778.61
  Q 179.08 764.71 179.91 749.84
  A 1.49 1.49 0.0 0 0 178.79 748.31
  Q 168.45 745.74 158.05 742.57
  Q 152.73 740.95 147.78 738.25
  C 133.96 730.71 122.67 722.35 112.80 709.95
  Q 110.23 706.71 103.91 696.78
  Q 101.37 692.78 99.63 688.10
  C 96.08 678.58 91.62 669.39 90.62 659.13
  Q 88.88 641.30 90.98 626.24
  C 92.18 617.59 97.41 607.14 100.80 598.28
  Q 102.26 594.47 104.74 591.15
  A 0.62 0.61 25.5 0 0 104.39 590.18
  Z
  M 208.30 724.46
  C 216.97 732.43 210.34 740.46 209.30 749.96
  Q 208.08 761.06 210.59 770.42
  Q 214.13 783.61 216.16 787.30
  Q 222.32 798.51 231.61 807.15
  C 234.85 810.17 239.04 812.89 242.85 815.65
  Q 245.81 817.80 249.14 818.98
  Q 263.16 823.96 267.24 824.53
  Q 280.26 826.35 292.66 823.04
  Q 298.85 821.39 301.03 821.57
  C 307.22 822.07 311.79 826.93 313.80 832.60
  Q 314.58 834.81 314.45 838.98
  C 314.15 848.24 316.79 855.08 319.56 863.42
  C 323.80 876.18 335.83 887.25 347.29 893.56
  Q 350.29 895.21 354.37 896.24
  C 360.60 897.83 367.07 899.82 372.91 900.00
  C 378.27 900.16 382.45 899.66 387.97 898.05
  C 393.97 896.30 399.34 895.55 404.66 891.88
  C 408.95 888.92 413.45 886.18 417.01 882.24
  C 419.97 878.94 422.99 876.51 425.09 872.57
  C 429.26 864.79 434.86 855.91 435.05 846.98
  Q 435.51 825.24 435.14 780.49
  Q 435.13 780.01 434.65 780.01
  Q 375.08 779.89 315.50 779.88
  Q 311.40 779.88 306.97 776.99
  C 299.16 771.87 300.29 767.29 300.19 757.19
  Q 299.97 736.58 300.09 715.92
  A 0.81 0.81 0.0 0 0 299.28 715.11
  C 289.02 715.09 274.63 698.40 272.50 689.51
  Q 269.66 677.67 271.49 665.15
  Q 272.44 658.60 275.40 653.36
  Q 283.38 639.22 299.05 632.98
  Q 300.20 632.53 300.20 630.75
  Q 300.09 580.25 300.12 529.75
  Q 300.13 524.20 300.90 520.10
  C 302.68 510.59 310.92 510.93 318.49 510.94
  Q 376.37 511.00 434.24 510.91
  Q 435.39 510.91 435.39 509.76
  L 435.16 435.60
  A 0.68 0.67 0.0 0 0 434.48 434.93
  L 240.98 434.95
  A 0.98 0.97 0.0 0 0 240.00 435.92
  Q 239.94 473.29 239.99 510.50
  C 240.00 512.91 241.52 512.79 242.98 513.71
  C 251.06 518.81 257.90 523.36 262.17 530.81
  C 266.44 538.25 270.38 548.06 269.66 556.71
  C 269.10 563.52 266.54 569.85 263.44 575.98
  C 259.60 583.57 254.01 588.67 246.99 593.06
  C 237.36 599.10 226.07 600.57 215.09 598.31
  Q 207.33 596.72 200.53 592.08
  Q 193.82 587.51 188.72 581.13
  C 185.37 576.95 183.73 571.20 181.90 566.06
  Q 177.89 554.77 181.84 543.52
  C 184.05 537.21 186.30 529.87 191.15 525.14
  Q 196.69 519.72 205.62 514.12
  Q 207.47 512.97 209.28 512.65
  A 0.88 0.88 0.0 0 0 210.01 511.77
  Q 210.00 466.35 210.02 421.33
  C 210.02 416.75 211.26 413.90 213.59 410.27
  C 217.55 404.07 229.83 405.25 236.62 405.27
  Q 335.39 405.58 434.57 405.47
  A 0.91 0.91 0.0 0 0 435.48 404.55
  L 435.20 330.21
  Q 435.20 329.73 434.71 329.73
  L 252.91 329.82
  A 1.25 1.23 14.1 0 0 251.82 330.46
  Q 248.32 336.68 244.04 342.64
  Q 241.37 346.36 237.94 348.86
  C 231.61 353.48 224.89 357.56 217.06 358.65
  C 208.45 359.84 199.70 359.29 191.74 355.57
  Q 177.34 348.85 169.59 334.87
  Q 167.02 330.24 166.21 324.71
  C 164.82 315.28 164.72 303.75 169.31 295.12
  Q 175.52 283.44 186.73 276.34
  C 196.93 269.88 210.06 270.14 221.47 271.93
  Q 226.06 272.65 229.96 274.84
  C 239.72 280.31 246.58 288.35 252.04 299.77
  Q 252.27 300.24 252.79 300.24
  L 329.48 300.22
  A 0.45 0.44 -90.0 0 0 329.92 299.77
  L 329.87 253.47
  A 2.54 2.53 11.0 0 0 328.28 251.12
  C 325.56 250.04 323.21 248.88 320.70 247.00
  C 317.52 244.61 313.54 242.84 311.26 239.56
  C 307.27 233.79 303.24 229.19 301.69 221.98
  C 299.31 210.82 299.47 198.06 305.38 188.06
  Q 308.69 182.44 311.92 178.92
  Q 316.47 173.95 323.07 170.32
  Q 329.13 166.98 336.23 166.02
  Q 348.27 164.38 360.20 167.59
  C 365.20 168.94 368.83 172.41 372.88 175.41
  Q 375.93 177.66 378.16 180.57
  C 381.25 184.62 384.83 188.67 386.49 193.27
  C 389.87 202.66 389.33 214.68 386.98 224.24
  C 385.54 230.16 381.10 234.30 377.90 238.97
  Q 376.18 241.47 374.07 242.99
  Q 367.00 248.09 359.44 252.48
  Q 359.01 252.72 359.01 253.22
  L 359.06 299.53
  Q 359.06 300.26 359.78 300.26
  L 434.72 300.26
  Q 435.32 300.26 435.32 299.66
  Q 435.31 208.97 435.14 118.27
  C 435.12 109.09 433.84 103.18 429.60 94.73
  C 423.69 82.95 415.91 73.87 404.51 67.28
  Q 396.00 62.36 385.77 60.70
  C 371.89 58.44 357.22 59.81 344.95 67.03
  Q 332.28 74.48 324.01 86.81
  C 319.97 92.84 317.90 100.24 315.85 107.37
  C 314.42 112.32 314.57 117.16 314.50 122.27
  C 314.44 126.93 311.72 130.93 309.00 134.45
  C 305.72 138.69 296.26 137.45 292.03 136.43
  C 282.40 134.10 272.58 134.05 262.94 136.24
  C 255.61 137.92 250.15 138.60 243.78 143.07
  C 239.80 145.88 235.57 148.30 232.15 151.48
  C 224.58 158.53 217.19 167.44 214.06 177.07
  C 210.65 187.53 207.80 197.89 209.31 208.76
  Q 209.76 212.03 212.47 222.49
  C 214.40 229.96 208.09 235.60 201.89 238.76
  Q 199.64 239.90 196.43 239.93
  C 191.77 239.98 187.56 239.83 182.93 240.91
  C 174.90 242.79 167.33 243.80 160.25 247.74
  Q 145.09 256.16 134.51 269.21
  C 129.24 275.70 125.79 283.53 122.63 291.41
  C 118.70 301.20 118.45 312.19 119.22 322.75
  C 120.02 333.83 125.26 344.09 130.11 353.87
  C 131.60 356.87 134.61 359.46 136.35 361.98
  Q 139.21 366.12 142.20 370.21
  C 145.83 375.18 144.24 382.05 140.28 385.94
  Q 137.79 388.40 130.60 390.95
  C 121.92 394.03 112.36 396.90 104.85 401.21
  C 86.42 411.77 74.02 426.87 65.51 446.36
  Q 62.64 452.93 61.57 458.97
  C 59.56 470.25 59.32 483.50 60.58 494.00
  Q 62.07 506.34 68.45 518.73
  Q 76.57 534.53 87.60 545.06
  C 91.04 548.35 95.40 551.40 99.46 554.52
  Q 103.10 557.33 107.03 559.10
  Q 116.82 563.50 126.82 567.40
  Q 128.84 568.19 131.39 568.62
  C 137.45 569.64 139.75 571.73 142.69 576.98
  C 145.26 581.58 144.49 585.45 141.53 589.90
  Q 138.41 594.62 134.80 598.96
  Q 131.25 603.25 129.51 606.52
  Q 125.04 614.93 121.95 623.92
  C 118.03 635.29 118.25 647.71 120.26 659.35
  C 121.26 665.09 124.04 670.72 126.41 676.19
  C 130.32 685.20 135.24 691.61 141.89 698.21
  C 146.04 702.31 151.31 705.78 156.26 709.39
  Q 159.30 711.60 162.69 712.80
  Q 171.81 716.03 181.14 718.64
  C 186.84 720.24 192.26 720.03 198.10 720.00
  C 201.54 719.99 206.34 722.67 208.30 724.46
  Z
  M 359.34 207.58
  A 12.59 12.59 0.0 0 0 346.75 194.99
  L 342.45 194.99
  A 12.59 12.59 0.0 0 0 329.86 207.58
  L 329.86 211.92
  A 12.59 12.59 0.0 0 0 342.45 224.51
  L 346.75 224.51
  A 12.59 12.59 0.0 0 0 359.34 211.92
  L 359.34 207.58
  Z
  M 217.04 301.42
  Q 207.64 297.81 199.42 302.98
  C 194.57 306.03 194.18 313.84 195.27 318.74
  C 196.77 325.52 200.70 329.18 207.63 329.86
  Q 214.65 330.55 219.38 326.70
  C 226.95 320.54 226.82 305.17 217.04 301.42
  Z
  M 210.35 548.90
  C 207.47 555.50 209.84 559.52 213.34 564.80
  C 217.01 570.33 224.74 571.04 230.28 569.35
  C 232.93 568.55 234.57 566.03 236.77 563.07
  Q 243.44 554.11 235.84 544.63
  Q 231.78 539.56 223.97 539.99
  Q 213.99 540.53 210.35 548.90
  Z
  M 359.01 679.30
  C 358.48 687.76 355.50 692.87 350.38 700.49
  Q 348.33 703.54 345.66 706.09
  C 340.68 710.84 337.38 714.30 330.40 715.25
  A 0.73 0.72 86.4 0 0 329.77 715.97
  L 329.96 750.33
  Q 329.96 750.95 330.58 750.95
  L 434.17 750.95
  Q 435.28 750.95 435.28 749.83
  L 435.25 540.48
  Q 435.25 539.95 434.73 539.95
  L 330.29 539.95
  Q 329.83 539.95 329.83 540.41
  Q 329.70 585.83 329.55 631.25
  Q 329.54 633.39 331.50 634.07
  C 342.76 637.99 350.09 646.08 355.36 656.34
  C 358.97 663.37 359.51 671.23 359.01 679.30
  Z
  M 310.45 689.32
  C 314.53 690.72 317.72 690.21 321.49 687.88
  C 324.77 685.84 327.66 684.99 328.92 680.75
  C 330.47 675.48 330.83 668.46 326.25 664.66
  C 321.09 660.38 316.38 657.61 310.43 659.79
  C 304.78 661.86 300.70 665.95 300.05 672.26
  Q 298.72 685.30 310.45 689.32
  Z"
/>
<path fill="#000000" d="
  M 674.12 105.09
  Q 686.92 104.69 691.01 105.69
  Q 697.02 107.15 708.00 108.77
  C 715.44 109.88 722.05 113.88 728.87 117.42
  C 739.67 123.02 748.92 130.84 756.70 140.15
  C 760.32 144.48 763.72 150.37 767.19 155.65
  Q 769.36 158.96 770.60 162.29
  C 776.39 178.00 781.00 193.14 779.77 210.25
  A 1.54 1.54 0.0 0 0 781.09 211.89
  C 790.65 213.23 800.16 215.21 808.89 219.89
  C 813.82 222.53 818.98 224.88 823.31 227.92
  Q 839.61 239.37 852.07 257.68
  Q 856.14 263.67 858.02 268.14
  C 860.92 275.04 865.70 282.73 866.78 290.09
  Q 868.43 301.24 868.78 312.48
  C 869.00 319.50 868.02 327.13 867.53 334.50
  Q 867.17 339.93 864.43 345.98
  Q 859.53 356.82 855.56 368.02
  A 0.80 0.79 23.4 0 0 855.95 368.99
  C 865.16 373.68 874.71 378.62 882.56 384.81
  C 893.48 393.43 901.69 402.59 909.81 414.63
  Q 913.65 420.32 916.73 426.96
  C 920.77 435.65 923.39 440.52 924.82 448.03
  C 927.57 462.43 930.50 475.71 928.46 489.21
  Q 926.88 499.66 926.86 499.86
  Q 926.03 506.21 924.62 512.46
  C 922.92 519.99 918.80 527.34 915.60 534.58
  C 912.88 540.70 908.38 547.16 904.27 552.50
  Q 894.87 564.76 882.72 574.26
  C 877.31 578.50 870.47 582.27 864.21 586.20
  C 861.48 587.92 858.49 588.77 855.51 589.93
  A 0.80 0.80 0.0 0 0 855.07 591.00
  Q 856.88 595.08 858.53 599.17
  C 861.63 606.80 866.07 614.06 867.21 622.48
  Q 870.25 644.78 867.09 667.06
  C 866.23 673.14 863.87 678.09 861.25 683.52
  C 859.29 687.58 857.52 693.21 854.69 697.70
  Q 846.87 710.09 836.53 720.47
  Q 835.38 721.63 833.28 723.36
  C 829.62 726.37 826.19 729.75 822.06 732.08
  C 815.41 735.85 808.96 740.02 801.64 742.28
  Q 791.09 745.54 780.38 748.25
  Q 779.86 748.38 779.89 748.92
  C 780.82 765.46 777.07 779.14 771.42 794.47
  C 768.94 801.19 764.88 807.02 761.18 813.22
  C 758.89 817.09 755.73 819.74 752.81 823.15
  C 745.30 831.93 735.98 837.85 726.02 843.43
  Q 720.50 846.53 714.86 848.22
  C 702.88 851.83 687.70 856.02 675.14 854.26
  A 1.39 1.38 -76.4 0 0 673.63 855.19
  Q 670.48 864.69 666.90 874.27
  Q 664.22 881.43 660.90 886.59
  Q 650.24 903.13 635.55 913.30
  Q 631.91 915.82 619.13 922.41
  C 617.22 923.39 614.08 924.34 611.57 924.92
  C 599.01 927.81 588.46 930.10 576.22 928.47
  Q 565.28 927.01 557.23 925.00
  C 551.24 923.51 545.43 920.27 539.48 916.87
  C 525.63 908.98 515.22 897.95 507.03 884.54
  Q 504.04 879.64 501.90 873.53
  C 498.18 862.93 495.69 854.93 494.68 844.71
  Q 494.19 839.74 494.19 831.77
  Q 494.21 479.88 493.94 128.00
  Q 493.93 115.05 495.05 109.84
  Q 495.77 106.52 496.13 104.45
  C 497.22 98.20 499.70 92.12 501.72 86.12
  C 504.09 79.11 507.81 73.60 511.72 67.51
  Q 513.82 64.25 517.22 60.82
  C 520.28 57.72 522.90 54.40 526.26 51.75
  Q 529.81 48.95 533.40 46.21
  C 539.35 41.66 546.79 38.88 553.53 35.61
  Q 558.06 33.42 563.02 32.63
  Q 580.43 29.90 601.50 31.99
  Q 609.16 32.75 613.15 34.50
  Q 620.20 37.62 627.12 41.00
  Q 633.48 44.11 638.25 47.90
  C 645.11 53.36 651.20 58.91 656.35 66.28
  C 659.41 70.67 663.48 75.11 665.26 80.25
  C 668.00 88.17 671.80 96.31 673.37 104.49
  Q 673.49 105.11 674.12 105.09
  Z
  M 661.51 137.48
  C 652.74 138.56 645.71 133.48 645.34 124.23
  C 645.13 118.89 645.34 113.35 644.14 108.34
  Q 640.95 95.10 633.89 84.92
  Q 617.68 61.56 588.27 59.73
  Q 572.65 58.76 560.38 64.11
  C 541.99 72.11 529.62 88.85 524.79 108.62
  Q 523.66 113.21 523.65 118.99
  Q 523.50 209.42 523.62 299.40
  Q 523.62 300.26 524.49 300.26
  L 644.79 300.22
  Q 645.29 300.22 645.29 299.71
  L 645.19 253.26
  Q 645.18 252.74 644.74 252.48
  Q 638.25 248.64 632.00 244.36
  C 627.93 241.58 625.46 238.10 622.40 234.34
  Q 619.97 231.35 618.86 228.15
  Q 612.43 209.61 618.82 191.07
  C 620.31 186.76 623.24 183.97 626.05 180.43
  Q 628.64 177.18 631.76 174.90
  C 635.84 171.91 639.54 168.76 644.46 167.45
  C 656.20 164.33 670.21 164.20 680.99 170.36
  C 692.64 177.01 703.12 190.86 704.21 204.56
  Q 704.83 212.27 703.25 219.84
  C 701.87 226.48 697.86 232.30 693.85 237.81
  C 689.50 243.80 681.70 248.20 675.37 251.90
  Q 674.91 252.17 674.91 252.70
  Q 674.95 281.85 675.16 311.00
  C 675.22 318.27 672.50 322.90 666.93 327.38
  C 664.38 329.43 660.97 329.76 658.00 329.76
  Q 590.89 329.78 524.01 329.76
  A 0.48 0.48 0.0 0 0 523.53 330.24
  L 523.74 404.89
  Q 523.74 405.29 524.14 405.29
  L 706.44 405.43
  Q 707.04 405.43 707.33 404.91
  Q 710.96 398.30 714.76 391.49
  C 716.53 388.33 720.40 386.47 723.16 383.96
  C 734.04 374.04 753.08 374.29 766.16 378.20
  Q 770.84 379.60 776.80 384.46
  C 785.10 391.23 789.63 397.41 792.02 407.58
  C 793.26 412.80 795.48 418.10 794.07 423.54
  Q 792.45 429.76 790.78 435.95
  C 789.07 442.31 785.12 446.26 780.94 451.03
  Q 778.88 453.38 775.91 455.22
  C 768.78 459.62 763.93 463.39 755.11 464.01
  C 747.75 464.53 739.44 464.74 732.72 461.05
  C 725.85 457.27 717.65 452.63 713.81 445.95
  Q 710.78 440.69 708.28 435.88
  Q 707.79 434.96 706.75 434.96
  L 524.83 434.91
  Q 523.58 434.91 523.58 436.17
  L 523.66 510.21
  Q 523.66 510.93 524.37 510.93
  Q 638.33 510.97 752.50 510.96
  Q 754.47 510.96 757.37 512.26
  C 761.48 514.10 763.54 519.76 763.56 523.75
  Q 763.70 562.75 763.70 601.63
  Q 763.70 602.76 764.75 603.19
  Q 770.55 605.55 776.38 608.98
  C 780.36 611.32 783.42 616.30 786.58 619.77
  C 791.06 624.71 791.88 632.66 793.66 638.82
  C 795.61 645.61 793.32 651.84 791.42 659.45
  C 789.37 667.72 782.55 674.91 777.00 679.76
  C 769.65 686.17 755.48 689.68 745.88 688.77
  Q 719.09 686.22 708.08 661.66
  Q 702.53 649.27 705.51 635.28
  C 707.46 626.17 716.70 611.76 724.58 608.05
  Q 729.07 605.93 733.69 603.30
  A 0.94 0.91 -15.3 0 0 734.16 602.50
  L 734.21 540.46
  Q 734.21 539.95 733.71 539.95
  L 615.28 539.95
  Q 614.51 539.95 614.51 540.72
  L 614.54 705.71
  A 1.83 1.82 19.6 0 0 615.22 707.13
  C 619.70 710.79 625.52 713.13 629.31 716.46
  C 636.56 722.83 641.31 732.21 643.95 741.50
  C 646.73 751.26 643.49 762.36 638.58 770.92
  C 637.14 773.43 635.67 777.05 632.92 779.43
  Q 627.71 783.95 625.67 785.93
  C 621.24 790.25 612.22 791.96 605.62 793.47
  C 600.81 794.57 597.11 794.52 592.60 793.32
  C 588.18 792.15 583.39 791.51 579.50 789.53
  C 569.82 784.59 561.85 776.51 558.35 766.09
  C 556.25 759.84 554.30 753.27 554.82 746.77
  C 555.39 739.59 558.50 733.04 561.10 726.59
  Q 561.83 724.77 563.45 723.34
  Q 566.63 720.53 569.25 717.13
  Q 570.70 715.26 572.59 714.23
  Q 578.68 710.90 584.73 707.12
  Q 585.11 706.88 585.11 706.43
  L 585.10 540.77
  Q 585.10 539.95 584.27 539.95
  L 524.27 539.94
  A 0.72 0.72 0.0 0 0 523.55 540.66
  Q 523.66 689.33 523.63 837.52
  C 523.63 844.17 524.14 849.52 526.10 855.19
  C 528.73 862.79 532.27 870.89 537.30 877.08
  C 543.84 885.13 554.85 894.25 565.30 896.49
  C 569.62 897.41 574.08 899.19 577.82 899.64
  Q 584.04 900.39 590.28 899.75
  C 594.63 899.31 599.39 897.64 603.86 896.38
  Q 609.72 894.72 613.59 892.54
  C 629.52 883.55 638.82 869.39 643.90 851.88
  Q 645.02 848.02 645.14 843.48
  C 645.25 839.08 644.42 831.79 647.07 828.31
  Q 650.43 823.90 656.01 821.81
  Q 658.11 821.02 660.60 821.54
  C 665.69 822.59 670.62 824.57 675.57 824.88
  Q 681.29 825.24 687.01 824.93
  Q 691.98 824.66 697.79 822.89
  C 703.91 821.03 710.38 819.56 715.77 816.03
  C 725.82 809.47 732.77 803.71 738.93 794.04
  C 742.72 788.08 746.74 778.42 748.55 772.52
  Q 752.80 758.67 749.11 743.73
  Q 747.02 735.27 747.00 734.16
  C 746.91 727.89 751.53 722.49 757.54 720.74
  Q 759.76 720.09 765.03 720.06
  C 775.03 720.00 782.56 717.33 793.46 713.82
  Q 797.58 712.49 801.08 710.25
  C 807.29 706.28 813.53 702.28 818.38 697.17
  Q 828.84 686.16 834.86 672.17
  C 840.46 659.17 840.22 642.27 838.36 628.48
  C 837.12 619.33 832.18 611.20 827.39 602.61
  C 825.58 599.36 821.93 597.12 819.91 593.57
  C 818.35 590.81 816.11 587.75 815.55 584.75
  C 814.83 580.85 817.02 577.11 818.49 573.75
  C 819.46 571.54 820.78 570.26 823.31 569.77
  C 832.85 567.93 840.17 564.26 848.52 560.70
  Q 854.97 557.95 859.15 555.04
  Q 871.00 546.77 880.15 535.65
  Q 884.19 530.75 888.30 523.59
  C 894.48 512.84 896.35 506.27 898.43 493.18
  C 900.55 479.85 899.33 468.80 896.46 455.73
  Q 894.94 448.83 892.55 443.63
  C 882.71 422.19 865.24 404.25 842.74 396.17
  Q 832.49 392.49 822.30 388.63
  C 817.83 386.93 815.63 380.73 815.56 376.49
  C 815.42 368.11 825.17 360.46 829.00 353.54
  C 832.58 347.07 836.68 340.15 837.93 332.84
  C 840.44 318.19 840.47 299.36 834.70 286.52
  Q 822.56 259.50 797.12 246.78
  C 790.86 243.65 783.49 242.49 776.45 240.83
  C 770.66 239.46 764.27 240.69 759.06 239.34
  C 752.22 237.56 745.43 230.66 747.25 222.83
  C 748.52 217.37 750.15 211.47 750.48 206.49
  Q 751.34 193.78 746.26 180.27
  Q 738.33 159.18 721.39 147.41
  C 715.31 143.19 710.92 139.24 702.75 137.67
  C 694.16 136.03 687.22 134.06 677.34 134.71
  C 672.34 135.04 666.90 136.81 661.51 137.48
  Z
  M 652.43 223.34
  Q 662.24 226.84 669.55 221.41
  C 680.23 213.48 675.31 195.97 661.87 194.91
  C 654.33 194.32 647.53 196.26 645.70 204.48
  C 644.37 210.45 645.52 220.87 652.43 223.34
  Z
  M 763.65 425.08
  C 765.58 420.17 764.46 417.26 762.67 411.93
  Q 761.95 409.79 760.37 408.63
  C 752.25 402.67 739.00 404.04 735.06 414.50
  C 732.37 421.64 735.58 427.80 740.98 432.45
  Q 743.30 434.45 746.38 435.03
  Q 758.84 437.33 763.65 425.08
  Z
  M 755.11 658.46
  Q 759.61 656.59 760.68 655.19
  C 767.70 646.02 764.78 632.89 753.24 629.41
  C 746.13 627.27 741.52 630.92 737.14 635.88
  C 731.91 641.78 733.74 650.52 739.14 655.56
  Q 746.21 662.15 755.11 658.46
  Z
  M 600.67 764.44
  C 609.57 763.91 615.59 756.86 615.27 747.86
  C 615.13 743.60 612.11 741.37 609.25 738.23
  Q 605.35 733.93 600.25 733.95
  C 597.14 733.96 594.14 734.46 591.67 736.40
  Q 579.47 745.97 587.87 759.26
  C 590.35 763.18 596.50 764.69 600.67 764.44
  Z"
/>
<path fill="#ffffff" d="
  M 209.30 749.96
  C 210.34 740.46 216.97 732.43 208.30 724.46
  C 206.34 722.67 201.54 719.99 198.10 720.00
  C 192.26 720.03 186.84 720.24 181.14 718.64
  Q 171.81 716.03 162.69 712.80
  Q 159.30 711.60 156.26 709.39
  C 151.31 705.78 146.04 702.31 141.89 698.21
  C 135.24 691.61 130.32 685.20 126.41 676.19
  C 124.04 670.72 121.26 665.09 120.26 659.35
  C 118.25 647.71 118.03 635.29 121.95 623.92
  Q 125.04 614.93 129.51 606.52
  Q 131.25 603.25 134.80 598.96
  Q 138.41 594.62 141.53 589.90
  C 144.49 585.45 145.26 581.58 142.69 576.98
  C 139.75 571.73 137.45 569.64 131.39 568.62
  Q 128.84 568.19 126.82 567.40
  Q 116.82 563.50 107.03 559.10
  Q 103.10 557.33 99.46 554.52
  C 95.40 551.40 91.04 548.35 87.60 545.06
  Q 76.57 534.53 68.45 518.73
  Q 62.07 506.34 60.58 494.00
  C 59.32 483.50 59.56 470.25 61.57 458.97
  Q 62.64 452.93 65.51 446.36
  C 74.02 426.87 86.42 411.77 104.85 401.21
  C 112.36 396.90 121.92 394.03 130.60 390.95
  Q 137.79 388.40 140.28 385.94
  C 144.24 382.05 145.83 375.18 142.20 370.21
  Q 139.21 366.12 136.35 361.98
  C 134.61 359.46 131.60 356.87 130.11 353.87
  C 125.26 344.09 120.02 333.83 119.22 322.75
  C 118.45 312.19 118.70 301.20 122.63 291.41
  C 125.79 283.53 129.24 275.70 134.51 269.21
  Q 145.09 256.16 160.25 247.74
  C 167.33 243.80 174.90 242.79 182.93 240.91
  C 187.56 239.83 191.77 239.98 196.43 239.93
  Q 199.64 239.90 201.89 238.76
  C 208.09 235.60 214.40 229.96 212.47 222.49
  Q 209.76 212.03 209.31 208.76
  C 207.80 197.89 210.65 187.53 214.06 177.07
  C 217.19 167.44 224.58 158.53 232.15 151.48
  C 235.57 148.30 239.80 145.88 243.78 143.07
  C 250.15 138.60 255.61 137.92 262.94 136.24
  C 272.58 134.05 282.40 134.10 292.03 136.43
  C 296.26 137.45 305.72 138.69 309.00 134.45
  C 311.72 130.93 314.44 126.93 314.50 122.27
  C 314.57 117.16 314.42 112.32 315.85 107.37
  C 317.90 100.24 319.97 92.84 324.01 86.81
  Q 332.28 74.48 344.95 67.03
  C 357.22 59.81 371.89 58.44 385.77 60.70
  Q 396.00 62.36 404.51 67.28
  C 415.91 73.87 423.69 82.95 429.60 94.73
  C 433.84 103.18 435.12 109.09 435.14 118.27
  Q 435.31 208.97 435.32 299.66
  Q 435.32 300.26 434.72 300.26
  L 359.78 300.26
  Q 359.06 300.26 359.06 299.53
  L 359.01 253.22
  Q 359.01 252.72 359.44 252.48
  Q 367.00 248.09 374.07 242.99
  Q 376.18 241.47 377.90 238.97
  C 381.10 234.30 385.54 230.16 386.98 224.24
  C 389.33 214.68 389.87 202.66 386.49 193.27
  C 384.83 188.67 381.25 184.62 378.16 180.57
  Q 375.93 177.66 372.88 175.41
  C 368.83 172.41 365.20 168.94 360.20 167.59
  Q 348.27 164.38 336.23 166.02
  Q 329.13 166.98 323.07 170.32
  Q 316.47 173.95 311.92 178.92
  Q 308.69 182.44 305.38 188.06
  C 299.47 198.06 299.31 210.82 301.69 221.98
  C 303.24 229.19 307.27 233.79 311.26 239.56
  C 313.54 242.84 317.52 244.61 320.70 247.00
  C 323.21 248.88 325.56 250.04 328.28 251.12
  A 2.54 2.53 11.0 0 1 329.87 253.47
  L 329.92 299.77
  A 0.45 0.44 -90.0 0 1 329.48 300.22
  L 252.79 300.24
  Q 252.27 300.24 252.04 299.77
  C 246.58 288.35 239.72 280.31 229.96 274.84
  Q 226.06 272.65 221.47 271.93
  C 210.06 270.14 196.93 269.88 186.73 276.34
  Q 175.52 283.44 169.31 295.12
  C 164.72 303.75 164.82 315.28 166.21 324.71
  Q 167.02 330.24 169.59 334.87
  Q 177.34 348.85 191.74 355.57
  C 199.70 359.29 208.45 359.84 217.06 358.65
  C 224.89 357.56 231.61 353.48 237.94 348.86
  Q 241.37 346.36 244.04 342.64
  Q 248.32 336.68 251.82 330.46
  A 1.25 1.23 14.1 0 1 252.91 329.82
  L 434.71 329.73
  Q 435.20 329.73 435.20 330.21
  L 435.48 404.55
  A 0.91 0.91 0.0 0 1 434.57 405.47
  Q 335.39 405.58 236.62 405.27
  C 229.83 405.25 217.55 404.07 213.59 410.27
  C 211.26 413.90 210.02 416.75 210.02 421.33
  Q 210.00 466.35 210.01 511.77
  A 0.88 0.88 0.0 0 1 209.28 512.65
  Q 207.47 512.97 205.62 514.12
  Q 196.69 519.72 191.15 525.14
  C 186.30 529.87 184.05 537.21 181.84 543.52
  Q 177.89 554.77 181.90 566.06
  C 183.73 571.20 185.37 576.95 188.72 581.13
  Q 193.82 587.51 200.53 592.08
  Q 207.33 596.72 215.09 598.31
  C 226.07 600.57 237.36 599.10 246.99 593.06
  C 254.01 588.67 259.60 583.57 263.44 575.98
  C 266.54 569.85 269.10 563.52 269.66 556.71
  C 270.38 548.06 266.44 538.25 262.17 530.81
  C 257.90 523.36 251.06 518.81 242.98 513.71
  C 241.52 512.79 240.00 512.91 239.99 510.50
  Q 239.94 473.29 240.00 435.92
  A 0.98 0.97 0.0 0 1 240.98 434.95
  L 434.48 434.93
  A 0.68 0.67 0.0 0 1 435.16 435.60
  L 435.39 509.76
  Q 435.39 510.91 434.24 510.91
  Q 376.37 511.00 318.49 510.94
  C 310.92 510.93 302.68 510.59 300.90 520.10
  Q 300.13 524.20 300.12 529.75
  Q 300.09 580.25 300.20 630.75
  Q 300.20 632.53 299.05 632.98
  Q 283.38 639.22 275.40 653.36
  Q 272.44 658.60 271.49 665.15
  Q 269.66 677.67 272.50 689.51
  C 274.63 698.40 289.02 715.09 299.28 715.11
  A 0.81 0.81 0.0 0 1 300.09 715.92
  Q 299.97 736.58 300.19 757.19
  C 300.29 767.29 299.16 771.87 306.97 776.99
  Q 311.40 779.88 315.50 779.88
  Q 375.08 779.89 434.65 780.01
  Q 435.13 780.01 435.14 780.49
  Q 435.51 825.24 435.05 846.98
  C 434.86 855.91 429.26 864.79 425.09 872.57
  C 422.99 876.51 419.97 878.94 417.01 882.24
  C 413.45 886.18 408.95 888.92 404.66 891.88
  C 399.34 895.55 393.97 896.30 387.97 898.05
  C 382.45 899.66 378.27 900.16 372.91 900.00
  C 367.07 899.82 360.60 897.83 354.37 896.24
  Q 350.29 895.21 347.29 893.56
  C 335.83 887.25 323.80 876.18 319.56 863.42
  C 316.79 855.08 314.15 848.24 314.45 838.98
  Q 314.58 834.81 313.80 832.60
  C 311.79 826.93 307.22 822.07 301.03 821.57
  Q 298.85 821.39 292.66 823.04
  Q 280.26 826.35 267.24 824.53
  Q 263.16 823.96 249.14 818.98
  Q 245.81 817.80 242.85 815.65
  C 239.04 812.89 234.85 810.17 231.61 807.15
  Q 222.32 798.51 216.16 787.30
  Q 214.13 783.61 210.59 770.42
  Q 208.08 761.06 209.30 749.96
  Z
  M 118.9749 464.9446
  A 0.26 0.26 0.0 0 0 118.7144 464.6850
  L 90.0945 464.7350
  A 0.26 0.26 0.0 0 0 89.8349 464.9955
  L 89.8851 493.7554
  A 0.26 0.26 0.0 0 0 90.1456 494.0150
  L 118.7655 493.9650
  A 0.26 0.26 0.0 0 0 119.0251 493.7045
  L 118.9749 464.9446
  Z
  M 208.9850 645.8645
  A 0.41 0.41 0.0 0 0 208.5743 645.4552
  L 180.1543 645.5048
  A 0.41 0.41 0.0 0 0 179.7450 645.9155
  L 179.7950 674.5555
  A 0.41 0.41 0.0 0 0 180.2057 674.9648
  L 208.6257 674.9152
  A 0.41 0.41 0.0 0 0 209.0350 674.5045
  L 208.9850 645.8645
  Z"
/>
<path fill="#ffffff" d="
  M 645.34 124.23
  C 645.71 133.48 652.74 138.56 661.51 137.48
  C 666.90 136.81 672.34 135.04 677.34 134.71
  C 687.22 134.06 694.16 136.03 702.75 137.67
  C 710.92 139.24 715.31 143.19 721.39 147.41
  Q 738.33 159.18 746.26 180.27
  Q 751.34 193.78 750.48 206.49
  C 750.15 211.47 748.52 217.37 747.25 222.83
  C 745.43 230.66 752.22 237.56 759.06 239.34
  C 764.27 240.69 770.66 239.46 776.45 240.83
  C 783.49 242.49 790.86 243.65 797.12 246.78
  Q 822.56 259.50 834.70 286.52
  C 840.47 299.36 840.44 318.19 837.93 332.84
  C 836.68 340.15 832.58 347.07 829.00 353.54
  C 825.17 360.46 815.42 368.11 815.56 376.49
  C 815.63 380.73 817.83 386.93 822.30 388.63
  Q 832.49 392.49 842.74 396.17
  C 865.24 404.25 882.71 422.19 892.55 443.63
  Q 894.94 448.83 896.46 455.73
  C 899.33 468.80 900.55 479.85 898.43 493.18
  C 896.35 506.27 894.48 512.84 888.30 523.59
  Q 884.19 530.75 880.15 535.65
  Q 871.00 546.77 859.15 555.04
  Q 854.97 557.95 848.52 560.70
  C 840.17 564.26 832.85 567.93 823.31 569.77
  C 820.78 570.26 819.46 571.54 818.49 573.75
  C 817.02 577.11 814.83 580.85 815.55 584.75
  C 816.11 587.75 818.35 590.81 819.91 593.57
  C 821.93 597.12 825.58 599.36 827.39 602.61
  C 832.18 611.20 837.12 619.33 838.36 628.48
  C 840.22 642.27 840.46 659.17 834.86 672.17
  Q 828.84 686.16 818.38 697.17
  C 813.53 702.28 807.29 706.28 801.08 710.25
  Q 797.58 712.49 793.46 713.82
  C 782.56 717.33 775.03 720.00 765.03 720.06
  Q 759.76 720.09 757.54 720.74
  C 751.53 722.49 746.91 727.89 747.00 734.16
  Q 747.02 735.27 749.11 743.73
  Q 752.80 758.67 748.55 772.52
  C 746.74 778.42 742.72 788.08 738.93 794.04
  C 732.77 803.71 725.82 809.47 715.77 816.03
  C 710.38 819.56 703.91 821.03 697.79 822.89
  Q 691.98 824.66 687.01 824.93
  Q 681.29 825.24 675.57 824.88
  C 670.62 824.57 665.69 822.59 660.60 821.54
  Q 658.11 821.02 656.01 821.81
  Q 650.43 823.90 647.07 828.31
  C 644.42 831.79 645.25 839.08 645.14 843.48
  Q 645.02 848.02 643.90 851.88
  C 638.82 869.39 629.52 883.55 613.59 892.54
  Q 609.72 894.72 603.86 896.38
  C 599.39 897.64 594.63 899.31 590.28 899.75
  Q 584.04 900.39 577.82 899.64
  C 574.08 899.19 569.62 897.41 565.30 896.49
  C 554.85 894.25 543.84 885.13 537.30 877.08
  C 532.27 870.89 528.73 862.79 526.10 855.19
  C 524.14 849.52 523.63 844.17 523.63 837.52
  Q 523.66 689.33 523.55 540.66
  A 0.72 0.72 0.0 0 1 524.27 539.94
  L 584.27 539.95
  Q 585.10 539.95 585.10 540.77
  L 585.11 706.43
  Q 585.11 706.88 584.73 707.12
  Q 578.68 710.90 572.59 714.23
  Q 570.70 715.26 569.25 717.13
  Q 566.63 720.53 563.45 723.34
  Q 561.83 724.77 561.10 726.59
  C 558.50 733.04 555.39 739.59 554.82 746.77
  C 554.30 753.27 556.25 759.84 558.35 766.09
  C 561.85 776.51 569.82 784.59 579.50 789.53
  C 583.39 791.51 588.18 792.15 592.60 793.32
  C 597.11 794.52 600.81 794.57 605.62 793.47
  C 612.22 791.96 621.24 790.25 625.67 785.93
  Q 627.71 783.95 632.92 779.43
  C 635.67 777.05 637.14 773.43 638.58 770.92
  C 643.49 762.36 646.73 751.26 643.95 741.50
  C 641.31 732.21 636.56 722.83 629.31 716.46
  C 625.52 713.13 619.70 710.79 615.22 707.13
  A 1.83 1.82 19.6 0 1 614.54 705.71
  L 614.51 540.72
  Q 614.51 539.95 615.28 539.95
  L 733.71 539.95
  Q 734.21 539.95 734.21 540.46
  L 734.16 602.50
  A 0.94 0.91 -15.3 0 1 733.69 603.30
  Q 729.07 605.93 724.58 608.05
  C 716.70 611.76 707.46 626.17 705.51 635.28
  Q 702.53 649.27 708.08 661.66
  Q 719.09 686.22 745.88 688.77
  C 755.48 689.68 769.65 686.17 777.00 679.76
  C 782.55 674.91 789.37 667.72 791.42 659.45
  C 793.32 651.84 795.61 645.61 793.66 638.82
  C 791.88 632.66 791.06 624.71 786.58 619.77
  C 783.42 616.30 780.36 611.32 776.38 608.98
  Q 770.55 605.55 764.75 603.19
  Q 763.70 602.76 763.70 601.63
  Q 763.70 562.75 763.56 523.75
  C 763.54 519.76 761.48 514.10 757.37 512.26
  Q 754.47 510.96 752.50 510.96
  Q 638.33 510.97 524.37 510.93
  Q 523.66 510.93 523.66 510.21
  L 523.58 436.17
  Q 523.58 434.91 524.83 434.91
  L 706.75 434.96
  Q 707.79 434.96 708.28 435.88
  Q 710.78 440.69 713.81 445.95
  C 717.65 452.63 725.85 457.27 732.72 461.05
  C 739.44 464.74 747.75 464.53 755.11 464.01
  C 763.93 463.39 768.78 459.62 775.91 455.22
  Q 778.88 453.38 780.94 451.03
  C 785.12 446.26 789.07 442.31 790.78 435.95
  Q 792.45 429.76 794.07 423.54
  C 795.48 418.10 793.26 412.80 792.02 407.58
  C 789.63 397.41 785.10 391.23 776.80 384.46
  Q 770.84 379.60 766.16 378.20
  C 753.08 374.29 734.04 374.04 723.16 383.96
  C 720.40 386.47 716.53 388.33 714.76 391.49
  Q 710.96 398.30 707.33 404.91
  Q 707.04 405.43 706.44 405.43
  L 524.14 405.29
  Q 523.74 405.29 523.74 404.89
  L 523.53 330.24
  A 0.48 0.48 0.0 0 1 524.01 329.76
  Q 590.89 329.78 658.00 329.76
  C 660.97 329.76 664.38 329.43 666.93 327.38
  C 672.50 322.90 675.22 318.27 675.16 311.00
  Q 674.95 281.85 674.91 252.70
  Q 674.91 252.17 675.37 251.90
  C 681.70 248.20 689.50 243.80 693.85 237.81
  C 697.86 232.30 701.87 226.48 703.25 219.84
  Q 704.83 212.27 704.21 204.56
  C 703.12 190.86 692.64 177.01 680.99 170.36
  C 670.21 164.20 656.20 164.33 644.46 167.45
  C 639.54 168.76 635.84 171.91 631.76 174.90
  Q 628.64 177.18 626.05 180.43
  C 623.24 183.97 620.31 186.76 618.82 191.07
  Q 612.43 209.61 618.86 228.15
  Q 619.97 231.35 622.40 234.34
  C 625.46 238.10 627.93 241.58 632.00 244.36
  Q 638.25 248.64 644.74 252.48
  Q 645.18 252.74 645.19 253.26
  L 645.29 299.71
  Q 645.29 300.22 644.79 300.22
  L 524.49 300.26
  Q 523.62 300.26 523.62 299.40
  Q 523.50 209.42 523.65 118.99
  Q 523.66 113.21 524.79 108.62
  C 529.62 88.85 541.99 72.11 560.38 64.11
  Q 572.65 58.76 588.27 59.73
  Q 617.68 61.56 633.89 84.92
  Q 640.95 95.10 644.14 108.34
  C 645.34 113.35 645.13 118.89 645.34 124.23
  Z
  M 733.9806 300.8585
  A 0.63 0.63 0.0 0 0 733.3484 300.2307
  L 705.0686 300.3294
  A 0.63 0.63 0.0 0 0 704.4408 300.9616
  L 704.5394 329.2015
  A 0.63 0.63 0.0 0 0 705.1716 329.8293
  L 733.4514 329.7306
  A 0.63 0.63 0.0 0 0 734.0792 329.0984
  L 733.9806 300.8585
  Z
  M 854.4952 465.1243
  A 0.48 0.48 0.0 0 0 854.0144 464.6452
  L 825.5544 464.6949
  A 0.48 0.48 0.0 0 0 825.0753 465.1757
  L 825.1248 493.5357
  A 0.48 0.48 0.0 0 0 825.6056 494.0148
  L 854.0656 493.9651
  A 0.48 0.48 0.0 0 0 854.5447 493.4843
  L 854.4952 465.1243
  Z"
/>
<rect fill="#ffffff" x="329.86" y="194.99" width="29.48" height="29.52" rx="12.59"/>
<path fill="#ffffff" d="
  M 652.43 223.34
  C 645.52 220.87 644.37 210.45 645.70 204.48
  C 647.53 196.26 654.33 194.32 661.87 194.91
  C 675.31 195.97 680.23 213.48 669.55 221.41
  Q 662.24 226.84 652.43 223.34
  Z"
/>
<path fill="#ffffff" d="
  M 217.04 301.42
  C 226.82 305.17 226.95 320.54 219.38 326.70
  Q 214.65 330.55 207.63 329.86
  C 200.70 329.18 196.77 325.52 195.27 318.74
  C 194.18 313.84 194.57 306.03 199.42 302.98
  Q 207.64 297.81 217.04 301.42
  Z"
/>
<rect fill="#000000" x="-14.77" y="-14.75" transform="translate(719.26,315.03) rotate(-0.2)" width="29.54" height="29.50" rx="0.63"/>
<path fill="#ffffff" d="
  M 763.65 425.08
  Q 758.84 437.33 746.38 435.03
  Q 743.30 434.45 740.98 432.45
  C 735.58 427.80 732.37 421.64 735.06 414.50
  C 739.00 404.04 752.25 402.67 760.37 408.63
  Q 761.95 409.79 762.67 411.93
  C 764.46 417.26 765.58 420.17 763.65 425.08
  Z"
/>
<rect fill="#000000" x="-14.57" y="-14.64" transform="translate(104.43,479.35) rotate(-0.1)" width="29.14" height="29.28" rx="0.26"/>
<rect fill="#000000" x="-14.71" y="-14.66" transform="translate(839.81,479.33) rotate(-0.1)" width="29.42" height="29.32" rx="0.48"/>
<path fill="#ffffff" d="
  M 210.35 548.90
  Q 213.99 540.53 223.97 539.99
  Q 231.78 539.56 235.84 544.63
  Q 243.44 554.11 236.77 563.07
  C 234.57 566.03 232.93 568.55 230.28 569.35
  C 224.74 571.04 217.01 570.33 213.34 564.80
  C 209.84 559.52 207.47 555.50 210.35 548.90
  Z"
/>
<path fill="#ffffff" d="
  M 350.38 700.49
  C 355.50 692.87 358.48 687.76 359.01 679.30
  C 359.51 671.23 358.97 663.37 355.36 656.34
  C 350.09 646.08 342.76 637.99 331.50 634.07
  Q 329.54 633.39 329.55 631.25
  Q 329.70 585.83 329.83 540.41
  Q 329.83 539.95 330.29 539.95
  L 434.73 539.95
  Q 435.25 539.95 435.25 540.48
  L 435.28 749.83
  Q 435.28 750.95 434.17 750.95
  L 330.58 750.95
  Q 329.96 750.95 329.96 750.33
  L 329.77 715.97
  A 0.73 0.72 86.4 0 1 330.40 715.25
  C 337.38 714.30 340.68 710.84 345.66 706.09
  Q 348.33 703.54 350.38 700.49
  Z"
/>
<path fill="#ffffff" d="
  M 755.11 658.46
  Q 746.21 662.15 739.14 655.56
  C 733.74 650.52 731.91 641.78 737.14 635.88
  C 741.52 630.92 746.13 627.27 753.24 629.41
  C 764.78 632.89 767.70 646.02 760.68 655.19
  Q 759.61 656.59 755.11 658.46
  Z"
/>
<rect fill="#000000" x="-14.62" y="-14.73" transform="translate(194.39,660.21) rotate(-0.1)" width="29.24" height="29.46" rx="0.41"/>
<path fill="#ffffff" d="
  M 310.45 689.32
  Q 298.72 685.30 300.05 672.26
  C 300.70 665.95 304.78 661.86 310.43 659.79
  C 316.38 657.61 321.09 660.38 326.25 664.66
  C 330.83 668.46 330.47 675.48 328.92 680.75
  C 327.66 684.99 324.77 685.84 321.49 687.88
  C 317.72 690.21 314.53 690.72 310.45 689.32
  Z"
/>
<path fill="#ffffff" d="
  M 600.67 764.44
  C 596.50 764.69 590.35 763.18 587.87 759.26
  Q 579.47 745.97 591.67 736.40
  C 594.14 734.46 597.14 733.96 600.25 733.95
  Q 605.35 733.93 609.25 738.23
  C 612.11 741.37 615.13 743.60 615.27 747.86
  C 615.59 756.86 609.57 763.91 600.67 764.44
  Z"
/>
</svg>
