<?xml version="1.0" encoding="UTF-8" standalone="no"?>
<!DOCTYPE svg PUBLIC "-//W3C//DTD SVG 1.1//EN" "http://www.w3.org/Graphics/SVG/1.1/DTD/svg11.dtd">
<svg xmlns="http://www.w3.org/2000/svg" version="1.1" viewBox="0.00 0.00 750.00 750.00">
<g stroke-width="2.00" fill="none" stroke-linecap="butt">
<path stroke="#89929c" vector-effect="non-scaling-stroke" d="
  M 379.50 276.17
  Q 380.17 276.88 379.45 278.07
  Q 379.21 278.48 379.58 278.78
  Q 380.77 279.73 380.95 281.28
  Q 381.01 281.78 380.70 282.17
  Q 377.60 286.02 378.01 291.25
  Q 378.63 299.03 385.51 302.58
  Q 392.70 306.30 400.82 300.81"
/>
<path stroke="#f6bfbd" vector-effect="non-scaling-stroke" d="
  M 400.82 300.81
  Q 404.87 302.01 401.69 307.19
  Q 401.07 308.19 398.12 309.61"
/>
<path stroke="#96b7ff" vector-effect="non-scaling-stroke" d="
  M 398.12 309.61
  Q 390.03 312.67 381.73 315.85
  C 380.17 316.45 378.95 317.37 378.43 319.04
  C 376.64 324.82 376.84 331.33 376.95 337.39
  Q 376.96 337.92 377.45 338.12
  L 380.52 339.43"
/>
<path stroke="#f6bfbd" vector-effect="non-scaling-stroke" d="
  M 380.52 339.43
  C 381.42 351.47 381.76 363.24 379.33 375.11
  Q 378.49 379.19 374.18 394.43
  Q 371.15 405.17 367.62 416.17"
/>
<path stroke="#8698bf" vector-effect="non-scaling-stroke" d="
  M 367.62 416.17
  Q 365.17 394.49 362.97 373.75
  Q 362.66 370.83 358.80 369.81"
/>
<path stroke="#96b7ff" vector-effect="non-scaling-stroke" d="
  M 358.80 369.81
  Q 319.58 369.56 279.75 369.81
  C 276.97 369.82 275.24 371.46 275.53 374.16
  Q 278.13 398.64 280.68 422.53
  C 280.95 425.01 283.25 426.76 285.67 426.63
  Q 286.37 426.59 286.03 427.20
  L 284.31 430.30"
/>
<path stroke="#e3ecff" vector-effect="non-scaling-stroke" d="
  M 284.31 430.30
  L 199.93 430.20"
/>
<path stroke="#96b7ff" vector-effect="non-scaling-stroke" d="
  M 199.93 430.20
  Q 201.64 415.05 201.64 400.31"
/>
<path stroke="#b6989e" vector-effect="non-scaling-stroke" d="
  M 201.64 400.31
  Q 206.47 413.01 210.24 420.00
  C 213.44 425.95 220.42 426.78 225.64 422.79
  C 232.67 417.39 238.25 407.37 241.93 399.50
  C 243.22 396.74 245.86 395.03 247.42 392.63
  Q 251.02 387.09 255.08 382.86
  A 0.51 0.50 46.8 0 0 255.10 382.18
  L 249.93 376.21
  A 0.66 0.65 -32.8 0 0 249.16 376.05
  L 239.89 380.52
  Q 239.26 380.82 239.08 381.49
  L 236.95 389.15
  Q 236.50 390.74 235.41 391.97
  L 222.04 407.02
  A 0.48 0.48 0.0 0 1 221.23 406.87
  L 212.85 383.68"
/>
<path stroke="#96b7ff" vector-effect="non-scaling-stroke" d="
  M 212.85 383.68
  L 218.75 380.10
  A 0.56 0.56 0.0 0 0 218.98 379.40
  Q 213.77 367.32 205.99 357.07
  C 202.77 352.82 198.15 349.02 193.25 347.58
  Q 187.30 345.84 175.70 344.70"
/>
<path stroke="#b6989e" vector-effect="non-scaling-stroke" d="
  M 175.70 344.70
  Q 164.96 342.24 168.05 330.64
  Q 168.18 330.15 168.68 330.06
  Q 182.81 327.61 182.20 312.98
  Q 181.95 306.73 179.73 299.36"
/>
<path stroke="#89929c" vector-effect="non-scaling-stroke" d="
  M 179.73 299.36
  Q 180.69 299.50 181.52 299.93
  Q 181.63 299.98 181.70 299.88
  L 181.88 299.63
  A 0.32 0.32 0.0 0 0 181.79 299.18
  L 180.02 298.03
  Q 179.57 297.73 179.45 297.19
  Q 178.71 293.72 176.52 291.34
  Q 176.15 290.93 176.58 290.58
  Q 177.51 289.81 177.96 288.74
  A 1.27 1.25 2.9 0 1 178.77 288.02
  Q 180.45 287.50 181.36 286.00
  Q 181.68 285.47 182.30 285.52
  L 182.74 285.56
  Q 183.26 285.60 183.29 286.11
  Q 183.37 287.27 184.52 287.65
  A 1.89 1.89 0.0 0 0 186.85 286.56
  Q 187.60 284.70 185.62 283.97
  Q 185.05 283.76 185.26 283.19
  L 185.39 282.82
  Q 185.58 282.29 185.41 281.75
  Q 184.32 278.41 180.80 279.42
  A 1.07 1.05 -77.9 0 0 180.24 279.79
  Q 179.77 280.38 179.08 280.19
  Q 178.54 280.04 178.36 279.47
  Q 176.46 273.46 170.41 274.90
  C 169.62 275.08 168.87 275.84 168.21 276.30
  Q 167.83 276.56 167.47 276.28
  Q 162.84 272.62 158.52 277.03
  Q 158.28 277.28 157.96 277.17
  Q 152.74 275.53 150.08 280.25
  Q 149.84 280.68 149.38 280.52
  Q 144.13 278.64 141.55 283.27
  Q 140.77 284.69 141.05 286.38
  A 1.06 1.05 70.7 0 1 140.53 287.47
  C 136.34 289.82 136.67 295.55 141.17 297.29
  Q 141.66 297.48 141.61 298.00
  Q 140.89 304.96 145.97 311.12"
/>
<path stroke="#b6989e" vector-effect="non-scaling-stroke" d="
  M 145.97 311.12
  Q 147.04 315.94 151.80 318.01
  A 1.22 1.21 -85.3 0 1 152.51 318.86
  C 153.94 325.30 156.01 340.32 150.20 345.08"
/>
<path stroke="#96b7ff" vector-effect="non-scaling-stroke" d="
  M 150.20 345.08
  Q 142.88 345.37 135.23 346.49
  Q 127.32 347.66 123.25 354.54
  Q 118.37 362.79 116.60 372.28
  Q 116.55 372.56 115.93 373.29"
/>
<path stroke="#53383a" vector-effect="non-scaling-stroke" d="
  M 179.73 299.36
  L 177.31 298.68
  Q 176.39 298.42 177.29 298.09
  L 177.85 297.89
  Q 178.42 297.69 178.22 297.12
  Q 176.31 291.91 171.76 290.75
  Q 171.19 290.61 170.66 290.87
  Q 168.43 291.99 166.28 290.81
  Q 165.70 290.49 165.23 290.94
  Q 163.93 292.20 162.05 292.42
  A 1.31 1.30 -79.4 0 0 161.05 293.11
  Q 160.30 294.48 158.88 295.27
  A 1.43 1.42 81.8 0 0 158.19 296.20
  Q 157.73 298.34 155.89 299.68
  A 0.75 0.74 -24.5 0 0 155.60 300.45
  Q 156.80 305.79 154.99 310.84
  A 0.38 0.38 0.0 0 1 154.33 310.95
  Q 153.13 309.37 151.15 308.67
  Q 148.21 307.64 145.97 311.12"
/>
<path stroke="#7d91bf" vector-effect="non-scaling-stroke" d="
  M 441.87 430.11
  L 360.55 430.41"
/>
<path stroke="#305cbf" vector-effect="non-scaling-stroke" d="
  M 360.55 430.41
  Q 361.32 427.27 364.21 426.28
  Q 364.71 426.11 365.03 425.69
  C 366.73 423.48 366.03 421.54 365.77 419.00
  Q 363.49 397.12 361.13 375.25
  Q 360.82 372.38 358.80 369.81"
/>
<path stroke="#8b99ba" vector-effect="non-scaling-stroke" d="
  M 399.64 382.73
  L 402.65 382.31
  Q 403.18 382.23 403.00 381.72
  L 401.47 377.41"
/>
<path stroke="#8b99ba" vector-effect="non-scaling-stroke" d="
  M 403.71 376.94
  L 405.15 381.13
  Q 405.35 381.70 405.94 381.57
  L 420.22 378.31
  Q 420.70 378.20 420.54 377.73
  L 419.10 373.51"
/>
<path stroke="#8b99ba" vector-effect="non-scaling-stroke" d="
  M 421.27 372.93
  L 422.79 377.20
  Q 422.96 377.68 423.46 377.57
  L 437.88 374.32
  Q 438.45 374.19 438.26 373.65
  L 436.78 369.42"
/>
<path stroke="#605d9e" vector-effect="non-scaling-stroke" d="
  M 212.85 383.68
  L 206.19 387.65"
/>
<path stroke="#305cbf" vector-effect="non-scaling-stroke" d="
  M 206.19 387.65
  Q 204.53 377.85 199.60 369.75
  A 0.14 0.14 0.0 0 0 199.34 369.85
  Q 200.89 379.46 201.42 389.41
  Q 201.44 389.69 201.63 389.89
  Q 201.77 390.03 201.79 390.24"
/>
<path stroke="#605d9e" vector-effect="non-scaling-stroke" d="
  M 201.79 390.24
  Q 201.37 390.88 201.40 391.75
  Q 201.56 396.00 201.64 400.31"
/>
<path stroke="#8db0ff" vector-effect="non-scaling-stroke" d="
  M 199.93 430.20
  Q 191.94 430.25 183.73 430.28
  Q 175.31 430.30 171.44 431.74
  Q 162.97 434.90 158.68 443.88"
/>
<path stroke="#33579c" vector-effect="non-scaling-stroke" d="
  M 158.68 443.88
  L 138.17 443.84"
/>
<path stroke="#605d9e" vector-effect="non-scaling-stroke" d="
  M 138.72 417.78
  C 149.57 412.17 158.94 405.10 168.61 397.85
  Q 169.96 396.84 171.28 394.29
  C 173.01 390.95 176.05 388.05 178.56 385.21
  A 0.76 0.74 50.6 0 0 178.64 384.32
  L 174.69 377.78
  A 0.64 0.63 -31.3 0 0 173.80 377.57
  L 164.76 383.17
  A 2.40 2.38 85.7 0 0 163.78 384.32
  L 160.58 392.11
  A 2.25 2.24 88.6 0 1 159.48 393.27
  L 138.62 402.96"
/>
<path stroke="#96b7ff" vector-effect="non-scaling-stroke" d="
  M 138.62 402.96
  Q 138.07 399.01 138.63 396.90"
/>
<path stroke="#305cbf" vector-effect="non-scaling-stroke" d="
  M 138.63 396.90
  Q 141.69 389.00 142.69 381.12
  A 0.08 0.08 0.0 0 0 142.53 381.08
  L 138.05 391.97"
/>
<path stroke="#96b7ff" vector-effect="non-scaling-stroke" d="
  M 138.05 391.97
  Q 137.47 391.91 136.73 394.26
  A 0.78 0.78 0.0 0 1 135.65 394.73
  L 133.38 393.66"
/>
<path stroke="#605d9e" vector-effect="non-scaling-stroke" d="
  M 133.38 393.66
  L 118.35 386.54"
/>
<path stroke="#f6bfbd" vector-effect="non-scaling-stroke" d="
  M 392.15 360.76
  Q 390.64 374.66 385.32 389.30
  Q 377.50 410.81 369.95 426.27"
/>
<path stroke="#90647d" vector-effect="non-scaling-stroke" d="
  M 369.95 426.27
  L 367.50 426.16
  Q 366.79 426.13 367.20 425.55
  L 367.98 424.43
  Q 368.30 423.98 368.25 423.43
  L 367.62 416.17"
/>
<path stroke="#a083bd" vector-effect="non-scaling-stroke" d="
  M 448.09 320.32
  L 439.99 329.03"
/>
<path stroke="#96b7ff" vector-effect="non-scaling-stroke" d="
  M 439.99 329.03
  Q 438.38 330.36 437.36 332.47"
/>
<path stroke="#305cbf" vector-effect="non-scaling-stroke" d="
  M 437.36 332.47
  Q 434.30 330.29 432.13 327.12
  Q 431.37 326.01 430.77 324.81
  Q 430.63 324.54 430.59 324.84
  Q 430.56 324.99 430.63 325.13
  Q 433.22 330.75 437.59 335.27"
/>
<path stroke="#96b7ff" vector-effect="non-scaling-stroke" d="
  M 437.59 335.27
  L 439.63 352.70"
/>
<path stroke="#a083bd" vector-effect="non-scaling-stroke" d="
  M 439.63 352.70
  Q 430.99 355.09 422.26 356.12
  Q 420.93 356.28 419.97 355.32
  Q 417.19 352.57 414.23 349.82
  A 1.85 1.83 -20.8 0 0 413.17 349.35
  L 404.95 348.48
  Q 404.60 348.44 404.60 348.80
  L 404.51 357.68
  Q 404.51 357.92 404.73 357.98
  Q 411.32 359.92 416.57 362.28
  C 419.85 363.76 422.33 362.31 425.58 362.35
  Q 433.59 362.45 441.49 361.17"
/>
<path stroke="#9bb8fa" vector-effect="non-scaling-stroke" d="
  M 443.26 367.78
  L 439.03 368.86"
/>
<path stroke="#305cbf" vector-effect="non-scaling-stroke" d="
  M 439.03 368.86
  Q 437.54 368.53 436.78 369.42"
/>
<path stroke="#9bb8fa" vector-effect="non-scaling-stroke" d="
  M 436.78 369.42
  L 421.27 372.93"
/>
<path stroke="#305cbf" vector-effect="non-scaling-stroke" d="
  M 421.27 372.93
  Q 419.97 372.42 419.10 373.51"
/>
<path stroke="#9bb8fa" vector-effect="non-scaling-stroke" d="
  M 419.10 373.51
  L 403.71 376.94"
/>
<path stroke="#305cbf" vector-effect="non-scaling-stroke" d="
  M 403.71 376.94
  Q 402.36 376.46 401.47 377.41"
/>
<path stroke="#9bb8fa" vector-effect="non-scaling-stroke" d="
  M 401.47 377.41
  Q 399.84 378.06 398.86 377.81"
/>
<path stroke="#96b7ff" vector-effect="non-scaling-stroke" d="
  M 398.86 377.81
  L 392.15 360.76"
/>
<path stroke="#a083bd" vector-effect="non-scaling-stroke" d="
  M 392.15 360.76
  L 384.80 341.01"
/>
<path stroke="#305cbf" vector-effect="non-scaling-stroke" d="
  M 384.80 341.01
  Q 385.01 340.40 384.86 340.00
  Q 383.09 335.16 381.89 330.14
  Q 381.88 330.12 381.90 330.12
  Q 381.95 330.11 381.85 330.13
  Q 381.81 330.14 381.82 330.17
  Q 382.67 334.74 382.02 339.35
  Q 381.99 339.54 381.80 339.58
  Q 381.67 339.61 381.54 339.58"
/>
<path stroke="#a083bd" vector-effect="non-scaling-stroke" d="
  M 381.54 339.58
  L 380.52 339.43"
/>
<path stroke="#808c9c" vector-effect="non-scaling-stroke" d="
  M 580.16 432.25
  L 586.20 436.18"
/>
<path stroke="#e7edfa" vector-effect="non-scaling-stroke" d="
  M 593.13 613.23
  L 593.36 624.12
  A 0.86 0.86 0.0 0 1 592.50 625.00
  L 584.73 625.00
  Q 584.01 625.00 584.01 624.28
  L 584.02 612.58"
/>
<path stroke="#e7edfa" vector-effect="non-scaling-stroke" d="
  M 561.48 611.37
  Q 561.05 611.60 561.05 612.00
  Q 560.99 617.61 560.99 623.90
  A 0.97 0.97 0.0 0 1 560.02 624.87
  L 552.98 624.87
  A 1.78 1.77 -2.3 0 1 551.21 623.24
  Q 550.69 616.82 551.68 610.83"
/>
<path stroke="#8db0ff" vector-effect="non-scaling-stroke" d="
  M 514.83 495.44
  L 513.93 488.71
  Q 513.87 488.25 514.33 488.27
  Q 533.24 488.88 551.45 488.25
  A 0.33 0.33 0.0 0 0 551.76 487.92
  Q 551.83 468.97 551.73 451.25
  Q 551.71 447.54 548.33 443.87"
/>
<path stroke="#808c9c" vector-effect="non-scaling-stroke" d="
  M 548.33 443.87
  Q 544.44 439.55 537.74 439.55
  Q 528.64 439.56 525.93 439.84"
/>
<path stroke="#e3ecff" vector-effect="non-scaling-stroke" d="
  M 525.93 439.84
  L 440.38 439.68"
/>
<path stroke="#7d91bf" vector-effect="non-scaling-stroke" d="
  M 440.38 439.68
  L 381.15 439.78"
/>
<path stroke="#e3ecff" vector-effect="non-scaling-stroke" d="
  M 381.15 439.78
  Q 320.58 440.10 260.50 439.67
  Q 249.65 439.59 212.00 439.74
  Q 205.47 439.76 202.24 443.85"
/>
<path stroke="#808c9c" vector-effect="non-scaling-stroke" d="
  M 202.24 443.85
  Q 201.58 443.72 200.74 445.01
  Q 198.27 448.81 198.26 452.96
  Q 198.23 469.58 198.24 488.00
  Q 198.24 488.54 198.79 488.53
  L 210.25 488.31
  Q 210.75 488.30 210.70 488.79
  L 210.00 495.18"
/>
<path stroke="#8db0ff" vector-effect="non-scaling-stroke" d="
  M 198.25 585.21
  L 198.28 594.93"
/>
<path stroke="#808c9c" vector-effect="non-scaling-stroke" d="
  M 198.34 607.78
  L 198.34 619.86
  Q 198.34 620.23 198.70 620.30
  Q 198.86 620.33 199.01 620.29"
/>
<path stroke="#e7edfa" vector-effect="non-scaling-stroke" d="
  M 199.01 620.29
  Q 198.54 621.47 198.66 623.25
  Q 198.79 625.01 197.03 625.00
  L 190.61 624.99
  Q 188.99 624.99 189.01 623.36
  L 189.14 611.85
  Q 189.14 611.69 189.02 611.60
  L 188.71 611.36"
/>
<path stroke="#e7edfa" vector-effect="non-scaling-stroke" d="
  M 165.98 612.58
  L 165.84 624.31
  A 0.53 0.53 0.0 0 1 165.31 624.84
  L 157.92 624.94
  A 1.42 1.42 0.0 0 1 156.48 623.47
  L 156.80 613.27"
/>
<path stroke="#808c9c" vector-effect="non-scaling-stroke" d="
  M 156.82 485.48
  Q 156.87 469.40 156.82 453.25
  Q 156.80 448.20 158.68 443.88"
/>
<path stroke="#a083bd" vector-effect="non-scaling-stroke" d="
  M 417.64 305.34
  Q 413.83 317.71 404.63 326.36
  A 1.17 1.16 -49.3 0 1 403.17 326.48
  Q 394.13 320.35 398.12 309.61"
/>
<path stroke="#8db0ff" vector-effect="non-scaling-stroke" d="
  M 360.55 430.41
  L 284.31 430.30"
/>
<path stroke="#605d9e" vector-effect="non-scaling-stroke" d="
  M 175.70 344.70
  C 178.71 348.47 177.34 350.53 173.00 351.29
  Q 159.18 353.71 150.20 345.08"
/>
<path stroke="#23385c" vector-effect="non-scaling-stroke" d="
  M 421.97 296.18
  Q 421.83 295.61 422.48 295.32"
/>
<path stroke="#89929c" vector-effect="non-scaling-stroke" d="
  M 422.48 295.32
  C 430.50 293.96 435.01 285.90 432.30 278.45
  Q 429.77 271.48 421.06 269.90
  Q 420.81 269.85 420.84 270.10
  L 420.87 270.39
  Q 420.87 270.42 420.90 270.43
  Q 426.24 271.77 428.51 276.05
  C 432.60 283.74 429.96 291.14 422.19 295.00"
/>
<path stroke="#23385c" vector-effect="non-scaling-stroke" d="
  M 422.19 295.00
  L 418.82 296.06"
/>
<path stroke="#935f5a" vector-effect="non-scaling-stroke" d="
  M 411.91 294.71
  Q 412.32 291.01 413.43 286.75
  Q 413.95 284.76 415.06 282.93
  C 416.78 280.12 416.45 275.69 412.20 275.61
  C 410.87 275.59 409.90 276.53 409.31 277.64
  A 0.72 0.72 0.0 0 1 408.47 277.98
  Q 400.77 275.60 394.54 269.08
  A 0.87 0.87 0.0 0 0 393.51 268.91
  Q 387.82 271.85 381.64 272.45
  Q 381.07 272.51 381.04 273.08
  L 380.94 275.43
  A 0.73 0.73 0.0 0 0 382.20 275.95
  Q 382.69 275.43 383.30 275.68
  Q 384.00 275.96 383.39 276.40
  Q 382.81 276.83 382.05 276.95
  A 1.10 1.10 0.0 0 0 381.13 278.17
  Q 382.11 286.06 386.24 293.05
  Q 388.90 297.55 391.97 299.28
  Q 395.80 301.45 400.82 300.81"
/>
<path stroke="#503e5e" vector-effect="non-scaling-stroke" d="
  M 206.19 387.65
  L 201.79 390.24"
/>
<path stroke="#e3ecff" vector-effect="non-scaling-stroke" d="
  M 592.46 446.33
  Q 590.56 440.30 586.20 436.18"
/>
<path stroke="#89929c" vector-effect="non-scaling-stroke" d="
  M 586.20 436.18
  L 586.05 430.63"
/>
<path stroke="#f6d4b9" vector-effect="non-scaling-stroke" d="
  M 586.05 430.63
  Q 590.65 429.09 595.12 427.13
  C 600.50 424.79 606.55 420.87 608.53 415.07
  Q 609.44 412.41 609.25 407.34
  Q 608.86 396.86 606.39 386.55"
/>
<path stroke="#89929c" vector-effect="non-scaling-stroke" d="
  M 606.39 386.55
  L 610.11 384.76
  A 0.43 0.42 74.0 0 0 610.35 384.32
  C 609.05 374.81 606.64 364.56 601.82 356.22
  Q 598.23 350.00 591.75 347.29
  Q 588.79 346.04 578.09 345.22"
/>
<path stroke="#96b7ff" vector-effect="non-scaling-stroke" d="
  M 578.09 345.22
  Q 575.88 343.73 573.35 344.39"
/>
<path stroke="#f6d4b9" vector-effect="non-scaling-stroke" d="
  M 573.35 344.39
  C 568.98 336.25 571.32 327.87 573.31 319.60
  Q 573.40 319.23 573.68 318.97
  C 576.16 316.61 578.67 314.64 577.72 310.79"
/>
<path stroke="#89929c" vector-effect="non-scaling-stroke" d="
  M 577.72 310.79
  L 578.59 309.08"
/>
<path stroke="#8698bf" vector-effect="non-scaling-stroke" d="
  M 578.59 309.08
  Q 581.10 307.37 580.95 303.66"
/>
<path stroke="#96b7ff" vector-effect="non-scaling-stroke" d="
  M 580.95 303.66
  Q 585.46 303.25 585.74 299.75
  C 586.28 293.17 579.80 288.43 574.15 286.05
  Q 566.85 282.97 559.48 284.87
  Q 550.36 287.23 544.37 294.70"
/>
<path stroke="#8698bf" vector-effect="non-scaling-stroke" d="
  M 544.37 294.70
  Q 542.06 296.16 542.01 299.81"
/>
<path stroke="#89929c" vector-effect="non-scaling-stroke" d="
  M 542.01 299.81
  L 542.22 305.00
  Q 542.24 305.55 541.78 305.86
  Q 541.26 306.22 540.96 306.73
  Q 540.55 307.46 541.37 307.32
  Q 541.99 307.21 542.56 306.68"
/>
<path stroke="#f6d4b9" vector-effect="non-scaling-stroke" d="
  M 542.56 306.68
  L 542.76 308.13"
/>
<path stroke="#89929c" vector-effect="non-scaling-stroke" d="
  M 542.76 308.13
  L 540.15 308.62
  Q 539.65 308.71 539.54 309.21
  Q 539.43 309.69 539.72 310.30"
/>
<path stroke="#8698bf" vector-effect="non-scaling-stroke" d="
  M 539.72 310.30
  C 539.49 312.39 539.68 317.56 542.54 317.97"
/>
<path stroke="#f6d4b9" vector-effect="non-scaling-stroke" d="
  M 542.54 317.97
  Q 543.18 318.55 543.27 319.47
  Q 544.52 332.04 556.70 334.22
  Q 557.25 334.32 557.41 334.87
  C 558.89 340.02 555.21 343.84 550.34 344.26"
/>
<path stroke="#96b7ff" vector-effect="non-scaling-stroke" d="
  M 550.34 344.26
  Q 548.57 343.52 546.33 344.98"
/>
<path stroke="#89929c" vector-effect="non-scaling-stroke" d="
  M 546.33 344.98
  Q 541.22 345.68 536.06 346.64
  Q 530.70 347.64 527.69 349.19
  Q 523.59 351.30 520.47 354.99
  Q 512.08 364.94 505.76 379.23
  Q 505.55 379.72 505.99 380.00
  L 510.63 382.92"
/>
<path stroke="#f6d4b9" vector-effect="non-scaling-stroke" d="
  M 510.63 382.92
  Q 506.44 393.68 502.15 404.18
  Q 501.31 406.23 500.06 407.51
  C 493.35 414.35 482.61 418.57 471.60 421.01
  C 466.42 422.16 461.30 420.25 456.27 419.34
  A 1.74 1.73 31.5 0 0 454.93 419.66
  L 446.88 425.75
  A 0.69 0.68 -29.5 0 0 446.65 426.56
  L 448.07 430.05"
/>
<path stroke="#e3ecff" vector-effect="non-scaling-stroke" d="
  M 448.07 430.05
  L 441.87 430.11"
/>
<path stroke="#8698bf" vector-effect="non-scaling-stroke" d="
  M 441.87 430.11
  Q 444.32 418.77 446.59 407.86
  C 449.14 395.63 451.06 383.41 445.54 372.67"
/>
<path stroke="#f1f4fa" vector-effect="non-scaling-stroke" d="
  M 445.54 372.67
  Q 446.41 370.56 443.26 367.78"
/>
<path stroke="#96b7ff" vector-effect="non-scaling-stroke" d="
  M 443.26 367.78
  L 441.49 361.17"
/>
<path stroke="#f6bfbd" vector-effect="non-scaling-stroke" d="
  M 441.49 361.17
  Q 449.04 359.90 453.17 356.70
  Q 458.68 352.43 457.73 346.50
  Q 455.80 334.47 448.09 320.32"
/>
<path stroke="#96b7ff" vector-effect="non-scaling-stroke" d="
  M 448.09 320.32
  L 449.93 318.14
  Q 450.26 317.76 449.98 317.33
  C 447.13 312.96 443.11 306.96 438.78 304.28
  Q 437.25 303.33 434.44 303.51
  Q 426.12 304.04 417.64 305.34"
/>
<path stroke="#f6bfbd" vector-effect="non-scaling-stroke" d="
  M 417.64 305.34
  Q 413.33 302.17 411.91 294.71"
/>
<path stroke="#89929c" vector-effect="non-scaling-stroke" d="
  M 411.91 294.71
  Q 415.61 296.26 418.82 296.06"
/>
<path stroke="#8698bf" vector-effect="non-scaling-stroke" d="
  M 418.82 296.06
  Q 420.33 296.58 421.97 296.18"
/>
<path stroke="#89929c" vector-effect="non-scaling-stroke" d="
  M 421.97 296.18
  C 432.23 294.83 437.74 282.59 430.84 274.38
  Q 426.18 268.84 419.07 269.33
  Q 418.49 269.38 418.32 268.82
  L 417.24 265.35"
/>
<path stroke="#f1f4fa" vector-effect="non-scaling-stroke" d="
  M 398.86 377.81
  Q 398.44 377.77 398.24 378.08
  Q 398.11 378.30 398.20 378.69
  Q 398.72 380.85 399.64 382.73"
/>
<path stroke="#8698bf" vector-effect="non-scaling-stroke" d="
  M 399.64 382.73
  Q 399.35 382.54 399.18 382.99
  Q 391.29 404.02 385.00 425.67
  Q 384.86 426.15 384.36 426.16
  L 369.95 426.27"
/>
<path stroke="#8b99ba" vector-effect="non-scaling-stroke" d="
  M 445.54 372.67
  L 441.20 373.49
  Q 440.68 373.59 440.51 373.09
  L 439.03 368.86"
/>
<path stroke="#b6989e" vector-effect="non-scaling-stroke" d="
  M 133.38 393.66
  L 132.43 398.59"
/>
<path stroke="#b6989e" vector-effect="non-scaling-stroke" d="
  M 136.40 403.79
  L 138.62 402.96"
/>
<path stroke="#8698bf" vector-effect="non-scaling-stroke" d="
  M 138.63 396.90
  Q 137.79 394.26 138.05 391.97"
/>
<path stroke="#90647d" vector-effect="non-scaling-stroke" d="
  M 384.80 341.01
  L 381.54 339.58"
/>
<path stroke="#f6bfbd" vector-effect="non-scaling-stroke" d="
  M 439.63 352.70
  L 446.97 349.21
  A 1.24 1.23 -21.4 0 0 447.62 347.74
  Q 444.65 338.19 439.99 329.03"
/>
<path stroke="#8698bf" vector-effect="non-scaling-stroke" d="
  M 437.36 332.47
  Q 437.68 333.25 437.59 335.27"
/>
<path stroke="#e3ecff" vector-effect="non-scaling-stroke" d="
  M 524.70 429.69
  C 523.96 429.76 523.50 430.16 522.75 430.16
  Q 508.62 430.07 494.50 429.99
  Q 486.07 429.94 483.88 429.78"
/>
<path stroke="#8e9497" vector-effect="non-scaling-stroke" d="
  M 387.22 610.39
  Q 381.48 613.95 375.10 615.27
  Q 373.36 615.62 373.59 617.38
  Q 373.83 619.21 376.64 620.18
  A 3.14 3.12 53.3 0 0 377.77 620.35
  Q 392.04 619.85 404.60 620.30
  A 1.67 1.67 0.0 0 0 406.32 618.41
  Q 405.64 613.29 404.97 608.75
  Q 404.81 607.67 403.54 607.72"
/>
<path stroke="#8e9497" vector-effect="non-scaling-stroke" d="
  M 484.39 607.73
  L 484.37 608.62
  Q 484.36 609.21 483.77 609.19
  Q 482.42 609.16 481.15 609.62
  Q 472.11 612.89 460.75 615.21
  Q 459.10 615.55 458.86 617.22
  Q 458.79 617.71 458.98 618.14
  Q 460.00 620.46 462.52 620.38
  Q 480.51 619.85 497.19 620.26
  A 1.80 1.80 0.0 0 0 499.03 618.38
  L 498.59 609.01"
/>
<path stroke="#8e9497" vector-effect="non-scaling-stroke" d="
  M 199.01 620.29
  Q 213.87 619.82 230.20 620.40
  Q 232.62 620.48 233.78 618.19
  Q 234.03 617.71 233.89 617.07
  Q 233.53 615.48 231.93 615.14
  Q 223.21 613.31 215.95 610.22"
/>
<path stroke="#937456" vector-effect="non-scaling-stroke" d="
  M 586.05 430.63
  L 580.16 432.25"
/>
<path stroke="#eccdb9" vector-effect="non-scaling-stroke" d="
  M 580.16 432.25
  Q 575.50 430.28 573.00 430.27
  Q 555.91 430.20 538.76 430.13"
/>
<path stroke="#f6d4b9" vector-effect="non-scaling-stroke" d="
  M 585.98 416.27
  Q 587.94 415.21 591.73 412.72
  Q 593.09 411.82 593.77 410.69
  Q 594.03 410.25 593.95 409.75
  L 591.18 393.75"
/>
<path stroke="#605d9e" vector-effect="non-scaling-stroke" d="
  M 213.59 594.81
  L 202.08 594.81"
/>
<path stroke="#937456" vector-effect="non-scaling-stroke" d="
  M 606.39 386.55
  L 591.18 393.75"
/>
<path stroke="#89929c" vector-effect="non-scaling-stroke" d="
  M 591.18 393.75
  L 588.97 394.64
  Q 588.44 394.86 588.19 394.34
  L 587.18 392.21
  Q 586.78 391.38 586.75 392.30
  L 585.98 416.27"
/>
<path stroke="#937456" vector-effect="non-scaling-stroke" d="
  M 585.98 416.27
  Q 573.60 422.29 559.89 426.93
  A 2.05 2.02 -40.9 0 1 558.34 426.83
  L 550.77 423.18
  Q 550.27 422.94 549.73 423.03
  L 539.14 424.77
  Q 538.55 424.86 538.57 425.47
  L 538.76 430.13"
/>
<path stroke="#808c9c" vector-effect="non-scaling-stroke" d="
  M 538.76 430.13
  Q 531.92 430.06 525.00 430.11
  Q 524.72 430.11 524.70 429.69"
/>
<path stroke="#89929c" vector-effect="non-scaling-stroke" d="
  M 524.70 429.69
  Q 522.90 413.39 522.94 396.30"
/>
<path stroke="#937456" vector-effect="non-scaling-stroke" d="
  M 522.94 396.30
  L 523.13 391.20
  Q 523.15 390.68 522.70 390.41
  L 510.63 382.92"
/>
<path stroke="#33579c" vector-effect="non-scaling-stroke" d="
  M 279.94 579.28
  L 260.03 586.56"
/>
<path stroke="#33579c" vector-effect="non-scaling-stroke" d="
  M 221.21 584.25
  L 198.70 585.05"
/>
<path stroke="#8698bf" vector-effect="non-scaling-stroke" d="
  M 440.38 439.68
  Q 437.33 455.47 440.43 471.71"
/>
<path stroke="#305cbf" vector-effect="non-scaling-stroke" d="
  M 440.43 471.71
  Q 437.76 476.68 437.92 481.25
  C 438.13 487.48 440.00 495.90 441.91 502.82
  Q 448.15 525.39 457.11 546.97"
/>
<path stroke="#23385c" vector-effect="non-scaling-stroke" d="
  M 461.05 571.91
  L 445.24 575.92"
/>
<path stroke="#8698bf" vector-effect="non-scaling-stroke" d="
  M 420.83 502.28
  C 417.57 491.38 413.42 479.15 411.79 469.06
  Q 409.94 457.58 409.73 445.40
  Q 409.70 443.69 409.30 445.36
  Q 407.67 452.10 406.13 459.56
  C 403.13 474.05 402.54 489.24 402.89 504.04"
/>
<path stroke="#23385c" vector-effect="non-scaling-stroke" d="
  M 404.21 588.31
  L 388.43 588.84"
/>
<path stroke="#33579c" vector-effect="non-scaling-stroke" d="
  M 548.33 443.87
  L 526.44 443.64"
/>
<path stroke="#89929c" vector-effect="non-scaling-stroke" d="
  M 525.93 439.84
  Q 526.60 441.70 526.44 443.64"
/>
<path stroke="#96b7ff" vector-effect="non-scaling-stroke" d="
  M 526.44 443.64
  Q 498.22 445.45 470.97 453.44
  Q 457.40 457.42 445.94 465.62
  Q 444.44 466.69 440.43 471.71"
/>
<path stroke="#33579c" vector-effect="non-scaling-stroke" d="
  M 536.07 577.69
  L 515.08 583.87"
/>
<path stroke="#8db0ff" vector-effect="non-scaling-stroke" d="
  M 478.45 492.85
  Q 478.44 492.74 478.51 492.54
  Q 478.61 492.25 478.43 492.01
  L 478.22 491.72"
/>
<path stroke="#305cbf" vector-effect="non-scaling-stroke" d="
  M 478.22 491.72
  Q 476.98 486.15 476.84 480.50
  Q 476.73 475.86 478.65 472.15
  Q 479.13 471.24 478.30 471.85
  C 470.10 477.89 468.52 488.69 472.15 497.73
  Q 474.66 503.98 477.70 507.28"
/>
<path stroke="#33579c" vector-effect="non-scaling-stroke" d="
  M 495.51 583.94
  L 473.79 585.66"
/>
<path stroke="#f6d4b9" vector-effect="non-scaling-stroke" d="
  M 522.94 396.30
  Q 519.15 404.49 515.36 412.25
  Q 513.92 415.21 511.74 417.11
  Q 500.11 427.27 483.88 429.78"
/>
<path stroke="#eccdb9" vector-effect="non-scaling-stroke" d="
  M 483.88 429.78
  L 448.07 430.05"
/>
<path stroke="#8698bf" vector-effect="non-scaling-stroke" d="
  M 381.15 439.78
  Q 379.05 449.01 377.46 458.00
  C 374.71 473.50 375.50 486.74 377.36 504.50
  Q 377.44 505.17 377.18 505.72"
/>
<path stroke="#89929c" vector-effect="non-scaling-stroke" d="
  M 280.04 496.22
  Q 279.83 495.95 279.85 495.75
  Q 280.33 489.73 280.88 483.84
  Q 281.41 478.13 280.55 475.15
  C 276.47 460.97 253.83 453.82 240.99 450.56
  Q 222.15 445.76 202.24 443.85"
/>
<path stroke="#8698bf" vector-effect="non-scaling-stroke" d="
  M 422.48 295.32
  Q 422.21 295.30 422.19 295.00"
/>
<path stroke="#33579c" vector-effect="non-scaling-stroke" d="
  M 578.09 345.22
  C 577.18 353.93 570.21 358.90 562.39 361.23
  A 0.59 0.58 -15.4 0 1 561.66 360.82
  Q 560.40 356.17 557.32 351.53"
/>
<path stroke="#23385c" vector-effect="non-scaling-stroke" d="
  M 578.59 309.08
  Q 573.86 305.68 567.44 304.88
  Q 567.12 304.84 566.87 305.04
  Q 566.75 305.13 566.64 305.23"
/>
<path stroke="#907979" vector-effect="non-scaling-stroke" d="
  M 566.64 305.23
  Q 566.57 304.85 566.37 304.59
  Q 566.19 304.35 565.89 304.29
  Q 555.90 302.36 545.48 300.44
  A 0.83 0.81 -62.3 0 0 544.74 300.68
  Q 544.50 300.93 544.42 301.25"
/>
<path stroke="#23385c" vector-effect="non-scaling-stroke" d="
  M 544.42 301.25
  Q 544.45 300.00 542.01 299.81"
/>
<path stroke="#937456" vector-effect="non-scaling-stroke" d="
  M 544.42 301.25
  Q 543.56 302.88 543.43 304.59
  Q 543.37 305.32 543.98 304.92
  Q 544.52 304.57 545.18 304.74
  Q 545.97 304.94 545.24 305.31
  L 542.56 306.68"
/>
<path stroke="#a098b9" vector-effect="non-scaling-stroke" d="
  M 573.35 344.39
  Q 566.05 349.60 557.32 351.53"
/>
<path stroke="#937456" vector-effect="non-scaling-stroke" d="
  M 557.32 351.53
  Q 557.82 351.78 556.85 351.69"
/>
<path stroke="#a098b9" vector-effect="non-scaling-stroke" d="
  M 556.85 351.69
  Q 555.43 350.99 553.81 350.38
  Q 549.36 348.69 550.34 344.26"
/>
<path stroke="#907979" vector-effect="non-scaling-stroke" d="
  M 542.54 317.97
  L 542.47 317.60"
/>
<path stroke="#f6d4b9" vector-effect="non-scaling-stroke" d="
  M 542.47 317.60
  Q 542.92 317.54 542.83 317.01
  Q 542.15 312.95 542.89 309.00"
/>
<path stroke="#937456" vector-effect="non-scaling-stroke" d="
  M 577.72 310.79
  Q 576.13 307.65 572.71 309.16
  Q 571.39 309.74 569.58 312.97
  Q 569.27 313.52 569.01 312.94
  L 567.10 308.66
  Q 566.87 308.16 566.33 308.07
  Q 558.28 306.87 550.73 308.37
  Q 550.26 308.46 549.81 308.31
  Q 549.41 308.18 549.00 308.26
  Q 546.08 308.82 542.89 309.00"
/>
<path stroke="#89929c" vector-effect="non-scaling-stroke" d="
  M 542.89 309.00
  Q 540.22 308.84 539.98 310.21"
/>
<path stroke="#23385c" vector-effect="non-scaling-stroke" d="
  M 539.98 310.21
  Q 539.85 310.25 539.72 310.30"
/>
<path stroke="#305cbf" vector-effect="non-scaling-stroke" d="
  M 580.95 303.66
  Q 571.78 300.72 566.75 299.60
  Q 555.82 297.18 544.37 294.70"
/>
<path stroke="#33579c" vector-effect="non-scaling-stroke" d="
  M 556.85 351.69
  Q 552.92 355.14 551.21 360.01
  Q 551.04 360.49 550.67 360.15
  C 546.67 356.54 542.90 350.15 546.33 344.98"
/>
<path stroke="#937456" vector-effect="non-scaling-stroke" d="
  M 566.64 305.23
  Q 566.90 306.14 566.74 306.93
  Q 566.63 307.43 566.12 307.36
  Q 558.43 306.27 551.15 307.59
  C 550.34 307.74 549.27 307.35 548.74 307.48
  Q 545.17 308.37 542.76 308.13"
/>
<path stroke="#9bb8fa" vector-effect="non-scaling-stroke" d="
  M 216.22 609.91
  Q 215.98 609.97 215.95 610.22"
/>
<path stroke="#33579c" vector-effect="non-scaling-stroke" d="
  M 215.95 610.22
  Q 211.28 609.65 211.24 607.71"
/>
<path stroke="#8e9497" vector-effect="non-scaling-stroke" d="
  M 300.68 607.94
  L 273.47 620.28
  A 2.04 2.03 -22.9 0 1 270.73 619.17
  Q 269.08 614.98 267.34 610.48
  Q 267.16 610.00 267.32 609.52
  Q 267.47 609.08 267.77 608.60"
/>
<path stroke="#8e9497" vector-effect="non-scaling-stroke" d="
  M 544.64 610.51
  Q 539.75 612.47 535.58 613.64
  Q 532.50 614.49 530.35 615.60
  C 526.60 617.55 523.02 619.68 518.74 619.94
  Q 515.30 620.14 511.44 620.04
  C 510.12 620.00 509.00 619.48 508.45 618.22
  A 1.90 1.90 0.0 0 1 509.73 615.62
  Q 516.26 613.98 521.51 609.69"
/>
<path stroke="#33579c" vector-effect="non-scaling-stroke" d="
  M 524.96 606.46
  Q 526.04 605.79 527.23 605.22
  Q 528.52 604.60 527.40 603.29"
/>
<path stroke="#33579c" vector-effect="non-scaling-stroke" d="
  M 391.62 607.71
  L 390.70 609.19
  Q 390.43 609.61 389.93 609.65
  Q 388.20 609.78 387.22 610.39"
/>
<path stroke="#9bb8fa" vector-effect="non-scaling-stroke" d="
  M 387.22 610.39
  Q 385.71 609.77 385.56 609.60
  Q 384.78 608.71 385.89 609.12
  Q 387.30 609.65 388.49 609.10
  Q 389.35 608.71 388.57 608.17
  Q 386.64 606.83 384.88 608.49
  Q 384.57 608.79 384.30 608.46
  Q 384.01 608.10 384.21 607.45"
/>
<path stroke="#fac0b8" vector-effect="non-scaling-stroke" d="
  M 403.43 607.38
  Q 403.81 607.05 403.54 607.72"
/>
<path stroke="#935f5a" vector-effect="non-scaling-stroke" d="
  M 403.54 607.72
  L 391.62 607.71"
/>
<path stroke="#a083bd" vector-effect="non-scaling-stroke" d="
  M 391.62 607.71
  Q 391.86 607.74 391.71 607.36"
/>
<path stroke="#8e9497" vector-effect="non-scaling-stroke" d="
  M 449.25 607.88
  Q 447.00 608.81 444.34 609.92
  Q 441.03 611.32 438.41 607.64"
/>
<path stroke="#33579c" vector-effect="non-scaling-stroke" d="
  M 450.16 595.86
  L 451.96 594.70
  Q 452.35 594.45 452.14 594.05
  Q 451.73 593.25 451.73 592.55"
/>
<path stroke="#605d9e" vector-effect="non-scaling-stroke" d="
  M 211.33 606.94
  L 211.24 607.71"
/>
<path stroke="#53383a" vector-effect="non-scaling-stroke" d="
  M 211.24 607.71
  L 199.67 607.62"
/>
<path stroke="#937456" vector-effect="non-scaling-stroke" d="
  M 534.41 589.08
  L 523.58 591.65"
/>
<path stroke="#937456" vector-effect="non-scaling-stroke" d="
  M 538.88 599.01
  L 528.65 602.79"
/>
<path stroke="#605d9e" vector-effect="non-scaling-stroke" d="
  M 276.61 590.76
  L 266.42 595.44"
/>
<path stroke="#935f5a" vector-effect="non-scaling-stroke" d="
  M 460.57 578.91
  L 449.43 581.14"
/>
<path stroke="#935f5a" vector-effect="non-scaling-stroke" d="
  M 402.57 594.61
  L 391.32 594.67"
/>
<path stroke="#937456" vector-effect="non-scaling-stroke" d="
  M 493.20 594.93
  L 482.01 594.96"
/>
<path stroke="#7d91bf" vector-effect="non-scaling-stroke" d="
  M 478.22 491.72
  Q 476.64 491.81 475.68 492.72
  Q 475.44 492.95 475.68 493.19
  Q 475.77 493.28 475.96 493.31"
/>
<path stroke="#8698bf" vector-effect="non-scaling-stroke" d="
  M 542.47 317.60
  C 540.16 316.32 539.92 312.62 539.98 310.21"
/>
<path stroke="#937456" vector-effect="non-scaling-stroke" d="
  M 496.33 607.63
  L 485.11 607.58"
/>
<path stroke="#935f5a" vector-effect="non-scaling-stroke" d="
  M 464.03 588.43
  L 453.34 592.37"
/>
<path stroke="#33579c" vector-effect="non-scaling-stroke" d="
  M 284.08 603.89
  Q 282.77 604.20 280.88 604.88
  Q 279.90 605.23 279.75 603.76"
/>
<path stroke="#605d9e" vector-effect="non-scaling-stroke" d="
  M 278.81 602.89
  Q 278.80 602.66 278.98 602.99"
/>
<path stroke="#53383a" vector-effect="non-scaling-stroke" d="
  M 279.08 603.71
  L 268.84 608.33"
/>
<path stroke="#96b7ff" vector-effect="non-scaling-stroke" d="
  M 301.61 365.25
  A 0.57 0.57 0.0 0 0 301.04 364.68
  L 287.62 364.68
  A 0.57 0.57 0.0 0 0 287.05 365.25
  L 287.05 365.59
  A 0.57 0.57 0.0 0 0 287.62 366.16
  L 301.04 366.16
  A 0.57 0.57 0.0 0 0 301.61 365.59
  L 301.61 365.25"
/>
<path stroke="#96b7ff" vector-effect="non-scaling-stroke" d="
  M 313.1806 365.2962
  A 0.54 0.54 0.0 0 0 312.6435 364.7534
  L 307.5435 364.7267
  A 0.54 0.54 0.0 0 0 307.0007 365.2638
  L 306.9994 365.5238
  A 0.54 0.54 0.0 0 0 307.5365 366.0666
  L 312.6365 366.0933
  A 0.54 0.54 0.0 0 0 313.1793 365.5562
  L 313.1806 365.2962"
/>
<path stroke="#808c9c" vector-effect="non-scaling-stroke" d="
  M 385.83 301.38
  C 379.65 297.89 377.72 290.24 380.76 284.03
  Q 380.87 283.81 380.65 283.70
  L 380.64 283.70
  Q 380.42 283.59 380.31 283.81
  Q 377.63 289.25 379.48 294.81
  Q 381.03 299.49 385.63 301.78
  Q 385.81 301.87 385.91 301.68
  L 385.92 301.68
  Q 386.02 301.49 385.83 301.38"
/>
<path stroke="#935f5a" vector-effect="non-scaling-stroke" d="
  M 390.49 272.86
  Q 393.30 272.68 395.43 274.37
  A 0.55 0.55 0.0 0 0 396.20 274.29
  L 396.37 274.08
  Q 396.45 273.98 396.36 273.90
  Q 394.01 271.52 390.62 271.87
  A 0.44 0.44 0.0 0 0 390.23 272.30
  L 390.22 272.60
  Q 390.21 272.88 390.49 272.86"
/>
<path stroke="#935f5a" vector-effect="non-scaling-stroke" d="
  M 393.17 279.01
  Q 393.18 279.81 393.81 280.26
  A 0.81 0.81 0.0 0 0 394.95 280.05
  Q 395.50 279.24 395.02 278.40
  Q 394.29 277.13 392.54 277.31
  Q 392.08 277.35 392.47 277.60
  Q 392.53 277.64 392.59 277.70
  Q 393.15 278.23 393.17 279.01"
/>
<path stroke="#935f5a" vector-effect="non-scaling-stroke" d="
  M 383.35 281.74
  Q 383.68 282.99 384.32 283.74
  A 0.79 0.79 0.0 0 0 385.71 283.27
  Q 385.84 280.94 383.94 280.96
  A 0.62 0.62 0.0 0 0 383.35 281.74"
/>
<path stroke="#c0655c" vector-effect="non-scaling-stroke" d="
  M 400.42 285.22
  Q 400.31 285.17 400.26 285.28
  Q 398.86 288.60 395.70 290.02
  A 0.07 0.06 -24.7 0 0 395.66 290.11
  L 395.77 290.36
  Q 395.88 290.59 396.12 290.49
  Q 399.34 289.13 400.78 285.68
  A 0.26 0.26 0.0 0 0 400.65 285.34
  L 400.42 285.22"
/>
<path stroke="#53383a" vector-effect="non-scaling-stroke" d="
  M 167.92 297.94
  Q 164.85 298.01 163.80 299.69
  Q 162.88 301.19 164.36 300.23
  C 165.86 299.27 166.77 299.36 168.22 298.80
  Q 168.55 298.68 168.36 298.23
  A 0.48 0.47 -11.0 0 0 167.92 297.94"
/>
<path stroke="#53383a" vector-effect="non-scaling-stroke" d="
  M 180.1394 304.0180
  A 1.06 1.06 0.0 0 0 179.0775 302.9599
  L 178.9175 302.9601
  A 1.06 1.06 0.0 0 0 177.8594 304.0220
  L 177.8606 304.7620
  A 1.06 1.06 0.0 0 0 178.9225 305.8201
  L 179.0825 305.8199
  A 1.06 1.06 0.0 0 0 180.1406 304.7580
  L 180.1394 304.0180"
/>
<path stroke="#53383a" vector-effect="non-scaling-stroke" d="
  M 169.1989 307.1382
  A 1.56 1.02 76.7 0 0 169.8326 305.3853
  A 1.56 1.02 76.7 0 0 168.4811 304.1018
  A 1.56 1.02 76.7 0 0 167.8474 305.8547
  A 1.56 1.02 76.7 0 0 169.1989 307.1382"
/>
<path stroke="#53383a" vector-effect="non-scaling-stroke" d="
  M 168.11 315.27
  Q 167.20 314.76 166.30 314.39
  Q 165.14 313.91 166.12 314.69
  Q 168.67 316.77 172.11 316.71
  Q 172.31 316.71 172.32 316.51
  L 172.32 316.50
  Q 172.33 316.27 172.11 316.27
  Q 169.89 316.25 168.11 315.27"
/>
<path stroke="#937456" vector-effect="non-scaling-stroke" d="
  M 555.51 304.54
  L 555.54 304.90
  Q 555.56 305.16 555.82 305.12
  Q 558.12 304.79 560.08 305.75
  Q 560.24 305.83 560.41 305.74
  Q 560.53 305.67 560.58 305.54
  Q 560.65 305.33 560.48 305.20
  Q 558.43 303.58 555.74 304.23
  Q 555.49 304.29 555.51 304.54"
/>
<path stroke="#937456" vector-effect="non-scaling-stroke" d="
  M 558.31 316.74
  Q 554.87 317.36 552.78 315.03
  Q 552.45 314.65 552.48 315.15
  Q 552.50 315.37 552.66 315.53
  Q 555.20 318.06 558.31 316.74"
/>
<path stroke="#937456" vector-effect="non-scaling-stroke" d="
  M 558.31 316.74
  C 561.92 316.53 562.67 311.38 562.06 308.71
  Q 562.02 308.51 561.81 308.55
  L 561.80 308.55
  Q 561.59 308.60 561.64 308.81
  Q 563.00 314.26 558.31 316.74"
/>
<path stroke="#937456" vector-effect="non-scaling-stroke" d="
  M 554.7259 311.7493
  A 1.46 1.02 88.2 0 0 555.6995 310.2580
  A 1.46 1.02 88.2 0 0 554.6341 308.8307
  A 1.46 1.02 88.2 0 0 553.6605 310.3220
  A 1.46 1.02 88.2 0 0 554.7259 311.7493"
/>
<path stroke="#907979" vector-effect="non-scaling-stroke" d="
  M 547.42 313.37
  C 547.50 315.63 546.30 317.11 544.23 317.74
  A 0.08 0.08 0.0 0 0 544.26 317.90
  Q 547.38 317.54 547.77 314.11
  Q 548.00 312.07 547.56 309.79
  Q 547.54 309.69 547.43 309.70
  L 547.43 309.70
  Q 547.37 309.70 547.37 309.77
  Q 547.36 311.51 547.42 313.37"
/>
<path stroke="#937456" vector-effect="non-scaling-stroke" d="
  M 544.7907 312.8243
  A 1.50 0.89 85.0 0 0 545.5466 311.2524
  A 1.50 0.89 85.0 0 0 544.5293 309.8357
  A 1.50 0.89 85.0 0 0 543.7734 311.4076
  A 1.50 0.89 85.0 0 0 544.7907 312.8243"
/>
<path stroke="#937456" vector-effect="non-scaling-stroke" d="
  M 553.90 321.81
  Q 557.45 321.13 559.59 318.35
  Q 559.69 318.21 559.57 318.10
  L 559.38 317.93
  Q 559.37 317.92 559.37 317.93
  Q 557.17 320.64 553.60 321.39
  A 0.03 0.02 -90.0 0 0 553.58 321.42
  L 553.66 321.66
  Q 553.72 321.84 553.90 321.81"
/>
<path stroke="#ecb8bd" vector-effect="non-scaling-stroke" d="
  M 413.62 357.85
  Q 413.63 354.75 413.63 351.65
  Q 413.63 351.60 413.59 351.56
  Q 413.55 351.51 413.54 351.57
  Q 413.53 351.63 413.52 351.67
  Q 413.20 355.27 413.44 358.63
  Q 413.44 358.76 413.51 358.87
  Q 413.61 359.03 413.70 359.19
  Q 413.94 359.63 413.92 359.12
  Q 413.91 358.83 413.79 358.59
  Q 413.62 358.24 413.62 357.85"
/>
<path stroke="#503e5e" vector-effect="non-scaling-stroke" d="
  M 169.8610 389.8119
  A 2.52 0.13 46.3 0 0 168.2140 387.9002
  A 2.52 0.13 46.3 0 0 166.3790 386.1681
  A 2.52 0.13 46.3 0 0 168.0260 388.0798
  A 2.52 0.13 46.3 0 0 169.8610 389.8119"
/>
<path stroke="#808c9c" vector-effect="non-scaling-stroke" d="
  M 169.45 443.85
  Q 167.69 445.68 166.72 448.45
  Q 165.93 450.69 165.94 453.14
  Q 165.96 470.51 165.94 486.85
  Q 165.94 487.40 166.49 487.47
  Q 176.98 488.72 188.63 488.56
  Q 189.17 488.56 189.17 488.02
  Q 189.14 471.48 189.18 455.00
  Q 189.19 448.10 190.97 443.91"
/>
<path stroke="#8db0ff" vector-effect="non-scaling-stroke" d="
  M 190.97 443.91
  L 193.48 439.70
  Q 193.71 439.32 193.26 439.31
  Q 186.09 439.16 179.02 439.29
  Q 173.36 439.39 169.45 443.85"
/>
<path stroke="#33579c" vector-effect="non-scaling-stroke" d="
  M 190.97 443.91
  L 169.45 443.85"
/>
<path stroke="#8db0ff" vector-effect="non-scaling-stroke" d="
  M 559.25 444.03
  Q 559.82 446.19 560.28 448.17
  Q 560.77 450.28 560.78 452.49
  Q 560.80 469.97 560.77 486.53
  Q 560.77 487.08 561.31 486.99
  L 565.39 486.33"
/>
<path stroke="#8db0ff" vector-effect="non-scaling-stroke" d="
  M 584.06 474.38
  Q 584.31 458.82 584.04 452.25
  Q 583.83 446.93 580.57 443.82"
/>
<path stroke="#808c9c" vector-effect="non-scaling-stroke" d="
  M 580.57 443.82
  Q 576.33 439.36 570.74 439.30
  Q 563.94 439.23 557.11 439.38
  Q 556.61 439.39 556.86 439.82
  L 559.25 444.03"
/>
<path stroke="#33579c" vector-effect="non-scaling-stroke" d="
  M 580.57 443.82
  L 559.25 444.03"
/>
</g>
<path fill="#ecf2ff" d="
  M 379.50 276.17
  Q 380.17 276.88 379.45 278.07
  Q 379.21 278.48 379.58 278.78
  Q 380.77 279.73 380.95 281.28
  Q 381.01 281.78 380.70 282.17
  Q 377.60 286.02 378.01 291.25
  Q 378.63 299.03 385.51 302.58
  Q 392.70 306.30 400.82 300.81
  Q 404.87 302.01 401.69 307.19
  Q 401.07 308.19 398.12 309.61
  Q 390.03 312.67 381.73 315.85
  C 380.17 316.45 378.95 317.37 378.43 319.04
  C 376.64 324.82 376.84 331.33 376.95 337.39
  Q 376.96 337.92 377.45 338.12
  L 380.52 339.43
  C 381.42 351.47 381.76 363.24 379.33 375.11
  Q 378.49 379.19 374.18 394.43
  Q 371.15 405.17 367.62 416.17
  Q 365.17 394.49 362.97 373.75
  Q 362.66 370.83 358.80 369.81
  Q 319.58 369.56 279.75 369.81
  C 276.97 369.82 275.24 371.46 275.53 374.16
  Q 278.13 398.64 280.68 422.53
  C 280.95 425.01 283.25 426.76 285.67 426.63
  Q 286.37 426.59 286.03 427.20
  L 284.31 430.30
  L 199.93 430.20
  Q 201.64 415.05 201.64 400.31
  Q 206.47 413.01 210.24 420.00
  C 213.44 425.95 220.42 426.78 225.64 422.79
  C 232.67 417.39 238.25 407.37 241.93 399.50
  C 243.22 396.74 245.86 395.03 247.42 392.63
  Q 251.02 387.09 255.08 382.86
  A 0.51 0.50 46.8 0 0 255.10 382.18
  L 249.93 376.21
  A 0.66 0.65 -32.8 0 0 249.16 376.05
  L 239.89 380.52
  Q 239.26 380.82 239.08 381.49
  L 236.95 389.15
  Q 236.50 390.74 235.41 391.97
  L 222.04 407.02
  A 0.48 0.48 0.0 0 1 221.23 406.87
  L 212.85 383.68
  L 218.75 380.10
  A 0.56 0.56 0.0 0 0 218.98 379.40
  Q 213.77 367.32 205.99 357.07
  C 202.77 352.82 198.15 349.02 193.25 347.58
  Q 187.30 345.84 175.70 344.70
  Q 164.96 342.24 168.05 330.64
  Q 168.18 330.15 168.68 330.06
  Q 182.81 327.61 182.20 312.98
  Q 181.95 306.73 179.73 299.36
  Q 180.69 299.50 181.52 299.93
  Q 181.63 299.98 181.70 299.88
  L 181.88 299.63
  A 0.32 0.32 0.0 0 0 181.79 299.18
  L 180.02 298.03
  Q 179.57 297.73 179.45 297.19
  Q 178.71 293.72 176.52 291.34
  Q 176.15 290.93 176.58 290.58
  Q 177.51 289.81 177.96 288.74
  A 1.27 1.25 2.9 0 1 178.77 288.02
  Q 180.45 287.50 181.36 286.00
  Q 181.68 285.47 182.30 285.52
  L 182.74 285.56
  Q 183.26 285.60 183.29 286.11
  Q 183.37 287.27 184.52 287.65
  A 1.89 1.89 0.0 0 0 186.85 286.56
  Q 187.60 284.70 185.62 283.97
  Q 185.05 283.76 185.26 283.19
  L 185.39 282.82
  Q 185.58 282.29 185.41 281.75
  Q 184.32 278.41 180.80 279.42
  A 1.07 1.05 -77.9 0 0 180.24 279.79
  Q 179.77 280.38 179.08 280.19
  Q 178.54 280.04 178.36 279.47
  Q 176.46 273.46 170.41 274.90
  C 169.62 275.08 168.87 275.84 168.21 276.30
  Q 167.83 276.56 167.47 276.28
  Q 162.84 272.62 158.52 277.03
  Q 158.28 277.28 157.96 277.17
  Q 152.74 275.53 150.08 280.25
  Q 149.84 280.68 149.38 280.52
  Q 144.13 278.64 141.55 283.27
  Q 140.77 284.69 141.05 286.38
  A 1.06 1.05 70.7 0 1 140.53 287.47
  C 136.34 289.82 136.67 295.55 141.17 297.29
  Q 141.66 297.48 141.61 298.00
  Q 140.89 304.96 145.97 311.12
  Q 147.04 315.94 151.80 318.01
  A 1.22 1.21 -85.3 0 1 152.51 318.86
  C 153.94 325.30 156.01 340.32 150.20 345.08
  Q 142.88 345.37 135.23 346.49
  Q 127.32 347.66 123.25 354.54
  Q 118.37 362.79 116.60 372.28
  Q 116.55 372.56 115.93 373.29
  C 95.84 337.97 87.13 297.66 89.79 257.32
  Q 90.26 250.11 91.56 243.55
  C 95.88 221.67 109.19 203.21 133.33 202.65
  C 158.56 202.07 180.39 218.28 198.82 233.76
  Q 213.42 246.02 226.92 257.31
  Q 237.68 266.30 248.99 273.42
  Q 275.94 290.39 307.82 289.85
  Q 323.18 289.59 339.99 286.04
  Q 359.86 281.84 379.50 276.17
  Z
  M 301.61 365.25
  A 0.57 0.57 0.0 0 0 301.04 364.68
  L 287.62 364.68
  A 0.57 0.57 0.0 0 0 287.05 365.25
  L 287.05 365.59
  A 0.57 0.57 0.0 0 0 287.62 366.16
  L 301.04 366.16
  A 0.57 0.57 0.0 0 0 301.61 365.59
  L 301.61 365.25
  Z
  M 313.1806 365.2962
  A 0.54 0.54 0.0 0 0 312.6435 364.7534
  L 307.5435 364.7267
  A 0.54 0.54 0.0 0 0 307.0007 365.2638
  L 306.9994 365.5238
  A 0.54 0.54 0.0 0 0 307.5365 366.0666
  L 312.6365 366.0933
  A 0.54 0.54 0.0 0 0 313.1793 365.5562
  L 313.1806 365.2962
  Z"
/>
<path fill="#ecf2ff" d="
  M 592.46 446.33
  Q 590.56 440.30 586.20 436.18
  L 586.05 430.63
  Q 590.65 429.09 595.12 427.13
  C 600.50 424.79 606.55 420.87 608.53 415.07
  Q 609.44 412.41 609.25 407.34
  Q 608.86 396.86 606.39 386.55
  L 610.11 384.76
  A 0.43 0.42 74.0 0 0 610.35 384.32
  C 609.05 374.81 606.64 364.56 601.82 356.22
  Q 598.23 350.00 591.75 347.29
  Q 588.79 346.04 578.09 345.22
  Q 575.88 343.73 573.35 344.39
  C 568.98 336.25 571.32 327.87 573.31 319.60
  Q 573.40 319.23 573.68 318.97
  C 576.16 316.61 578.67 314.64 577.72 310.79
  L 578.59 309.08
  Q 581.10 307.37 580.95 303.66
  Q 585.46 303.25 585.74 299.75
  C 586.28 293.17 579.80 288.43 574.15 286.05
  Q 566.85 282.97 559.48 284.87
  Q 550.36 287.23 544.37 294.70
  Q 542.06 296.16 542.01 299.81
  L 542.22 305.00
  Q 542.24 305.55 541.78 305.86
  Q 541.26 306.22 540.96 306.73
  Q 540.55 307.46 541.37 307.32
  Q 541.99 307.21 542.56 306.68
  L 542.76 308.13
  L 540.15 308.62
  Q 539.65 308.71 539.54 309.21
  Q 539.43 309.69 539.72 310.30
  C 539.49 312.39 539.68 317.56 542.54 317.97
  Q 543.18 318.55 543.27 319.47
  Q 544.52 332.04 556.70 334.22
  Q 557.25 334.32 557.41 334.87
  C 558.89 340.02 555.21 343.84 550.34 344.26
  Q 548.57 343.52 546.33 344.98
  Q 541.22 345.68 536.06 346.64
  Q 530.70 347.64 527.69 349.19
  Q 523.59 351.30 520.47 354.99
  Q 512.08 364.94 505.76 379.23
  Q 505.55 379.72 505.99 380.00
  L 510.63 382.92
  Q 506.44 393.68 502.15 404.18
  Q 501.31 406.23 500.06 407.51
  C 493.35 414.35 482.61 418.57 471.60 421.01
  C 466.42 422.16 461.30 420.25 456.27 419.34
  A 1.74 1.73 31.5 0 0 454.93 419.66
  L 446.88 425.75
  A 0.69 0.68 -29.5 0 0 446.65 426.56
  L 448.07 430.05
  L 441.87 430.11
  Q 444.32 418.77 446.59 407.86
  C 449.14 395.63 451.06 383.41 445.54 372.67
  Q 446.41 370.56 443.26 367.78
  L 441.49 361.17
  Q 449.04 359.90 453.17 356.70
  Q 458.68 352.43 457.73 346.50
  Q 455.80 334.47 448.09 320.32
  L 449.93 318.14
  Q 450.26 317.76 449.98 317.33
  C 447.13 312.96 443.11 306.96 438.78 304.28
  Q 437.25 303.33 434.44 303.51
  Q 426.12 304.04 417.64 305.34
  Q 413.33 302.17 411.91 294.71
  Q 415.61 296.26 418.82 296.06
  Q 420.33 296.58 421.97 296.18
  C 432.23 294.83 437.74 282.59 430.84 274.38
  Q 426.18 268.84 419.07 269.33
  Q 418.49 269.38 418.32 268.82
  L 417.24 265.35
  Q 440.34 258.62 463.50 252.46
  Q 496.08 243.79 525.57 239.44
  Q 539.25 237.43 553.39 236.63
  Q 563.55 236.06 573.19 236.60
  Q 589.52 237.52 602.89 241.62
  C 636.26 251.85 651.23 278.25 654.26 311.19
  Q 655.98 329.86 653.55 349.65
  Q 648.52 390.69 620.71 421.51
  Q 608.11 435.47 592.46 446.33
  Z"
/>
<path fill="#263238" d="
  M 417.24 265.35
  L 418.32 268.82
  Q 418.49 269.38 419.07 269.33
  Q 426.18 268.84 430.84 274.38
  C 437.74 282.59 432.23 294.83 421.97 296.18
  Q 421.83 295.61 422.48 295.32
  C 430.50 293.96 435.01 285.90 432.30 278.45
  Q 429.77 271.48 421.06 269.90
  Q 420.81 269.85 420.84 270.10
  L 420.87 270.39
  Q 420.87 270.42 420.90 270.43
  Q 426.24 271.77 428.51 276.05
  C 432.60 283.74 429.96 291.14 422.19 295.00
  L 418.82 296.06
  Q 415.61 296.26 411.91 294.71
  Q 412.32 291.01 413.43 286.75
  Q 413.95 284.76 415.06 282.93
  C 416.78 280.12 416.45 275.69 412.20 275.61
  C 410.87 275.59 409.90 276.53 409.31 277.64
  A 0.72 0.72 0.0 0 1 408.47 277.98
  Q 400.77 275.60 394.54 269.08
  A 0.87 0.87 0.0 0 0 393.51 268.91
  Q 387.82 271.85 381.64 272.45
  Q 381.07 272.51 381.04 273.08
  L 380.94 275.43
  A 0.73 0.73 0.0 0 0 382.20 275.95
  Q 382.69 275.43 383.30 275.68
  Q 384.00 275.96 383.39 276.40
  Q 382.81 276.83 382.05 276.95
  A 1.10 1.10 0.0 0 0 381.13 278.17
  Q 382.11 286.06 386.24 293.05
  Q 388.90 297.55 391.97 299.28
  Q 395.80 301.45 400.82 300.81
  Q 392.70 306.30 385.51 302.58
  Q 378.63 299.03 378.01 291.25
  Q 377.60 286.02 380.70 282.17
  Q 381.01 281.78 380.95 281.28
  Q 380.77 279.73 379.58 278.78
  Q 379.21 278.48 379.45 278.07
  Q 380.17 276.88 379.50 276.17
  Q 379.68 274.56 379.30 272.77
  Q 379.19 272.25 378.67 272.11
  C 374.14 270.91 373.98 265.42 375.58 262.06
  C 378.76 255.36 391.59 254.89 397.42 256.20
  Q 399.42 256.66 401.91 256.56
  Q 412.08 256.19 417.24 265.35
  Z
  M 385.83 301.38
  C 379.65 297.89 377.72 290.24 380.76 284.03
  Q 380.87 283.81 380.65 283.70
  L 380.64 283.70
  Q 380.42 283.59 380.31 283.81
  Q 377.63 289.25 379.48 294.81
  Q 381.03 299.49 385.63 301.78
  Q 385.81 301.87 385.91 301.68
  L 385.92 301.68
  Q 386.02 301.49 385.83 301.38
  Z"
/>
<path fill="#ff8b7b" d="
  M 411.91 294.71
  Q 413.33 302.17 417.64 305.34
  Q 413.83 317.71 404.63 326.36
  A 1.17 1.16 -49.3 0 1 403.17 326.48
  Q 394.13 320.35 398.12 309.61
  Q 401.07 308.19 401.69 307.19
  Q 404.87 302.01 400.82 300.81
  Q 395.80 301.45 391.97 299.28
  Q 388.90 297.55 386.24 293.05
  Q 382.11 286.06 381.13 278.17
  A 1.10 1.10 0.0 0 1 382.05 276.95
  Q 382.81 276.83 383.39 276.40
  Q 384.00 275.96 383.30 275.68
  Q 382.69 275.43 382.20 275.95
  A 0.73 0.73 0.0 0 1 380.94 275.43
  L 381.04 273.08
  Q 381.07 272.51 381.64 272.45
  Q 387.82 271.85 393.51 268.91
  A 0.87 0.87 0.0 0 1 394.54 269.08
  Q 400.77 275.60 408.47 277.98
  A 0.72 0.72 0.0 0 0 409.31 277.64
  C 409.90 276.53 410.87 275.59 412.20 275.61
  C 416.45 275.69 416.78 280.12 415.06 282.93
  Q 413.95 284.76 413.43 286.75
  Q 412.32 291.01 411.91 294.71
  Z
  M 390.49 272.86
  Q 393.30 272.68 395.43 274.37
  A 0.55 0.55 0.0 0 0 396.20 274.29
  L 396.37 274.08
  Q 396.45 273.98 396.36 273.90
  Q 394.01 271.52 390.62 271.87
  A 0.44 0.44 0.0 0 0 390.23 272.30
  L 390.22 272.60
  Q 390.21 272.88 390.49 272.86
  Z
  M 393.17 279.01
  Q 393.18 279.81 393.81 280.26
  A 0.81 0.81 0.0 0 0 394.95 280.05
  Q 395.50 279.24 395.02 278.40
  Q 394.29 277.13 392.54 277.31
  Q 392.08 277.35 392.47 277.60
  Q 392.53 277.64 392.59 277.70
  Q 393.15 278.23 393.17 279.01
  Z
  M 383.35 281.74
  Q 383.68 282.99 384.32 283.74
  A 0.79 0.79 0.0 0 0 385.71 283.27
  Q 385.84 280.94 383.94 280.96
  A 0.62 0.62 0.0 0 0 383.35 281.74
  Z
  M 400.42 285.22
  Q 400.31 285.17 400.26 285.28
  Q 398.86 288.60 395.70 290.02
  A 0.07 0.06 -24.7 0 0 395.66 290.11
  L 395.77 290.36
  Q 395.88 290.59 396.12 290.49
  Q 399.34 289.13 400.78 285.68
  A 0.26 0.26 0.0 0 0 400.65 285.34
  L 400.42 285.22
  Z"
/>
<path fill="#ecf2ff" d="
  M 422.48 295.32
  Q 422.21 295.30 422.19 295.00
  C 429.96 291.14 432.60 283.74 428.51 276.05
  Q 426.24 271.77 420.90 270.43
  Q 420.87 270.42 420.87 270.39
  L 420.84 270.10
  Q 420.81 269.85 421.06 269.90
  Q 429.77 271.48 432.30 278.45
  C 435.01 285.90 430.50 293.96 422.48 295.32
  Z"
/>
<path fill="#263238" d="
  M 390.49 272.86
  Q 390.21 272.88 390.22 272.60
  L 390.23 272.30
  A 0.44 0.44 0.0 0 1 390.62 271.87
  Q 394.01 271.52 396.36 273.90
  Q 396.45 273.98 396.37 274.08
  L 396.20 274.29
  A 0.55 0.55 0.0 0 1 395.43 274.37
  Q 393.30 272.68 390.49 272.86
  Z"
/>
<path fill="#263238" d="
  M 179.73 299.36
  L 177.31 298.68
  Q 176.39 298.42 177.29 298.09
  L 177.85 297.89
  Q 178.42 297.69 178.22 297.12
  Q 176.31 291.91 171.76 290.75
  Q 171.19 290.61 170.66 290.87
  Q 168.43 291.99 166.28 290.81
  Q 165.70 290.49 165.23 290.94
  Q 163.93 292.20 162.05 292.42
  A 1.31 1.30 -79.4 0 0 161.05 293.11
  Q 160.30 294.48 158.88 295.27
  A 1.43 1.42 81.8 0 0 158.19 296.20
  Q 157.73 298.34 155.89 299.68
  A 0.75 0.74 -24.5 0 0 155.60 300.45
  Q 156.80 305.79 154.99 310.84
  A 0.38 0.38 0.0 0 1 154.33 310.95
  Q 153.13 309.37 151.15 308.67
  Q 148.21 307.64 145.97 311.12
  Q 140.89 304.96 141.61 298.00
  Q 141.66 297.48 141.17 297.29
  C 136.67 295.55 136.34 289.82 140.53 287.47
  A 1.06 1.05 70.7 0 0 141.05 286.38
  Q 140.77 284.69 141.55 283.27
  Q 144.13 278.64 149.38 280.52
  Q 149.84 280.68 150.08 280.25
  Q 152.74 275.53 157.96 277.17
  Q 158.28 277.28 158.52 277.03
  Q 162.84 272.62 167.47 276.28
  Q 167.83 276.56 168.21 276.30
  C 168.87 275.84 169.62 275.08 170.41 274.90
  Q 176.46 273.46 178.36 279.47
  Q 178.54 280.04 179.08 280.19
  Q 179.77 280.38 180.24 279.79
  A 1.07 1.05 -77.9 0 1 180.80 279.42
  Q 184.32 278.41 185.41 281.75
  Q 185.58 282.29 185.39 282.82
  L 185.26 283.19
  Q 185.05 283.76 185.62 283.97
  Q 187.60 284.70 186.85 286.56
  A 1.89 1.89 0.0 0 1 184.52 287.65
  Q 183.37 287.27 183.29 286.11
  Q 183.26 285.60 182.74 285.56
  L 182.30 285.52
  Q 181.68 285.47 181.36 286.00
  Q 180.45 287.50 178.77 288.02
  A 1.27 1.25 2.9 0 0 177.96 288.74
  Q 177.51 289.81 176.58 290.58
  Q 176.15 290.93 176.52 291.34
  Q 178.71 293.72 179.45 297.19
  Q 179.57 297.73 180.02 298.03
  L 181.79 299.18
  A 0.32 0.32 0.0 0 1 181.88 299.63
  L 181.70 299.88
  Q 181.63 299.98 181.52 299.93
  Q 180.69 299.50 179.73 299.36
  Z"
/>
<path fill="#263238" d="
  M 392.59 277.70
  Q 392.53 277.64 392.47 277.60
  Q 392.08 277.35 392.54 277.31
  Q 394.29 277.13 395.02 278.40
  Q 395.50 279.24 394.95 280.05
  A 0.81 0.81 0.0 0 1 393.81 280.26
  Q 393.18 279.81 393.17 279.01
  Q 393.15 278.23 392.59 277.70
  Z"
/>
<path fill="#263238" d="
  M 383.35 281.74
  A 0.62 0.62 0.0 0 1 383.94 280.96
  Q 385.84 280.94 385.71 283.27
  A 0.79 0.79 0.0 0 1 384.32 283.74
  Q 383.68 282.99 383.35 281.74
  Z"
/>
<path fill="#d9e5ff" d="
  M 380.76 284.03
  C 377.72 290.24 379.65 297.89 385.83 301.38
  Q 386.02 301.49 385.92 301.68
  L 385.91 301.68
  Q 385.81 301.87 385.63 301.78
  Q 381.03 299.49 379.48 294.81
  Q 377.63 289.25 380.31 283.81
  Q 380.42 283.59 380.64 283.70
  L 380.65 283.70
  Q 380.87 283.81 380.76 284.03
  Z"
/>
<path fill="#407bff" d="
  M 580.95 303.66
  Q 571.78 300.72 566.75 299.60
  Q 555.82 297.18 544.37 294.70
  Q 550.36 287.23 559.48 284.87
  Q 566.85 282.97 574.15 286.05
  C 579.80 288.43 586.28 293.17 585.74 299.75
  Q 585.46 303.25 580.95 303.66
  Z"
/>
<path fill="#803e3c" d="
  M 400.78 285.68
  Q 399.34 289.13 396.12 290.49
  Q 395.88 290.59 395.77 290.36
  L 395.66 290.11
  A 0.07 0.06 -24.7 0 1 395.70 290.02
  Q 398.86 288.60 400.26 285.28
  Q 400.31 285.17 400.42 285.22
  L 400.65 285.34
  A 0.26 0.26 0.0 0 1 400.78 285.68
  Z"
/>
<path fill="#803e3c" d="
  M 179.73 299.36
  Q 181.95 306.73 182.20 312.98
  Q 182.81 327.61 168.68 330.06
  Q 168.18 330.15 168.05 330.64
  Q 164.96 342.24 175.70 344.70
  C 178.71 348.47 177.34 350.53 173.00 351.29
  Q 159.18 353.71 150.20 345.08
  C 156.01 340.32 153.94 325.30 152.51 318.86
  A 1.22 1.21 -85.3 0 0 151.80 318.01
  Q 147.04 315.94 145.97 311.12
  Q 148.21 307.64 151.15 308.67
  Q 153.13 309.37 154.33 310.95
  A 0.38 0.38 0.0 0 0 154.99 310.84
  Q 156.80 305.79 155.60 300.45
  A 0.75 0.74 -24.5 0 1 155.89 299.68
  Q 157.73 298.34 158.19 296.20
  A 1.43 1.42 81.8 0 1 158.88 295.27
  Q 160.30 294.48 161.05 293.11
  A 1.31 1.30 -79.4 0 1 162.05 292.42
  Q 163.93 292.20 165.23 290.94
  Q 165.70 290.49 166.28 290.81
  Q 168.43 291.99 170.66 290.87
  Q 171.19 290.61 171.76 290.75
  Q 176.31 291.91 178.22 297.12
  Q 178.42 297.69 177.85 297.89
  L 177.29 298.09
  Q 176.39 298.42 177.31 298.68
  L 179.73 299.36
  Z
  M 167.92 297.94
  Q 164.85 298.01 163.80 299.69
  Q 162.88 301.19 164.36 300.23
  C 165.86 299.27 166.77 299.36 168.22 298.80
  Q 168.55 298.68 168.36 298.23
  A 0.48 0.47 -11.0 0 0 167.92 297.94
  Z
  M 180.1394 304.0180
  A 1.06 1.06 0.0 0 0 179.0775 302.9599
  L 178.9175 302.9601
  A 1.06 1.06 0.0 0 0 177.8594 304.0220
  L 177.8606 304.7620
  A 1.06 1.06 0.0 0 0 178.9225 305.8201
  L 179.0825 305.8199
  A 1.06 1.06 0.0 0 0 180.1406 304.7580
  L 180.1394 304.0180
  Z
  M 169.1989 307.1382
  A 1.56 1.02 76.7 0 0 169.8326 305.3853
  A 1.56 1.02 76.7 0 0 168.4811 304.1018
  A 1.56 1.02 76.7 0 0 167.8474 305.8547
  A 1.56 1.02 76.7 0 0 169.1989 307.1382
  Z
  M 168.11 315.27
  Q 167.20 314.76 166.30 314.39
  Q 165.14 313.91 166.12 314.69
  Q 168.67 316.77 172.11 316.71
  Q 172.31 316.71 172.32 316.51
  L 172.32 316.50
  Q 172.33 316.27 172.11 316.27
  Q 169.89 316.25 168.11 315.27
  Z"
/>
<path fill="#203d7f" d="
  M 544.37 294.70
  Q 555.82 297.18 566.75 299.60
  Q 571.78 300.72 580.95 303.66
  Q 581.10 307.37 578.59 309.08
  Q 573.86 305.68 567.44 304.88
  Q 567.12 304.84 566.87 305.04
  Q 566.75 305.13 566.64 305.23
  Q 566.57 304.85 566.37 304.59
  Q 566.19 304.35 565.89 304.29
  Q 555.90 302.36 545.48 300.44
  A 0.83 0.81 -62.3 0 0 544.74 300.68
  Q 544.50 300.93 544.42 301.25
  Q 544.45 300.00 542.01 299.81
  Q 542.06 296.16 544.37 294.70
  Z"
/>
<path fill="#203d7f" d="
  M 422.19 295.00
  Q 422.21 295.30 422.48 295.32
  Q 421.83 295.61 421.97 296.18
  Q 420.33 296.58 418.82 296.06
  L 422.19 295.00
  Z"
/>
<path fill="#263238" d="
  M 167.92 297.94
  A 0.48 0.47 -11.0 0 1 168.36 298.23
  Q 168.55 298.68 168.22 298.80
  C 166.77 299.36 165.86 299.27 164.36 300.23
  Q 162.88 301.19 163.80 299.69
  Q 164.85 298.01 167.92 297.94
  Z"
/>
<path fill="#263238" d="
  M 542.01 299.81
  Q 544.45 300.00 544.42 301.25
  Q 543.56 302.88 543.43 304.59
  Q 543.37 305.32 543.98 304.92
  Q 544.52 304.57 545.18 304.74
  Q 545.97 304.94 545.24 305.31
  L 542.56 306.68
  Q 541.99 307.21 541.37 307.32
  Q 540.55 307.46 540.96 306.73
  Q 541.26 306.22 541.78 305.86
  Q 542.24 305.55 542.22 305.00
  L 542.01 299.81
  Z"
/>
<path fill="#ffb573" d="
  M 566.64 305.23
  Q 566.90 306.14 566.74 306.93
  Q 566.63 307.43 566.12 307.36
  Q 558.43 306.27 551.15 307.59
  C 550.34 307.74 549.27 307.35 548.74 307.48
  Q 545.17 308.37 542.76 308.13
  L 542.56 306.68
  L 545.24 305.31
  Q 545.97 304.94 545.18 304.74
  Q 544.52 304.57 543.98 304.92
  Q 543.37 305.32 543.43 304.59
  Q 543.56 302.88 544.42 301.25
  Q 544.50 300.93 544.74 300.68
  A 0.83 0.81 -62.3 0 1 545.48 300.44
  Q 555.90 302.36 565.89 304.29
  Q 566.19 304.35 566.37 304.59
  Q 566.57 304.85 566.64 305.23
  Z
  M 555.51 304.54
  L 555.54 304.90
  Q 555.56 305.16 555.82 305.12
  Q 558.12 304.79 560.08 305.75
  Q 560.24 305.83 560.41 305.74
  Q 560.53 305.67 560.58 305.54
  Q 560.65 305.33 560.48 305.20
  Q 558.43 303.58 555.74 304.23
  Q 555.49 304.29 555.51 304.54
  Z"
/>
<rect fill="#263238" x="-1.14" y="-1.43" transform="translate(179.00,304.39) rotate(-0.1)" width="2.28" height="2.86" rx="1.06"/>
<path fill="#407bff" d="
  M 448.09 320.32
  L 439.99 329.03
  Q 438.38 330.36 437.36 332.47
  Q 434.30 330.29 432.13 327.12
  Q 431.37 326.01 430.77 324.81
  Q 430.63 324.54 430.59 324.84
  Q 430.56 324.99 430.63 325.13
  Q 433.22 330.75 437.59 335.27
  L 439.63 352.70
  Q 430.99 355.09 422.26 356.12
  Q 420.93 356.28 419.97 355.32
  Q 417.19 352.57 414.23 349.82
  A 1.85 1.83 -20.8 0 0 413.17 349.35
  L 404.95 348.48
  Q 404.60 348.44 404.60 348.80
  L 404.51 357.68
  Q 404.51 357.92 404.73 357.98
  Q 411.32 359.92 416.57 362.28
  C 419.85 363.76 422.33 362.31 425.58 362.35
  Q 433.59 362.45 441.49 361.17
  L 443.26 367.78
  L 439.03 368.86
  Q 437.54 368.53 436.78 369.42
  L 421.27 372.93
  Q 419.97 372.42 419.10 373.51
  L 403.71 376.94
  Q 402.36 376.46 401.47 377.41
  Q 399.84 378.06 398.86 377.81
  L 392.15 360.76
  L 384.80 341.01
  Q 385.01 340.40 384.86 340.00
  Q 383.09 335.16 381.89 330.14
  Q 381.88 330.12 381.90 330.12
  Q 381.95 330.11 381.85 330.13
  Q 381.81 330.14 381.82 330.17
  Q 382.67 334.74 382.02 339.35
  Q 381.99 339.54 381.80 339.58
  Q 381.67 339.61 381.54 339.58
  L 380.52 339.43
  L 377.45 338.12
  Q 376.96 337.92 376.95 337.39
  C 376.84 331.33 376.64 324.82 378.43 319.04
  C 378.95 317.37 380.17 316.45 381.73 315.85
  Q 390.03 312.67 398.12 309.61
  Q 394.13 320.35 403.17 326.48
  A 1.17 1.16 -49.3 0 0 404.63 326.36
  Q 413.83 317.71 417.64 305.34
  Q 426.12 304.04 434.44 303.51
  Q 437.25 303.33 438.78 304.28
  C 443.11 306.96 447.13 312.96 449.98 317.33
  Q 450.26 317.76 449.93 318.14
  L 448.09 320.32
  Z"
/>
<ellipse fill="#263238" cx="0.00" cy="0.00" transform="translate(168.84,305.62) rotate(76.7)" rx="1.56" ry="1.02"/>
<path fill="#263238" d="
  M 555.74 304.23
  Q 558.43 303.58 560.48 305.20
  Q 560.65 305.33 560.58 305.54
  Q 560.53 305.67 560.41 305.74
  Q 560.24 305.83 560.08 305.75
  Q 558.12 304.79 555.82 305.12
  Q 555.56 305.16 555.54 304.90
  L 555.51 304.54
  Q 555.49 304.29 555.74 304.23
  Z"
/>
<path fill="#263238" d="
  M 578.59 309.08
  L 577.72 310.79
  Q 576.13 307.65 572.71 309.16
  Q 571.39 309.74 569.58 312.97
  Q 569.27 313.52 569.01 312.94
  L 567.10 308.66
  Q 566.87 308.16 566.33 308.07
  Q 558.28 306.87 550.73 308.37
  Q 550.26 308.46 549.81 308.31
  Q 549.41 308.18 549.00 308.26
  Q 546.08 308.82 542.89 309.00
  Q 540.22 308.84 539.98 310.21
  Q 539.85 310.25 539.72 310.30
  Q 539.43 309.69 539.54 309.21
  Q 539.65 308.71 540.15 308.62
  L 542.76 308.13
  Q 545.17 308.37 548.74 307.48
  C 549.27 307.35 550.34 307.74 551.15 307.59
  Q 558.43 306.27 566.12 307.36
  Q 566.63 307.43 566.74 306.93
  Q 566.90 306.14 566.64 305.23
  Q 566.75 305.13 566.87 305.04
  Q 567.12 304.84 567.44 304.88
  Q 573.86 305.68 578.59 309.08
  Z"
/>
<path fill="#ffb573" d="
  M 577.72 310.79
  C 578.67 314.64 576.16 316.61 573.68 318.97
  Q 573.40 319.23 573.31 319.60
  C 571.32 327.87 568.98 336.25 573.35 344.39
  Q 566.05 349.60 557.32 351.53
  Q 557.82 351.78 556.85 351.69
  Q 555.43 350.99 553.81 350.38
  Q 549.36 348.69 550.34 344.26
  C 555.21 343.84 558.89 340.02 557.41 334.87
  Q 557.25 334.32 556.70 334.22
  Q 544.52 332.04 543.27 319.47
  Q 543.18 318.55 542.54 317.97
  L 542.47 317.60
  Q 542.92 317.54 542.83 317.01
  Q 542.15 312.95 542.89 309.00
  Q 546.08 308.82 549.00 308.26
  Q 549.41 308.18 549.81 308.31
  Q 550.26 308.46 550.73 308.37
  Q 558.28 306.87 566.33 308.07
  Q 566.87 308.16 567.10 308.66
  L 569.01 312.94
  Q 569.27 313.52 569.58 312.97
  Q 571.39 309.74 572.71 309.16
  Q 576.13 307.65 577.72 310.79
  Z
  M 558.31 316.74
  Q 554.87 317.36 552.78 315.03
  Q 552.45 314.65 552.48 315.15
  Q 552.50 315.37 552.66 315.53
  Q 555.20 318.06 558.31 316.74
  C 561.92 316.53 562.67 311.38 562.06 308.71
  Q 562.02 308.51 561.81 308.55
  L 561.80 308.55
  Q 561.59 308.60 561.64 308.81
  Q 563.00 314.26 558.31 316.74
  Z
  M 554.7259 311.7493
  A 1.46 1.02 88.2 0 0 555.6995 310.2580
  A 1.46 1.02 88.2 0 0 554.6341 308.8307
  A 1.46 1.02 88.2 0 0 553.6605 310.3220
  A 1.46 1.02 88.2 0 0 554.7259 311.7493
  Z
  M 547.42 313.37
  C 547.50 315.63 546.30 317.11 544.23 317.74
  A 0.08 0.08 0.0 0 0 544.26 317.90
  Q 547.38 317.54 547.77 314.11
  Q 548.00 312.07 547.56 309.79
  Q 547.54 309.69 547.43 309.70
  L 547.43 309.70
  Q 547.37 309.70 547.37 309.77
  Q 547.36 311.51 547.42 313.37
  Z
  M 544.7907 312.8243
  A 1.50 0.89 85.0 0 0 545.5466 311.2524
  A 1.50 0.89 85.0 0 0 544.5293 309.8357
  A 1.50 0.89 85.0 0 0 543.7734 311.4076
  A 1.50 0.89 85.0 0 0 544.7907 312.8243
  Z
  M 553.90 321.81
  Q 557.45 321.13 559.59 318.35
  Q 559.69 318.21 559.57 318.10
  L 559.38 317.93
  Q 559.37 317.92 559.37 317.93
  Q 557.17 320.64 553.60 321.39
  A 0.03 0.02 -90.0 0 0 553.58 321.42
  L 553.66 321.66
  Q 553.72 321.84 553.90 321.81
  Z"
/>
<path fill="#263238" d="
  M 558.31 316.74
  Q 563.00 314.26 561.64 308.81
  Q 561.59 308.60 561.80 308.55
  L 561.81 308.55
  Q 562.02 308.51 562.06 308.71
  C 562.67 311.38 561.92 316.53 558.31 316.74
  Z"
/>
<ellipse fill="#263238" cx="0.00" cy="0.00" transform="translate(554.68,310.29) rotate(88.2)" rx="1.46" ry="1.02"/>
<path fill="#ecf2ff" d="
  M 542.89 309.00
  Q 542.15 312.95 542.83 317.01
  Q 542.92 317.54 542.47 317.60
  C 540.16 316.32 539.92 312.62 539.98 310.21
  Q 540.22 308.84 542.89 309.00
  Z"
/>
<path fill="#203d7f" d="
  M 547.42 313.37
  Q 547.36 311.51 547.37 309.77
  Q 547.37 309.70 547.43 309.70
  L 547.43 309.70
  Q 547.54 309.69 547.56 309.79
  Q 548.00 312.07 547.77 314.11
  Q 547.38 317.54 544.26 317.90
  A 0.08 0.08 0.0 0 1 544.23 317.74
  C 546.30 317.11 547.50 315.63 547.42 313.37
  Z"
/>
<ellipse fill="#263238" cx="0.00" cy="0.00" transform="translate(544.66,311.33) rotate(85.0)" rx="1.50" ry="0.89"/>
<path fill="#203d7f" d="
  M 539.72 310.30
  Q 539.85 310.25 539.98 310.21
  C 539.92 312.62 540.16 316.32 542.47 317.60
  L 542.54 317.97
  C 539.68 317.56 539.49 312.39 539.72 310.30
  Z"
/>
<path fill="#263238" d="
  M 168.11 315.27
  Q 169.89 316.25 172.11 316.27
  Q 172.33 316.27 172.32 316.50
  L 172.32 316.51
  Q 172.31 316.71 172.11 316.71
  Q 168.67 316.77 166.12 314.69
  Q 165.14 313.91 166.30 314.39
  Q 167.20 314.76 168.11 315.27
  Z"
/>
<path fill="#263238" d="
  M 558.31 316.74
  Q 555.20 318.06 552.66 315.53
  Q 552.50 315.37 552.48 315.15
  Q 552.45 314.65 552.78 315.03
  Q 554.87 317.36 558.31 316.74
  Z"
/>
<path fill="#263238" d="
  M 553.90 321.81
  Q 553.72 321.84 553.66 321.66
  L 553.58 321.42
  A 0.03 0.02 90.0 0 1 553.60 321.39
  Q 557.17 320.64 559.37 317.93
  Q 559.37 317.92 559.38 317.93
  L 559.57 318.10
  Q 559.69 318.21 559.59 318.35
  Q 557.45 321.13 553.90 321.81
  Z"
/>
<path fill="#ff8b7b" d="
  M 448.09 320.32
  Q 455.80 334.47 457.73 346.50
  Q 458.68 352.43 453.17 356.70
  Q 449.04 359.90 441.49 361.17
  Q 433.59 362.45 425.58 362.35
  C 422.33 362.31 419.85 363.76 416.57 362.28
  Q 411.32 359.92 404.73 357.98
  Q 404.51 357.92 404.51 357.68
  L 404.60 348.80
  Q 404.60 348.44 404.95 348.48
  L 413.17 349.35
  A 1.85 1.83 -20.8 0 1 414.23 349.82
  Q 417.19 352.57 419.97 355.32
  Q 420.93 356.28 422.26 356.12
  Q 430.99 355.09 439.63 352.70
  L 446.97 349.21
  A 1.24 1.23 -21.4 0 0 447.62 347.74
  Q 444.65 338.19 439.99 329.03
  L 448.09 320.32
  Z
  M 413.62 357.85
  Q 413.63 354.75 413.63 351.65
  Q 413.63 351.60 413.59 351.56
  Q 413.55 351.51 413.54 351.57
  Q 413.53 351.63 413.52 351.67
  Q 413.20 355.27 413.44 358.63
  Q 413.44 358.76 413.51 358.87
  Q 413.61 359.03 413.70 359.19
  Q 413.94 359.63 413.92 359.12
  Q 413.91 358.83 413.79 358.59
  Q 413.62 358.24 413.62 357.85
  Z"
/>
<path fill="#203d7f" d="
  M 437.36 332.47
  Q 437.68 333.25 437.59 335.27
  Q 433.22 330.75 430.63 325.13
  Q 430.56 324.99 430.59 324.84
  Q 430.63 324.54 430.77 324.81
  Q 431.37 326.01 432.13 327.12
  Q 434.30 330.29 437.36 332.47
  Z"
/>
<path fill="#ecf2ff" d="
  M 439.99 329.03
  Q 444.65 338.19 447.62 347.74
  A 1.24 1.23 -21.4 0 1 446.97 349.21
  L 439.63 352.70
  L 437.59 335.27
  Q 437.68 333.25 437.36 332.47
  Q 438.38 330.36 439.99 329.03
  Z"
/>
<path fill="#203d7f" d="
  M 384.80 341.01
  L 381.54 339.58
  Q 381.67 339.61 381.80 339.58
  Q 381.99 339.54 382.02 339.35
  Q 382.67 334.74 381.82 330.17
  Q 381.81 330.14 381.85 330.13
  Q 381.95 330.11 381.90 330.12
  Q 381.88 330.12 381.89 330.14
  Q 383.09 335.16 384.86 340.00
  Q 385.01 340.40 384.80 341.01
  Z"
/>
<path fill="#ff8b7b" d="
  M 380.52 339.43
  L 381.54 339.58
  L 384.80 341.01
  L 392.15 360.76
  Q 390.64 374.66 385.32 389.30
  Q 377.50 410.81 369.95 426.27
  L 367.50 426.16
  Q 366.79 426.13 367.20 425.55
  L 367.98 424.43
  Q 368.30 423.98 368.25 423.43
  L 367.62 416.17
  Q 371.15 405.17 374.18 394.43
  Q 378.49 379.19 379.33 375.11
  C 381.76 363.24 381.42 351.47 380.52 339.43
  Z"
/>
<path fill="#407bff" d="
  M 550.34 344.26
  Q 549.36 348.69 553.81 350.38
  Q 555.43 350.99 556.85 351.69
  Q 552.92 355.14 551.21 360.01
  Q 551.04 360.49 550.67 360.15
  C 546.67 356.54 542.90 350.15 546.33 344.98
  Q 548.57 343.52 550.34 344.26
  Z"
/>
<path fill="#407bff" d="
  M 578.09 345.22
  C 577.18 353.93 570.21 358.90 562.39 361.23
  A 0.59 0.58 -15.4 0 1 561.66 360.82
  Q 560.40 356.17 557.32 351.53
  Q 566.05 349.60 573.35 344.39
  Q 575.88 343.73 578.09 345.22
  Z"
/>
<path fill="#407bff" d="
  M 175.70 344.70
  Q 187.30 345.84 193.25 347.58
  C 198.15 349.02 202.77 352.82 205.99 357.07
  Q 213.77 367.32 218.98 379.40
  A 0.56 0.56 0.0 0 1 218.75 380.10
  L 212.85 383.68
  L 206.19 387.65
  Q 204.53 377.85 199.60 369.75
  A 0.14 0.14 0.0 0 0 199.34 369.85
  Q 200.89 379.46 201.42 389.41
  Q 201.44 389.69 201.63 389.89
  Q 201.77 390.03 201.79 390.24
  Q 201.37 390.88 201.40 391.75
  Q 201.56 396.00 201.64 400.31
  Q 201.64 415.05 199.93 430.20
  Q 191.94 430.25 183.73 430.28
  Q 175.31 430.30 171.44 431.74
  Q 162.97 434.90 158.68 443.88
  L 138.17 443.84
  L 138.72 417.78
  C 149.57 412.17 158.94 405.10 168.61 397.85
  Q 169.96 396.84 171.28 394.29
  C 173.01 390.95 176.05 388.05 178.56 385.21
  A 0.76 0.74 50.6 0 0 178.64 384.32
  L 174.69 377.78
  A 0.64 0.63 -31.3 0 0 173.80 377.57
  L 164.76 383.17
  A 2.40 2.38 85.7 0 0 163.78 384.32
  L 160.58 392.11
  A 2.25 2.24 88.6 0 1 159.48 393.27
  L 138.62 402.96
  Q 138.07 399.01 138.63 396.90
  Q 141.69 389.00 142.69 381.12
  A 0.08 0.08 0.0 0 0 142.53 381.08
  L 138.05 391.97
  Q 137.47 391.91 136.73 394.26
  A 0.78 0.78 0.0 0 1 135.65 394.73
  L 133.38 393.66
  L 118.35 386.54
  L 114.80 384.76
  Q 114.36 384.53 114.43 384.04
  L 115.93 373.29
  Q 116.55 372.56 116.60 372.28
  Q 118.37 362.79 123.25 354.54
  Q 127.32 347.66 135.23 346.49
  Q 142.88 345.37 150.20 345.08
  Q 159.18 353.71 173.00 351.29
  C 177.34 350.53 178.71 348.47 175.70 344.70
  Z"
/>
<path fill="#263238" d="
  M 546.33 344.98
  C 542.90 350.15 546.67 356.54 550.67 360.15
  Q 551.04 360.49 551.21 360.01
  Q 552.92 355.14 556.85 351.69
  Q 557.82 351.78 557.32 351.53
  Q 560.40 356.17 561.66 360.82
  A 0.59 0.58 -15.4 0 0 562.39 361.23
  C 570.21 358.90 577.18 353.93 578.09 345.22
  Q 588.79 346.04 591.75 347.29
  Q 598.23 350.00 601.82 356.22
  C 606.64 364.56 609.05 374.81 610.35 384.32
  A 0.43 0.42 74.0 0 1 610.11 384.76
  L 606.39 386.55
  L 591.18 393.75
  L 588.97 394.64
  Q 588.44 394.86 588.19 394.34
  L 587.18 392.21
  Q 586.78 391.38 586.75 392.30
  L 585.98 416.27
  Q 573.60 422.29 559.89 426.93
  A 2.05 2.02 -40.9 0 1 558.34 426.83
  L 550.77 423.18
  Q 550.27 422.94 549.73 423.03
  L 539.14 424.77
  Q 538.55 424.86 538.57 425.47
  L 538.76 430.13
  Q 531.92 430.06 525.00 430.11
  Q 524.72 430.11 524.70 429.69
  Q 522.90 413.39 522.94 396.30
  L 523.13 391.20
  Q 523.15 390.68 522.70 390.41
  L 510.63 382.92
  L 505.99 380.00
  Q 505.55 379.72 505.76 379.23
  Q 512.08 364.94 520.47 354.99
  Q 523.59 351.30 527.69 349.19
  Q 530.70 347.64 536.06 346.64
  Q 541.22 345.68 546.33 344.98
  Z"
/>
<path fill="#d9e5ff" d="
  M 413.79 358.59
  Q 413.91 358.83 413.92 359.12
  Q 413.94 359.63 413.70 359.19
  Q 413.61 359.03 413.51 358.87
  Q 413.44 358.76 413.44 358.63
  Q 413.20 355.27 413.52 351.67
  Q 413.53 351.63 413.54 351.57
  Q 413.55 351.51 413.59 351.56
  Q 413.63 351.60 413.63 351.65
  Q 413.63 354.75 413.62 357.85
  Q 413.62 358.24 413.79 358.59
  Z"
/>
<path fill="#ecf2ff" d="
  M 392.15 360.76
  L 398.86 377.81
  Q 398.44 377.77 398.24 378.08
  Q 398.11 378.30 398.20 378.69
  Q 398.72 380.85 399.64 382.73
  Q 399.35 382.54 399.18 382.99
  Q 391.29 404.02 385.00 425.67
  Q 384.86 426.15 384.36 426.16
  L 369.95 426.27
  Q 377.50 410.81 385.32 389.30
  Q 390.64 374.66 392.15 360.76
  Z"
/>
<rect fill="#407bff" x="287.05" y="364.68" width="14.56" height="1.48" rx="0.57"/>
<rect fill="#407bff" x="-3.09" y="-0.67" transform="translate(310.09,365.41) rotate(0.3)" width="6.18" height="1.34" rx="0.54"/>
<path fill="#f5f5f5" d="
  M 443.26 367.78
  Q 446.41 370.56 445.54 372.67
  L 441.20 373.49
  Q 440.68 373.59 440.51 373.09
  L 439.03 368.86
  L 443.26 367.78
  Z"
/>
<path fill="#203d7f" d="
  M 439.03 368.86
  L 440.51 373.09
  Q 440.68 373.59 441.20 373.49
  L 445.54 372.67
  C 451.06 383.41 449.14 395.63 446.59 407.86
  Q 444.32 418.77 441.87 430.11
  L 360.55 430.41
  Q 361.32 427.27 364.21 426.28
  Q 364.71 426.11 365.03 425.69
  C 366.73 423.48 366.03 421.54 365.77 419.00
  Q 363.49 397.12 361.13 375.25
  Q 360.82 372.38 358.80 369.81
  Q 362.66 370.83 362.97 373.75
  Q 365.17 394.49 367.62 416.17
  L 368.25 423.43
  Q 368.30 423.98 367.98 424.43
  L 367.20 425.55
  Q 366.79 426.13 367.50 426.16
  L 369.95 426.27
  L 384.36 426.16
  Q 384.86 426.15 385.00 425.67
  Q 391.29 404.02 399.18 382.99
  Q 399.35 382.54 399.64 382.73
  L 402.65 382.31
  Q 403.18 382.23 403.00 381.72
  L 401.47 377.41
  Q 402.36 376.46 403.71 376.94
  L 405.15 381.13
  Q 405.35 381.70 405.94 381.57
  L 420.22 378.31
  Q 420.70 378.20 420.54 377.73
  L 419.10 373.51
  Q 419.97 372.42 421.27 372.93
  L 422.79 377.20
  Q 422.96 377.68 423.46 377.57
  L 437.88 374.32
  Q 438.45 374.19 438.26 373.65
  L 436.78 369.42
  Q 437.54 368.53 439.03 368.86
  Z"
/>
<path fill="#203d7f" d="
  M 206.19 387.65
  L 201.79 390.24
  Q 201.77 390.03 201.63 389.89
  Q 201.44 389.69 201.42 389.41
  Q 200.89 379.46 199.34 369.85
  A 0.14 0.14 0.0 0 1 199.60 369.75
  Q 204.53 377.85 206.19 387.65
  Z"
/>
<path fill="#f5f5f5" d="
  M 436.78 369.42
  L 438.26 373.65
  Q 438.45 374.19 437.88 374.32
  L 423.46 377.57
  Q 422.96 377.68 422.79 377.20
  L 421.27 372.93
  L 436.78 369.42
  Z"
/>
<path fill="#407bff" d="
  M 358.80 369.81
  Q 360.82 372.38 361.13 375.25
  Q 363.49 397.12 365.77 419.00
  C 366.03 421.54 366.73 423.48 365.03 425.69
  Q 364.71 426.11 364.21 426.28
  Q 361.32 427.27 360.55 430.41
  L 284.31 430.30
  L 286.03 427.20
  Q 286.37 426.59 285.67 426.63
  C 283.25 426.76 280.95 425.01 280.68 422.53
  Q 278.13 398.64 275.53 374.16
  C 275.24 371.46 276.97 369.82 279.75 369.81
  Q 319.58 369.56 358.80 369.81
  Z"
/>
<path fill="#f5f5f5" d="
  M 419.10 373.51
  L 420.54 377.73
  Q 420.70 378.20 420.22 378.31
  L 405.94 381.57
  Q 405.35 381.70 405.15 381.13
  L 403.71 376.94
  L 419.10 373.51
  Z"
/>
<path fill="#803e3c" d="
  M 201.64 400.31
  Q 201.56 396.00 201.40 391.75
  Q 201.37 390.88 201.79 390.24
  L 206.19 387.65
  L 212.85 383.68
  L 221.23 406.87
  A 0.48 0.48 0.0 0 0 222.04 407.02
  L 235.41 391.97
  Q 236.50 390.74 236.95 389.15
  L 239.08 381.49
  Q 239.26 380.82 239.89 380.52
  L 249.16 376.05
  A 0.66 0.65 -32.8 0 1 249.93 376.21
  L 255.10 382.18
  A 0.51 0.50 46.8 0 1 255.08 382.86
  Q 251.02 387.09 247.42 392.63
  C 245.86 395.03 243.22 396.74 241.93 399.50
  C 238.25 407.37 232.67 417.39 225.64 422.79
  C 220.42 426.78 213.44 425.95 210.24 420.00
  Q 206.47 413.01 201.64 400.31
  Z"
/>
<path fill="#803e3c" d="
  M 138.72 417.78
  C 134.54 419.65 130.29 421.53 125.54 421.45
  C 119.67 421.36 115.46 416.87 115.45 411.00
  Q 115.42 399.40 118.35 386.54
  L 133.38 393.66
  L 132.43 398.59
  L 131.50 404.96
  Q 131.41 405.56 131.99 405.36
  L 136.40 403.79
  L 138.62 402.96
  L 159.48 393.27
  A 2.25 2.24 88.6 0 0 160.58 392.11
  L 163.78 384.32
  A 2.40 2.38 85.7 0 1 164.76 383.17
  L 173.80 377.57
  A 0.64 0.63 -31.3 0 1 174.69 377.78
  L 178.64 384.32
  A 0.76 0.74 50.6 0 1 178.56 385.21
  C 176.05 388.05 173.01 390.95 171.28 394.29
  Q 169.96 396.84 168.61 397.85
  C 158.94 405.10 149.57 412.17 138.72 417.78
  Z
  M 169.8610 389.8119
  A 2.52 0.13 46.3 0 0 168.2140 387.9002
  A 2.52 0.13 46.3 0 0 166.3790 386.1681
  A 2.52 0.13 46.3 0 0 168.0260 388.0798
  A 2.52 0.13 46.3 0 0 169.8610 389.8119
  Z"
/>
<path fill="#f5f5f5" d="
  M 401.47 377.41
  L 403.00 381.72
  Q 403.18 382.23 402.65 382.31
  L 399.64 382.73
  Q 398.72 380.85 398.20 378.69
  Q 398.11 378.30 398.24 378.08
  Q 398.44 377.77 398.86 377.81
  Q 399.84 378.06 401.47 377.41
  Z"
/>
<path fill="#203d7f" d="
  M 138.63 396.90
  Q 137.79 394.26 138.05 391.97
  L 142.53 381.08
  A 0.08 0.08 0.0 0 1 142.69 381.12
  Q 141.69 389.00 138.63 396.90
  Z"
/>
<path fill="#ffb573" d="
  M 510.63 382.92
  L 522.70 390.41
  Q 523.15 390.68 523.13 391.20
  L 522.94 396.30
  Q 519.15 404.49 515.36 412.25
  Q 513.92 415.21 511.74 417.11
  Q 500.11 427.27 483.88 429.78
  L 448.07 430.05
  L 446.65 426.56
  A 0.69 0.68 -29.5 0 1 446.88 425.75
  L 454.93 419.66
  A 1.74 1.73 31.5 0 1 456.27 419.34
  C 461.30 420.25 466.42 422.16 471.60 421.01
  C 482.61 418.57 493.35 414.35 500.06 407.51
  Q 501.31 406.23 502.15 404.18
  Q 506.44 393.68 510.63 382.92
  Z"
/>
<ellipse fill="#203d7f" cx="0.00" cy="0.00" transform="translate(168.12,387.99) rotate(46.3)" rx="2.52" ry="0.13"/>
<path fill="#ffb573" d="
  M 606.39 386.55
  Q 608.86 396.86 609.25 407.34
  Q 609.44 412.41 608.53 415.07
  C 606.55 420.87 600.50 424.79 595.12 427.13
  Q 590.65 429.09 586.05 430.63
  L 580.16 432.25
  Q 575.50 430.28 573.00 430.27
  Q 555.91 430.20 538.76 430.13
  L 538.57 425.47
  Q 538.55 424.86 539.14 424.77
  L 549.73 423.03
  Q 550.27 422.94 550.77 423.18
  L 558.34 426.83
  A 2.05 2.02 -40.9 0 0 559.89 426.93
  Q 573.60 422.29 585.98 416.27
  Q 587.94 415.21 591.73 412.72
  Q 593.09 411.82 593.77 410.69
  Q 594.03 410.25 593.95 409.75
  L 591.18 393.75
  L 606.39 386.55
  Z"
/>
<path fill="#ecf2ff" d="
  M 591.18 393.75
  L 593.95 409.75
  Q 594.03 410.25 593.77 410.69
  Q 593.09 411.82 591.73 412.72
  Q 587.94 415.21 585.98 416.27
  L 586.75 392.30
  Q 586.78 391.38 587.18 392.21
  L 588.19 394.34
  Q 588.44 394.86 588.97 394.64
  L 591.18 393.75
  Z"
/>
<path fill="#ecf2ff" d="
  M 138.05 391.97
  Q 137.79 394.26 138.63 396.90
  Q 138.07 399.01 138.62 402.96
  L 136.40 403.79
  L 132.43 398.59
  L 133.38 393.66
  L 135.65 394.73
  A 0.78 0.78 0.0 0 0 136.73 394.26
  Q 137.47 391.91 138.05 391.97
  Z"
/>
<path fill="#ecf2ff" d="
  M 522.94 396.30
  Q 522.90 413.39 524.70 429.69
  C 523.96 429.76 523.50 430.16 522.75 430.16
  Q 508.62 430.07 494.50 429.99
  Q 486.07 429.94 483.88 429.78
  Q 500.11 427.27 511.74 417.11
  Q 513.92 415.21 515.36 412.25
  Q 519.15 404.49 522.94 396.30
  Z"
/>
<path fill="#d9e5ff" d="
  M 483.88 429.78
  Q 486.07 429.94 494.50 429.99
  Q 508.62 430.07 522.75 430.16
  C 523.50 430.16 523.96 429.76 524.70 429.69
  Q 524.72 430.11 525.00 430.11
  Q 531.92 430.06 538.76 430.13
  Q 555.91 430.20 573.00 430.27
  Q 575.50 430.28 580.16 432.25
  L 586.20 436.18
  Q 590.56 440.30 592.46 446.33
  Q 593.13 450.65 593.13 452.37
  Q 593.12 532.88 593.13 613.23
  L 593.36 624.12
  A 0.86 0.86 0.0 0 1 592.50 625.00
  L 584.73 625.00
  Q 584.01 625.00 584.01 624.28
  L 584.02 612.58
  L 584.04 496.26
  Q 584.04 495.63 583.41 495.63
  L 561.28 495.63
  A 0.40 0.40 0.0 0 0 560.88 496.03
  Q 560.90 553.48 560.88 611.00
  Q 560.88 611.47 561.48 611.37
  Q 561.05 611.60 561.05 612.00
  Q 560.99 617.61 560.99 623.90
  A 0.97 0.97 0.0 0 1 560.02 624.87
  L 552.98 624.87
  A 1.78 1.77 -2.3 0 1 551.21 623.24
  Q 550.69 616.82 551.68 610.83
  L 551.73 496.06
  Q 551.73 495.63 551.30 495.62
  L 514.83 495.44
  L 513.93 488.71
  Q 513.87 488.25 514.33 488.27
  Q 533.24 488.88 551.45 488.25
  A 0.33 0.33 0.0 0 0 551.76 487.92
  Q 551.83 468.97 551.73 451.25
  Q 551.71 447.54 548.33 443.87
  Q 544.44 439.55 537.74 439.55
  Q 528.64 439.56 525.93 439.84
  L 440.38 439.68
  L 381.15 439.78
  Q 320.58 440.10 260.50 439.67
  Q 249.65 439.59 212.00 439.74
  Q 205.47 439.76 202.24 443.85
  Q 201.58 443.72 200.74 445.01
  Q 198.27 448.81 198.26 452.96
  Q 198.23 469.58 198.24 488.00
  Q 198.24 488.54 198.79 488.53
  L 210.25 488.31
  Q 210.75 488.30 210.70 488.79
  L 210.00 495.18
  L 198.76 495.77
  Q 198.28 495.80 198.28 496.29
  L 198.25 585.21
  L 198.28 594.93
  L 198.34 607.78
  L 198.34 619.86
  Q 198.34 620.23 198.70 620.30
  Q 198.86 620.33 199.01 620.29
  Q 198.54 621.47 198.66 623.25
  Q 198.79 625.01 197.03 625.00
  L 190.61 624.99
  Q 188.99 624.99 189.01 623.36
  L 189.14 611.85
  Q 189.14 611.69 189.02 611.60
  L 188.71 611.36
  Q 189.06 611.34 189.06 611.00
  Q 189.12 553.63 189.12 496.00
  Q 189.12 495.62 188.75 495.62
  L 166.54 495.63
  Q 165.98 495.63 165.98 496.19
  L 165.98 612.58
  L 165.84 624.31
  A 0.53 0.53 0.0 0 1 165.31 624.84
  L 157.92 624.94
  A 1.42 1.42 0.0 0 1 156.48 623.47
  L 156.80 613.27
  L 156.84 496.24
  Q 156.84 495.63 156.23 495.63
  Q 147.74 495.63 139.28 495.63
  C 132.75 495.63 132.80 486.35 139.40 486.30
  Q 148.07 486.23 156.52 486.29
  Q 156.97 486.30 156.81 485.88
  Q 156.73 485.68 156.82 485.48
  Q 156.87 469.40 156.82 453.25
  Q 156.80 448.20 158.68 443.88
  Q 162.97 434.90 171.44 431.74
  Q 175.31 430.30 183.73 430.28
  Q 191.94 430.25 199.93 430.20
  L 284.31 430.30
  L 360.55 430.41
  L 441.87 430.11
  L 448.07 430.05
  L 483.88 429.78
  Z
  M 169.45 443.85
  Q 167.69 445.68 166.72 448.45
  Q 165.93 450.69 165.94 453.14
  Q 165.96 470.51 165.94 486.85
  Q 165.94 487.40 166.49 487.47
  Q 176.98 488.72 188.63 488.56
  Q 189.17 488.56 189.17 488.02
  Q 189.14 471.48 189.18 455.00
  Q 189.19 448.10 190.97 443.91
  L 193.48 439.70
  Q 193.71 439.32 193.26 439.31
  Q 186.09 439.16 179.02 439.29
  Q 173.36 439.39 169.45 443.85
  Z
  M 559.25 444.03
  Q 559.82 446.19 560.28 448.17
  Q 560.77 450.28 560.78 452.49
  Q 560.80 469.97 560.77 486.53
  Q 560.77 487.08 561.31 486.99
  L 565.39 486.33
  L 583.47 486.24
  Q 583.97 486.24 583.98 485.73
  L 584.06 474.38
  Q 584.31 458.82 584.04 452.25
  Q 583.83 446.93 580.57 443.82
  Q 576.33 439.36 570.74 439.30
  Q 563.94 439.23 557.11 439.38
  Q 556.61 439.39 556.86 439.82
  L 559.25 444.03
  Z"
/>
<path fill="#263238" d="
  M 586.05 430.63
  L 586.20 436.18
  L 580.16 432.25
  L 586.05 430.63
  Z"
/>
<path fill="#407bff" d="
  M 190.97 443.91
  L 169.45 443.85
  Q 173.36 439.39 179.02 439.29
  Q 186.09 439.16 193.26 439.31
  Q 193.71 439.32 193.48 439.70
  L 190.97 443.91
  Z"
/>
<path fill="#263238" d="
  M 580.57 443.82
  L 559.25 444.03
  L 556.86 439.82
  Q 556.61 439.39 557.11 439.38
  Q 563.94 439.23 570.74 439.30
  Q 576.33 439.36 580.57 443.82
  Z"
/>
<path fill="#ecf2ff" d="
  M 381.15 439.78
  Q 379.05 449.01 377.46 458.00
  C 374.71 473.50 375.50 486.74 377.36 504.50
  Q 377.44 505.17 377.18 505.72
  Q 350.06 506.50 335.50 505.75
  Q 309.45 504.42 280.04 496.22
  Q 279.83 495.95 279.85 495.75
  Q 280.33 489.73 280.88 483.84
  Q 281.41 478.13 280.55 475.15
  C 276.47 460.97 253.83 453.82 240.99 450.56
  Q 222.15 445.76 202.24 443.85
  Q 205.47 439.76 212.00 439.74
  Q 249.65 439.59 260.50 439.67
  Q 320.58 440.10 381.15 439.78
  Z"
/>
<path fill="#203d7f" d="
  M 440.38 439.68
  Q 437.33 455.47 440.43 471.71
  Q 437.76 476.68 437.92 481.25
  C 438.13 487.48 440.00 495.90 441.91 502.82
  Q 448.15 525.39 457.11 546.97
  L 461.05 571.91
  L 445.24 575.92
  L 420.83 502.28
  C 417.57 491.38 413.42 479.15 411.79 469.06
  Q 409.94 457.58 409.73 445.40
  Q 409.70 443.69 409.30 445.36
  Q 407.67 452.10 406.13 459.56
  C 403.13 474.05 402.54 489.24 402.89 504.04
  L 404.21 588.31
  L 388.43 588.84
  Q 381.65 546.22 377.51 506.75
  Q 377.43 506.04 377.18 505.72
  Q 377.44 505.17 377.36 504.50
  C 375.50 486.74 374.71 473.50 377.46 458.00
  Q 379.05 449.01 381.15 439.78
  L 440.38 439.68
  Z"
/>
<path fill="#ecf2ff" d="
  M 440.38 439.68
  L 525.93 439.84
  Q 526.60 441.70 526.44 443.64
  Q 498.22 445.45 470.97 453.44
  Q 457.40 457.42 445.94 465.62
  Q 444.44 466.69 440.43 471.71
  Q 437.33 455.47 440.38 439.68
  Z"
/>
<path fill="#263238" d="
  M 548.33 443.87
  L 526.44 443.64
  Q 526.60 441.70 525.93 439.84
  Q 528.64 439.56 537.74 439.55
  Q 544.44 439.55 548.33 443.87
  Z"
/>
<path fill="#407bff" d="
  M 526.44 443.64
  L 548.33 443.87
  Q 551.71 447.54 551.73 451.25
  Q 551.83 468.97 551.76 487.92
  A 0.33 0.33 0.0 0 1 551.45 488.25
  Q 533.24 488.88 514.33 488.27
  Q 513.87 488.25 513.93 488.71
  L 514.83 495.44
  Q 516.89 507.89 520.19 521.26
  Q 527.18 549.54 536.07 577.69
  L 515.08 583.87
  Q 504.94 563.85 496.10 543.64
  Q 487.57 524.11 481.47 503.70
  Q 479.86 498.28 478.45 492.85
  Q 478.44 492.74 478.51 492.54
  Q 478.61 492.25 478.43 492.01
  L 478.22 491.72
  Q 476.98 486.15 476.84 480.50
  Q 476.73 475.86 478.65 472.15
  Q 479.13 471.24 478.30 471.85
  C 470.10 477.89 468.52 488.69 472.15 497.73
  Q 474.66 503.98 477.70 507.28
  Q 485.13 545.56 495.51 583.94
  L 473.79 585.66
  L 457.11 546.97
  Q 448.15 525.39 441.91 502.82
  C 440.00 495.90 438.13 487.48 437.92 481.25
  Q 437.76 476.68 440.43 471.71
  Q 444.44 466.69 445.94 465.62
  Q 457.40 457.42 470.97 453.44
  Q 498.22 445.45 526.44 443.64
  Z"
/>
<path fill="#407bff" d="
  M 580.57 443.82
  Q 583.83 446.93 584.04 452.25
  Q 584.31 458.82 584.06 474.38
  Q 579.93 481.47 572.25 484.06
  Q 568.89 485.20 565.39 486.33
  L 561.31 486.99
  Q 560.77 487.08 560.77 486.53
  Q 560.80 469.97 560.78 452.49
  Q 560.77 450.28 560.28 448.17
  Q 559.82 446.19 559.25 444.03
  L 580.57 443.82
  Z"
/>
<path fill="#263238" d="
  M 138.17 443.84
  L 158.68 443.88
  Q 156.80 448.20 156.82 453.25
  Q 156.87 469.40 156.82 485.48
  Q 149.64 483.61 144.94 479.84
  Q 142.13 477.58 140.66 473.45
  Q 135.38 458.61 138.17 443.84
  Z"
/>
<path fill="#263238" d="
  M 169.45 443.85
  L 190.97 443.91
  Q 189.19 448.10 189.18 455.00
  Q 189.14 471.48 189.17 488.02
  Q 189.17 488.56 188.63 488.56
  Q 176.98 488.72 166.49 487.47
  Q 165.94 487.40 165.94 486.85
  Q 165.96 470.51 165.94 453.14
  Q 165.93 450.69 166.72 448.45
  Q 167.69 445.68 169.45 443.85
  Z"
/>
<path fill="#263238" d="
  M 202.24 443.85
  Q 222.15 445.76 240.99 450.56
  C 253.83 453.82 276.47 460.97 280.55 475.15
  Q 281.41 478.13 280.88 483.84
  Q 280.33 489.73 279.85 495.75
  Q 279.83 495.95 280.04 496.22
  Q 279.77 496.22 279.76 496.50
  Q 277.46 537.85 279.94 579.28
  L 260.03 586.56
  C 253.87 560.31 248.70 531.56 248.51 504.85
  Q 248.48 500.35 249.23 493.21
  A 0.78 0.76 -76.7 0 0 248.75 492.41
  L 247.22 491.81
  Q 246.71 491.61 246.62 492.15
  Q 244.40 505.41 242.20 514.26
  Q 233.86 547.80 221.21 584.25
  L 198.70 585.05
  L 210.00 495.18
  L 210.70 488.79
  Q 210.75 488.30 210.25 488.31
  L 198.79 488.53
  Q 198.24 488.54 198.24 488.00
  Q 198.23 469.58 198.26 452.96
  Q 198.27 448.81 200.74 445.01
  Q 201.58 443.72 202.24 443.85
  Z"
/>
<path fill="#ecf2ff" d="
  M 420.83 502.28
  L 402.89 504.04
  C 402.54 489.24 403.13 474.05 406.13 459.56
  Q 407.67 452.10 409.30 445.36
  Q 409.70 443.69 409.73 445.40
  Q 409.94 457.58 411.79 469.06
  C 413.42 479.15 417.57 491.38 420.83 502.28
  Z"
/>
<path fill="#203d7f" d="
  M 478.22 491.72
  Q 476.64 491.81 475.68 492.72
  Q 475.44 492.95 475.68 493.19
  Q 475.77 493.28 475.96 493.31
  Q 475.61 493.94 475.75 494.76
  Q 476.78 500.92 477.70 507.28
  Q 474.66 503.98 472.15 497.73
  C 468.52 488.69 470.10 477.89 478.30 471.85
  Q 479.13 471.24 478.65 472.15
  Q 476.73 475.86 476.84 480.50
  Q 476.98 486.15 478.22 491.72
  Z"
/>
<path fill="#d9e5ff" d="
  M 478.22 491.72
  L 478.43 492.01
  Q 478.61 492.25 478.51 492.54
  Q 478.44 492.74 478.45 492.85
  L 475.96 493.31
  Q 475.77 493.28 475.68 493.19
  Q 475.44 492.95 475.68 492.72
  Q 476.64 491.81 478.22 491.72
  Z"
/>
<path fill="#263238" d="
  M 460.57 578.91
  L 449.43 581.14
  L 445.82 581.82
  Q 445.34 581.91 445.04 581.52
  Q 440.21 575.20 445.24 575.92
  L 461.05 571.91
  L 462.96 571.46
  Q 463.44 571.35 463.52 571.84
  Q 464.78 579.45 460.57 578.91
  Z"
/>
<path fill="#263238" d="
  M 534.41 589.08
  L 523.58 591.65
  L 515.91 593.22
  Q 515.28 593.35 515.09 592.74
  L 512.70 585.20
  A 0.66 0.66 0.0 0 1 513.16 584.37
  L 515.08 583.87
  L 536.07 577.69
  L 538.43 577.07
  Q 538.95 576.93 539.08 577.47
  L 541.21 586.56
  Q 541.36 587.17 540.75 587.34
  L 534.41 589.08
  Z"
/>
<path fill="#407bff" d="
  M 276.61 590.76
  L 266.42 595.44
  L 260.38 598.17
  Q 259.71 598.47 259.56 597.75
  L 257.57 588.03
  Q 257.47 587.55 257.93 587.37
  L 260.03 586.56
  L 279.94 579.28
  L 281.97 578.62
  Q 282.50 578.44 282.60 578.99
  L 283.94 586.73
  Q 284.04 587.31 283.51 587.56
  L 276.61 590.76
  Z"
/>
<path fill="#ff8b7b" d="
  M 460.57 578.91
  Q 461.60 584.15 464.03 588.43
  L 453.34 592.37
  L 449.43 581.14
  L 460.57 578.91
  Z"
/>
<path fill="#263238" d="
  M 495.51 583.94
  L 497.45 583.88
  Q 498.00 583.86 498.12 584.39
  L 500.37 594.12
  Q 500.50 594.67 499.93 594.69
  L 493.20 594.93
  L 482.01 594.96
  L 474.33 594.72
  Q 473.69 594.70 473.53 594.08
  L 471.55 586.51
  Q 471.41 585.99 471.95 585.92
  L 473.79 585.66
  L 495.51 583.94
  Z"
/>
<path fill="#407bff" d="
  M 221.21 584.25
  L 222.72 584.27
  Q 223.36 584.28 223.27 584.91
  L 221.95 594.06
  Q 221.87 594.63 221.30 594.64
  L 213.59 594.81
  L 202.08 594.81
  L 198.28 594.93
  L 198.25 585.21
  Q 198.79 585.15 198.70 585.05
  L 221.21 584.25
  Z"
/>
<path fill="#263238" d="
  M 404.21 588.31
  L 405.75 588.34
  Q 406.24 588.36 406.25 588.84
  Q 406.50 595.89 402.57 594.61
  L 391.32 594.67
  L 388.51 594.56
  Q 387.98 594.54 387.85 594.02
  L 386.84 589.74
  Q 386.73 589.25 387.19 589.06
  Q 387.74 588.82 388.43 588.84
  L 404.21 588.31
  Z"
/>
<path fill="#263238" d="
  M 464.03 588.43
  Q 466.64 590.75 469.64 597.09
  Q 470.41 598.71 469.66 599.68
  Q 469.22 600.26 467.68 600.68
  Q 458.22 603.26 449.25 607.88
  Q 447.00 608.81 444.34 609.92
  Q 441.03 611.32 438.41 607.64
  Q 445.82 602.23 450.16 595.86
  L 451.96 594.70
  Q 452.35 594.45 452.14 594.05
  Q 451.73 593.25 451.73 592.55
  Q 452.12 592.91 452.50 592.85
  Q 453.03 592.77 453.34 592.37
  L 464.03 588.43
  Z"
/>
<path fill="#ffb573" d="
  M 534.41 589.08
  L 538.88 599.01
  L 528.65 602.79
  L 523.58 591.65
  L 534.41 589.08
  Z"
/>
<path fill="#407bff" d="
  M 451.73 592.55
  Q 451.73 593.25 452.14 594.05
  Q 452.35 594.45 451.96 594.70
  L 450.16 595.86
  Q 448.82 595.98 450.31 594.46
  Q 450.73 594.03 450.17 593.82
  Q 448.44 593.19 448.27 591.19
  A 0.92 0.92 0.0 0 1 449.86 590.49
  L 451.73 592.55
  Z
  M 448.89 591.99
  Q 449.54 593.01 450.74 593.27
  A 0.43 0.43 0.0 0 0 451.16 592.57
  L 449.79 590.97
  A 0.57 0.56 -47.9 0 0 448.90 591.02
  Q 448.57 591.50 448.89 591.99
  Z"
/>
<path fill="#803e3c" d="
  M 276.61 590.76
  L 278.81 602.89
  Q 278.80 602.66 278.98 602.99
  Q 278.88 603.43 279.08 603.71
  L 268.84 608.33
  L 266.42 595.44
  L 276.61 590.76
  Z"
/>
<path fill="#203d7f" d="
  M 447.42 595.24
  L 448.48 595.71
  A 0.24 0.23 60.3 0 1 448.36 596.16
  Q 447.49 596.05 446.70 595.29
  A 0.67 0.66 -53.3 0 1 446.59 594.50
  Q 447.12 593.54 448.22 593.56
  A 0.13 0.13 0.0 0 1 448.25 593.81
  Q 447.42 594.02 447.19 594.71
  A 0.43 0.43 0.0 0 0 447.42 595.24
  Z"
/>
<path fill="#ff8b7b" d="
  M 402.57 594.61
  L 403.43 607.38
  Q 403.81 607.05 403.54 607.72
  L 391.62 607.71
  Q 391.86 607.74 391.71 607.36
  Q 392.26 607.34 392.25 607.00
  Q 392.09 602.30 391.32 594.67
  L 402.57 594.61
  Z"
/>
<path fill="#803e3c" d="
  M 202.08 594.81
  L 213.59 594.81
  L 211.33 606.94
  L 211.24 607.71
  L 199.67 607.62
  L 202.08 594.81
  Z"
/>
<path fill="#ffb573" d="
  M 493.20 594.93
  L 496.33 607.63
  L 485.11 607.58
  L 482.01 594.96
  L 493.20 594.93
  Z"
/>
<path fill="#263238" d="
  M 544.64 610.51
  Q 539.75 612.47 535.58 613.64
  Q 532.50 614.49 530.35 615.60
  C 526.60 617.55 523.02 619.68 518.74 619.94
  Q 515.30 620.14 511.44 620.04
  C 510.12 620.00 509.00 619.48 508.45 618.22
  A 1.90 1.90 0.0 0 1 509.73 615.62
  Q 516.26 613.98 521.51 609.69
  L 524.96 606.46
  Q 526.04 605.79 527.23 605.22
  Q 528.52 604.60 527.40 603.29
  L 528.65 602.79
  L 538.88 599.01
  Q 539.58 598.72 540.36 598.78
  Q 540.87 598.82 541.13 599.26
  Q 544.58 605.25 544.64 610.51
  Z"
/>
<path fill="#407bff" d="
  M 284.08 603.89
  Q 282.77 604.20 280.88 604.88
  Q 279.90 605.23 279.75 603.76
  Q 282.79 602.45 280.83 600.25
  Q 280.40 599.77 280.05 600.31
  Q 279.59 601.01 279.70 601.93
  Q 279.76 602.43 279.40 602.79
  Q 279.22 602.97 278.98 602.99
  Q 278.80 602.66 278.81 602.89
  L 279.41 600.23
  A 0.93 0.93 0.0 0 1 280.94 599.75
  Q 283.03 601.64 281.86 603.38
  Q 281.50 603.91 282.14 603.83
  Q 283.56 603.64 284.40 602.81
  A 0.75 0.74 26.1 0 0 283.96 601.54
  Q 283.80 601.52 283.63 601.52
  Q 282.74 601.54 283.44 601.00
  Q 283.83 600.71 284.17 600.85
  Q 286.09 601.69 284.08 603.89
  Z"
/>
<path fill="#263238" d="
  M 300.68 607.94
  L 273.47 620.28
  A 2.04 2.03 -22.9 0 1 270.73 619.17
  Q 269.08 614.98 267.34 610.48
  Q 267.16 610.00 267.32 609.52
  Q 267.47 609.08 267.77 608.60
  L 268.84 608.33
  L 279.08 603.71
  L 279.75 603.76
  Q 279.90 605.23 280.88 604.88
  Q 282.77 604.20 284.08 603.89
  Q 294.09 603.03 304.09 600.56
  Q 305.71 600.17 306.67 601.52
  Q 306.93 601.88 306.99 602.26
  Q 307.38 604.61 305.25 605.66
  L 300.68 607.94
  Z"
/>
<path fill="#407bff" d="
  M 527.40 603.29
  Q 528.52 604.60 527.23 605.22
  Q 526.04 605.79 524.96 606.46
  C 524.30 606.40 523.59 606.61 523.06 606.34
  Q 522.43 606.02 522.31 605.31
  Q 522.19 604.60 522.81 604.24
  Q 523.49 603.84 524.29 604.14
  Q 524.48 604.21 524.40 604.40
  L 524.29 604.66
  Q 524.28 604.70 524.24 604.67
  Q 523.83 604.36 523.37 604.49
  A 0.75 0.75 0.0 0 0 522.93 605.60
  Q 523.31 606.20 524.04 606.36
  Q 524.59 606.47 524.97 606.07
  Q 525.47 605.54 525.87 604.94
  Q 526.25 604.35 525.55 604.43
  Q 525.50 604.44 525.44 604.42
  Q 525.17 604.29 525.10 604.00
  Q 524.90 603.17 524.33 602.53
  Q 523.92 602.06 524.03 601.45
  Q 524.12 600.91 524.64 600.70
  Q 525.13 600.51 525.61 600.80
  Q 526.90 601.58 527.40 603.29
  Z
  M 525.42 603.39
  Q 527.16 605.19 526.79 602.71
  Q 526.63 601.70 525.07 601.16
  Q 524.42 600.93 524.55 601.61
  Q 524.76 602.71 525.42 603.39
  Z"
/>
<path fill="#407bff" d="
  M 391.71 607.36
  Q 391.86 607.74 391.62 607.71
  L 390.70 609.19
  Q 390.43 609.61 389.93 609.65
  Q 388.20 609.78 387.22 610.39
  Q 385.71 609.77 385.56 609.60
  Q 384.78 608.71 385.89 609.12
  Q 387.30 609.65 388.49 609.10
  Q 389.35 608.71 388.57 608.17
  Q 386.64 606.83 384.88 608.49
  Q 384.57 608.79 384.30 608.46
  Q 384.01 608.10 384.21 607.45
  Q 385.57 607.05 387.15 607.13
  Q 387.85 607.17 387.60 606.52
  L 387.25 605.61
  A 0.91 0.90 58.0 0 1 387.47 604.64
  Q 388.13 603.99 388.84 604.39
  Q 390.19 605.14 390.67 606.76
  Q 390.81 607.25 391.32 607.31
  L 391.71 607.36
  Z
  M 389.34 605.42
  Q 389.09 604.93 388.61 604.80
  A 0.74 0.74 0.0 0 0 387.72 605.79
  Q 388.31 607.24 389.84 607.32
  A 0.41 0.41 0.0 0 0 390.24 606.76
  C 390.05 606.30 389.59 605.89 389.34 605.42
  Z"
/>
<path fill="#203d7f" d="
  M 482.08 605.08
  Q 481.94 605.30 481.78 605.50
  Q 481.26 606.16 481.36 605.32
  Q 481.40 604.97 481.86 604.58
  Q 482.72 603.86 483.47 604.70
  Q 483.92 605.21 483.66 605.78
  Q 483.32 606.54 483.23 605.72
  Q 483.17 605.19 482.72 604.92
  Q 482.32 604.68 482.08 605.08
  Z"
/>
<path fill="#407bff" d="
  M 213.08 605.14
  Q 212.96 605.25 212.88 605.39
  Q 212.60 605.87 212.35 605.37
  Q 212.29 605.23 212.28 605.07
  Q 212.28 604.53 212.81 604.43
  Q 213.87 604.24 214.48 605.04
  Q 214.71 605.34 214.35 605.43
  Q 214.08 605.50 213.92 605.26
  A 0.56 0.56 0.0 0 0 213.08 605.14
  Z"
/>
<path fill="#407bff" d="
  M 216.22 609.91
  Q 215.98 609.97 215.95 610.22
  Q 211.28 609.65 211.24 607.71
  L 211.33 606.94
  Q 211.41 607.36 211.64 607.62
  Q 212.02 608.06 212.55 607.91
  Q 213.07 607.77 213.04 607.23
  L 213.01 606.76
  Q 212.98 606.04 213.53 606.51
  Q 214.40 607.25 215.55 606.91
  A 0.93 0.92 71.6 0 1 216.68 607.48
  Q 216.91 608.11 216.54 608.66
  Q 216.13 609.28 216.13 608.54
  L 216.12 607.95
  Q 216.12 607.26 215.45 607.39
  L 213.56 607.76
  Q 213.01 607.87 213.21 608.39
  Q 213.58 609.32 214.63 609.38
  Q 215.64 609.43 216.22 609.91
  Z"
/>
<path fill="#407bff" d="
  M 481.60 606.98
  L 482.44 606.67
  Q 483.09 606.43 482.89 607.09
  Q 482.84 607.27 482.75 607.43
  Q 482.65 607.63 482.44 607.71
  Q 482.01 607.88 481.58 607.68
  Q 480.75 607.30 481.60 606.98
  Z"
/>
<path fill="#f5f5f5" d="
  M 384.21 607.45
  Q 384.01 608.10 384.30 608.46
  Q 384.57 608.79 384.88 608.49
  Q 386.64 606.83 388.57 608.17
  Q 389.35 608.71 388.49 609.10
  Q 387.30 609.65 385.89 609.12
  Q 384.78 608.71 385.56 609.60
  Q 385.71 609.77 387.22 610.39
  Q 381.48 613.95 375.10 615.27
  Q 373.36 615.62 373.59 617.38
  Q 373.83 619.21 376.64 620.18
  A 3.14 3.12 53.3 0 0 377.77 620.35
  Q 392.04 619.85 404.60 620.30
  A 1.67 1.67 0.0 0 0 406.32 618.41
  Q 405.64 613.29 404.97 608.75
  Q 404.81 607.67 403.54 607.72
  Q 403.81 607.05 403.43 607.38
  L 438.41 607.64
  Q 441.03 611.32 444.34 609.92
  Q 447.00 608.81 449.25 607.88
  Q 465.28 608.30 480.81 608.58
  C 482.24 608.61 483.07 608.10 484.39 607.73
  L 484.37 608.62
  Q 484.36 609.21 483.77 609.19
  Q 482.42 609.16 481.15 609.62
  Q 472.11 612.89 460.75 615.21
  Q 459.10 615.55 458.86 617.22
  Q 458.79 617.71 458.98 618.14
  Q 460.00 620.46 462.52 620.38
  Q 480.51 619.85 497.19 620.26
  A 1.80 1.80 0.0 0 0 499.03 618.38
  L 498.59 609.01
  L 521.51 609.69
  Q 516.26 613.98 509.73 615.62
  A 1.90 1.90 0.0 0 0 508.45 618.22
  C 509.00 619.48 510.12 620.00 511.44 620.04
  Q 515.30 620.14 518.74 619.94
  C 523.02 619.68 526.60 617.55 530.35 615.60
  Q 532.50 614.49 535.58 613.64
  Q 539.75 612.47 544.64 610.51
  L 551.68 610.83
  Q 550.69 616.82 551.21 623.24
  A 1.78 1.77 -2.3 0 0 552.98 624.87
  L 560.02 624.87
  A 0.97 0.97 0.0 0 0 560.99 623.90
  Q 560.99 617.61 561.05 612.00
  Q 561.05 611.60 561.48 611.37
  L 584.02 612.58
  L 584.01 624.28
  Q 584.01 625.00 584.73 625.00
  L 592.50 625.00
  A 0.86 0.86 0.0 0 0 593.36 624.12
  L 593.13 613.23
  Q 619.91 614.68 645.99 618.27
  C 652.27 619.14 659.40 620.04 665.03 623.10
  A 1.37 1.36 41.1 0 1 665.19 625.40
  Q 663.06 626.96 660.25 627.66
  Q 651.27 629.89 642.23 631.02
  Q 622.40 633.52 603.38 634.85
  Q 568.48 637.29 529.14 638.71
  Q 444.81 641.77 342.43 641.20
  Q 265.25 640.78 189.48 637.40
  Q 153.22 635.78 120.48 632.52
  Q 106.63 631.14 93.01 628.50
  Q 88.69 627.67 84.97 625.64
  A 1.37 1.37 0.0 0 1 84.63 623.50
  C 86.87 621.12 94.65 619.71 97.84 619.22
  Q 126.57 614.79 156.80 613.27
  L 156.48 623.47
  A 1.42 1.42 0.0 0 0 157.92 624.94
  L 165.31 624.84
  A 0.53 0.53 0.0 0 0 165.84 624.31
  L 165.98 612.58
  L 188.71 611.36
  L 189.02 611.60
  Q 189.14 611.69 189.14 611.85
  L 189.01 623.36
  Q 188.99 624.99 190.61 624.99
  L 197.03 625.00
  Q 198.79 625.01 198.66 623.25
  Q 198.54 621.47 199.01 620.29
  Q 213.87 619.82 230.20 620.40
  Q 232.62 620.48 233.78 618.19
  Q 234.03 617.71 233.89 617.07
  Q 233.53 615.48 231.93 615.14
  Q 223.21 613.31 215.95 610.22
  Q 215.98 609.97 216.22 609.91
  L 267.77 608.60
  Q 267.47 609.08 267.32 609.52
  Q 267.16 610.00 267.34 610.48
  Q 269.08 614.98 270.73 619.17
  A 2.04 2.03 -22.9 0 0 273.47 620.28
  L 300.68 607.94
  L 384.21 607.45
  Z"
/>
<path fill="#263238" d="
  M 199.67 607.62
  L 211.24 607.71
  Q 211.28 609.65 215.95 610.22
  Q 223.21 613.31 231.93 615.14
  Q 233.53 615.48 233.89 617.07
  Q 234.03 617.71 233.78 618.19
  Q 232.62 620.48 230.20 620.40
  Q 213.87 619.82 199.01 620.29
  Q 198.86 620.33 198.70 620.30
  Q 198.34 620.23 198.34 619.86
  L 198.34 607.78
  Q 199.12 608.04 199.67 607.62
  Z"
/>
<path fill="#263238" d="
  M 485.11 607.58
  L 496.33 607.63
  Q 498.49 607.55 498.59 609.01
  L 499.03 618.38
  A 1.80 1.80 0.0 0 1 497.19 620.26
  Q 480.51 619.85 462.52 620.38
  Q 460.00 620.46 458.98 618.14
  Q 458.79 617.71 458.86 617.22
  Q 459.10 615.55 460.75 615.21
  Q 472.11 612.89 481.15 609.62
  Q 482.42 609.16 483.77 609.19
  Q 484.36 609.21 484.37 608.62
  L 484.39 607.73
  Q 484.88 607.30 485.11 607.58
  Z"
/>
<path fill="#263238" d="
  M 391.62 607.71
  L 403.54 607.72
  Q 404.81 607.67 404.97 608.75
  Q 405.64 613.29 406.32 618.41
  A 1.67 1.67 0.0 0 1 404.60 620.30
  Q 392.04 619.85 377.77 620.35
  A 3.14 3.12 53.3 0 1 376.64 620.18
  Q 373.83 619.21 373.59 617.38
  Q 373.36 615.62 375.10 615.27
  Q 381.48 613.95 387.22 610.39
  Q 388.20 609.78 389.93 609.65
  Q 390.43 609.61 390.70 609.19
  L 391.62 607.71
  Z"
/>
</svg>
